G04*
G04 #@! TF.GenerationSoftware,Altium Limited,Altium Designer,18.1.7 (191)*
G04*
G04 Layer_Color=65535*
%FSLAX25Y25*%
%MOIN*%
G70*
G01*
G75*
%ADD10C,0.00984*%
%ADD11C,0.00800*%
%ADD12C,0.00787*%
%ADD13C,0.00500*%
%ADD14C,0.01000*%
G36*
X15324Y177305D02*
X14908D01*
Y177297D01*
X14912Y177293D01*
X14929Y177289D01*
X14950Y177280D01*
X14979Y177264D01*
X15016Y177247D01*
X15054Y177222D01*
X15095Y177193D01*
X15137Y177160D01*
X15179Y177122D01*
X15220Y177076D01*
X15262Y177031D01*
X15295Y176977D01*
X15324Y176914D01*
X15345Y176852D01*
X15361Y176781D01*
X15366Y176702D01*
Y176665D01*
X15361Y176640D01*
X15353Y176586D01*
X15345Y176557D01*
X15337Y176532D01*
X14696D01*
X14700Y176536D01*
X14708Y176552D01*
X14717Y176581D01*
X14733Y176615D01*
X14746Y176656D01*
X14754Y176706D01*
X14762Y176760D01*
X14767Y176823D01*
Y176844D01*
X14762Y176860D01*
X14758Y176902D01*
X14746Y176952D01*
X14725Y177010D01*
X14696Y177068D01*
X14654Y177126D01*
X14600Y177181D01*
X14592Y177185D01*
X14571Y177201D01*
X14534Y177218D01*
X14480Y177243D01*
X14417Y177264D01*
X14338Y177285D01*
X14251Y177301D01*
X14147Y177305D01*
X13073D01*
Y178000D01*
X15324D01*
Y177305D01*
D02*
G37*
G36*
X12389D02*
X10970D01*
Y177297D01*
X10974Y177293D01*
X10987Y177285D01*
X11008Y177268D01*
X11033Y177247D01*
X11062Y177222D01*
X11095Y177189D01*
X11128Y177151D01*
X11166Y177110D01*
X11203Y177060D01*
X11236Y177006D01*
X11270Y176943D01*
X11299Y176881D01*
X11324Y176810D01*
X11345Y176731D01*
X11357Y176652D01*
X11361Y176565D01*
Y176523D01*
X11357Y176494D01*
X11353Y176457D01*
X11345Y176415D01*
X11336Y176369D01*
X11324Y176315D01*
X11307Y176265D01*
X11286Y176211D01*
X11266Y176153D01*
X11236Y176099D01*
X11199Y176045D01*
X11162Y175991D01*
X11116Y175941D01*
X11062Y175895D01*
X11058Y175891D01*
X11049Y175887D01*
X11033Y175874D01*
X11008Y175858D01*
X10979Y175841D01*
X10941Y175820D01*
X10895Y175799D01*
X10850Y175774D01*
X10791Y175754D01*
X10733Y175733D01*
X10662Y175712D01*
X10592Y175695D01*
X10513Y175679D01*
X10429Y175666D01*
X10342Y175662D01*
X10246Y175658D01*
X10238D01*
X10221D01*
X10192D01*
X10155Y175662D01*
X10105Y175666D01*
X10051Y175670D01*
X9989Y175679D01*
X9922Y175691D01*
X9776Y175724D01*
X9701Y175745D01*
X9627Y175774D01*
X9552Y175803D01*
X9477Y175841D01*
X9406Y175883D01*
X9340Y175933D01*
X9335Y175937D01*
X9327Y175945D01*
X9310Y175962D01*
X9285Y175982D01*
X9261Y176012D01*
X9231Y176045D01*
X9202Y176082D01*
X9173Y176128D01*
X9140Y176178D01*
X9111Y176232D01*
X9082Y176294D01*
X9057Y176357D01*
X9036Y176427D01*
X9019Y176502D01*
X9007Y176586D01*
X9003Y176669D01*
Y176685D01*
X9007Y176710D01*
Y176735D01*
X9011Y176773D01*
X9019Y176810D01*
X9027Y176856D01*
X9040Y176902D01*
X9057Y176952D01*
X9077Y177006D01*
X9102Y177056D01*
X9136Y177110D01*
X9169Y177160D01*
X9211Y177210D01*
X9261Y177255D01*
X9315Y177297D01*
Y177305D01*
X9057D01*
Y178000D01*
X12389D01*
Y177305D01*
D02*
G37*
G36*
X14218Y176336D02*
X14255D01*
X14305Y176332D01*
X14359Y176323D01*
X14417Y176311D01*
X14484Y176299D01*
X14555Y176282D01*
X14625Y176261D01*
X14700Y176236D01*
X14775Y176203D01*
X14846Y176165D01*
X14916Y176124D01*
X14987Y176074D01*
X15049Y176016D01*
X15054Y176012D01*
X15062Y175999D01*
X15079Y175982D01*
X15100Y175957D01*
X15124Y175924D01*
X15154Y175887D01*
X15183Y175845D01*
X15216Y175795D01*
X15245Y175737D01*
X15274Y175679D01*
X15303Y175612D01*
X15328Y175541D01*
X15349Y175467D01*
X15366Y175388D01*
X15374Y175304D01*
X15378Y175217D01*
Y175171D01*
X15374Y175134D01*
X15370Y175092D01*
X15361Y175046D01*
X15353Y174992D01*
X15341Y174934D01*
X15328Y174876D01*
X15307Y174813D01*
X15282Y174751D01*
X15258Y174689D01*
X15220Y174626D01*
X15183Y174564D01*
X15137Y174510D01*
X15087Y174456D01*
X15083Y174451D01*
X15075Y174443D01*
X15058Y174431D01*
X15033Y174414D01*
X15004Y174393D01*
X14970Y174368D01*
X14925Y174347D01*
X14879Y174318D01*
X14825Y174293D01*
X14767Y174273D01*
X14700Y174248D01*
X14629Y174227D01*
X14555Y174210D01*
X14471Y174198D01*
X14384Y174189D01*
X14292Y174185D01*
X14001D01*
Y175654D01*
X13997D01*
X13980Y175650D01*
X13956Y175645D01*
X13926Y175637D01*
X13889Y175629D01*
X13847Y175612D01*
X13802Y175591D01*
X13756Y175562D01*
X13710Y175529D01*
X13664Y175487D01*
X13623Y175437D01*
X13585Y175375D01*
X13556Y175309D01*
X13531Y175229D01*
X13514Y175138D01*
X13510Y175034D01*
Y174996D01*
X13514Y174971D01*
Y174938D01*
X13519Y174901D01*
X13527Y174859D01*
X13531Y174813D01*
X13552Y174714D01*
X13585Y174601D01*
X13627Y174489D01*
X13685Y174381D01*
X13182D01*
Y174385D01*
X13173Y174393D01*
X13165Y174414D01*
X13157Y174439D01*
X13144Y174468D01*
X13132Y174506D01*
X13115Y174551D01*
X13103Y174597D01*
X13086Y174655D01*
X13069Y174718D01*
X13057Y174784D01*
X13044Y174855D01*
X13036Y174930D01*
X13028Y175013D01*
X13020Y175101D01*
Y175217D01*
X13024Y175246D01*
Y175284D01*
X13028Y175329D01*
X13036Y175383D01*
X13044Y175442D01*
X13057Y175504D01*
X13073Y175571D01*
X13094Y175641D01*
X13115Y175712D01*
X13144Y175783D01*
X13182Y175849D01*
X13219Y175920D01*
X13265Y175982D01*
X13319Y176041D01*
X13323Y176045D01*
X13331Y176053D01*
X13352Y176070D01*
X13373Y176086D01*
X13406Y176111D01*
X13444Y176136D01*
X13489Y176161D01*
X13540Y176190D01*
X13593Y176219D01*
X13660Y176244D01*
X13727Y176269D01*
X13802Y176294D01*
X13885Y176311D01*
X13972Y176328D01*
X14064Y176336D01*
X14164Y176340D01*
X14172D01*
X14188D01*
X14218Y176336D01*
D02*
G37*
G36*
X11307Y174510D02*
X10891D01*
Y174501D01*
X10895Y174497D01*
X10912Y174493D01*
X10933Y174485D01*
X10962Y174468D01*
X10999Y174451D01*
X11037Y174427D01*
X11078Y174397D01*
X11120Y174364D01*
X11162Y174327D01*
X11203Y174281D01*
X11245Y174235D01*
X11278Y174181D01*
X11307Y174119D01*
X11328Y174056D01*
X11345Y173986D01*
X11349Y173907D01*
Y173869D01*
X11345Y173844D01*
X11336Y173790D01*
X11328Y173761D01*
X11320Y173736D01*
X10679D01*
X10683Y173740D01*
X10691Y173757D01*
X10700Y173786D01*
X10717Y173819D01*
X10729Y173861D01*
X10737Y173911D01*
X10746Y173965D01*
X10750Y174027D01*
Y174048D01*
X10746Y174065D01*
X10741Y174106D01*
X10729Y174156D01*
X10708Y174214D01*
X10679Y174273D01*
X10637Y174331D01*
X10583Y174385D01*
X10575Y174389D01*
X10554Y174406D01*
X10517Y174422D01*
X10463Y174447D01*
X10400Y174468D01*
X10321Y174489D01*
X10234Y174506D01*
X10130Y174510D01*
X9057D01*
Y175205D01*
X11307D01*
Y174510D01*
D02*
G37*
G36*
X15324Y173312D02*
X13935Y172921D01*
X13930D01*
X13926Y172916D01*
X13914Y172912D01*
X13897Y172908D01*
X13851Y172900D01*
X13797Y172887D01*
X13735Y172871D01*
X13668Y172858D01*
X13602Y172850D01*
X13535Y172842D01*
Y172833D01*
X13544D01*
X13564Y172829D01*
X13598Y172825D01*
X13644Y172817D01*
X13698Y172804D01*
X13764Y172792D01*
X13839Y172771D01*
X13922Y172750D01*
X15324Y172351D01*
Y171627D01*
X13073Y172463D01*
Y173253D01*
X15324Y174052D01*
Y173312D01*
D02*
G37*
G36*
X10201Y173540D02*
X10238D01*
X10288Y173536D01*
X10342Y173528D01*
X10400Y173515D01*
X10467Y173503D01*
X10538Y173486D01*
X10608Y173466D01*
X10683Y173441D01*
X10758Y173407D01*
X10829Y173370D01*
X10899Y173328D01*
X10970Y173278D01*
X11033Y173220D01*
X11037Y173216D01*
X11045Y173204D01*
X11062Y173187D01*
X11083Y173162D01*
X11107Y173129D01*
X11137Y173091D01*
X11166Y173050D01*
X11199Y173000D01*
X11228Y172941D01*
X11257Y172883D01*
X11286Y172817D01*
X11311Y172746D01*
X11332Y172671D01*
X11349Y172592D01*
X11357Y172509D01*
X11361Y172421D01*
Y172376D01*
X11357Y172338D01*
X11353Y172297D01*
X11345Y172251D01*
X11336Y172197D01*
X11324Y172139D01*
X11311Y172080D01*
X11291Y172018D01*
X11266Y171956D01*
X11241Y171893D01*
X11203Y171831D01*
X11166Y171768D01*
X11120Y171714D01*
X11070Y171660D01*
X11066Y171656D01*
X11058Y171648D01*
X11041Y171635D01*
X11016Y171619D01*
X10987Y171598D01*
X10954Y171573D01*
X10908Y171552D01*
X10862Y171523D01*
X10808Y171498D01*
X10750Y171477D01*
X10683Y171452D01*
X10612Y171431D01*
X10538Y171415D01*
X10454Y171402D01*
X10367Y171394D01*
X10276Y171390D01*
X9984D01*
Y172858D01*
X9980D01*
X9963Y172854D01*
X9939Y172850D01*
X9909Y172842D01*
X9872Y172833D01*
X9830Y172817D01*
X9785Y172796D01*
X9739Y172767D01*
X9693Y172733D01*
X9647Y172692D01*
X9606Y172642D01*
X9568Y172580D01*
X9539Y172513D01*
X9514Y172434D01*
X9498Y172342D01*
X9493Y172238D01*
Y172201D01*
X9498Y172176D01*
Y172143D01*
X9502Y172105D01*
X9510Y172064D01*
X9514Y172018D01*
X9535Y171918D01*
X9568Y171806D01*
X9610Y171693D01*
X9668Y171585D01*
X9165D01*
Y171589D01*
X9156Y171598D01*
X9148Y171619D01*
X9140Y171643D01*
X9127Y171673D01*
X9115Y171710D01*
X9098Y171756D01*
X9086Y171802D01*
X9069Y171860D01*
X9053Y171922D01*
X9040Y171989D01*
X9027Y172060D01*
X9019Y172134D01*
X9011Y172218D01*
X9003Y172305D01*
Y172421D01*
X9007Y172451D01*
Y172488D01*
X9011Y172534D01*
X9019Y172588D01*
X9027Y172646D01*
X9040Y172708D01*
X9057Y172775D01*
X9077Y172846D01*
X9098Y172916D01*
X9127Y172987D01*
X9165Y173054D01*
X9202Y173125D01*
X9248Y173187D01*
X9302Y173245D01*
X9306Y173249D01*
X9315Y173258D01*
X9335Y173274D01*
X9356Y173291D01*
X9389Y173316D01*
X9427Y173341D01*
X9473Y173366D01*
X9523Y173395D01*
X9577Y173424D01*
X9643Y173449D01*
X9710Y173474D01*
X9785Y173499D01*
X9868Y173515D01*
X9955Y173532D01*
X10047Y173540D01*
X10147Y173545D01*
X10155D01*
X10171D01*
X10201Y173540D01*
D02*
G37*
G36*
X15324Y170633D02*
X13073D01*
Y171327D01*
X15324D01*
Y170633D01*
D02*
G37*
G36*
X16094Y171373D02*
X16131Y171365D01*
X16173Y171348D01*
X16214Y171332D01*
X16256Y171302D01*
X16297Y171265D01*
X16302Y171261D01*
X16314Y171244D01*
X16331Y171219D01*
X16348Y171186D01*
X16364Y171144D01*
X16381Y171094D01*
X16393Y171040D01*
X16397Y170978D01*
Y170949D01*
X16393Y170915D01*
X16385Y170874D01*
X16372Y170828D01*
X16356Y170778D01*
X16331Y170732D01*
X16297Y170687D01*
X16293Y170683D01*
X16281Y170670D01*
X16256Y170649D01*
X16227Y170628D01*
X16189Y170612D01*
X16148Y170591D01*
X16098Y170579D01*
X16040Y170574D01*
X16031D01*
X16015D01*
X15985Y170579D01*
X15948Y170587D01*
X15906Y170604D01*
X15865Y170620D01*
X15823Y170649D01*
X15782Y170687D01*
X15777Y170691D01*
X15765Y170707D01*
X15748Y170732D01*
X15732Y170766D01*
X15715Y170807D01*
X15698Y170857D01*
X15686Y170915D01*
X15682Y170978D01*
Y171007D01*
X15686Y171040D01*
X15694Y171078D01*
X15707Y171124D01*
X15728Y171173D01*
X15753Y171219D01*
X15786Y171265D01*
X15790Y171269D01*
X15807Y171282D01*
X15827Y171302D01*
X15857Y171319D01*
X15894Y171340D01*
X15936Y171361D01*
X15985Y171373D01*
X16040Y171377D01*
X16048D01*
X16065D01*
X16094Y171373D01*
D02*
G37*
G36*
X14729Y170192D02*
X14775Y170183D01*
X14825Y170175D01*
X14879Y170163D01*
X14933Y170142D01*
X14987Y170113D01*
X14991Y170108D01*
X15012Y170096D01*
X15037Y170079D01*
X15066Y170054D01*
X15104Y170021D01*
X15141Y169984D01*
X15179Y169942D01*
X15212Y169892D01*
X15216Y169884D01*
X15224Y169867D01*
X15241Y169838D01*
X15262Y169801D01*
X15282Y169755D01*
X15303Y169701D01*
X15320Y169643D01*
X15337Y169580D01*
Y169572D01*
X15345Y169551D01*
X15349Y169514D01*
X15357Y169468D01*
X15366Y169410D01*
X15370Y169347D01*
X15378Y169281D01*
Y169156D01*
X15374Y169114D01*
Y169069D01*
X15370Y169019D01*
X15353Y168906D01*
Y168898D01*
X15349Y168881D01*
X15345Y168848D01*
X15337Y168811D01*
X15328Y168765D01*
X15320Y168715D01*
X15291Y168603D01*
X14754D01*
X14758Y168607D01*
X14767Y168623D01*
X14779Y168652D01*
X14796Y168686D01*
X14817Y168727D01*
X14833Y168777D01*
X14850Y168827D01*
X14866Y168885D01*
Y168894D01*
X14875Y168910D01*
X14879Y168939D01*
X14887Y168977D01*
X14896Y169023D01*
X14900Y169073D01*
X14908Y169181D01*
Y169222D01*
X14904Y169264D01*
X14896Y169310D01*
Y169314D01*
X14891Y169318D01*
X14887Y169343D01*
X14875Y169376D01*
X14858Y169414D01*
X14854Y169422D01*
X14841Y169439D01*
X14825Y169464D01*
X14800Y169489D01*
X14792Y169493D01*
X14775Y169501D01*
X14750Y169509D01*
X14717Y169514D01*
X14713D01*
X14708D01*
X14679Y169509D01*
X14646Y169497D01*
X14609Y169476D01*
X14600Y169468D01*
X14584Y169447D01*
X14559Y169414D01*
X14534Y169372D01*
Y169368D01*
X14529Y169360D01*
X14525Y169347D01*
X14517Y169331D01*
X14500Y169285D01*
X14480Y169231D01*
Y169227D01*
X14476Y169218D01*
X14471Y169202D01*
X14463Y169181D01*
X14446Y169131D01*
X14425Y169073D01*
Y169064D01*
X14417Y169048D01*
X14409Y169023D01*
X14396Y168989D01*
X14380Y168952D01*
X14363Y168910D01*
X14322Y168823D01*
X14317Y168819D01*
X14313Y168802D01*
X14301Y168781D01*
X14284Y168756D01*
X14238Y168694D01*
X14184Y168632D01*
X14180Y168628D01*
X14172Y168619D01*
X14155Y168603D01*
X14134Y168586D01*
X14109Y168569D01*
X14076Y168549D01*
X14005Y168511D01*
X14001Y168507D01*
X13989Y168503D01*
X13964Y168494D01*
X13935Y168486D01*
X13901Y168478D01*
X13860Y168474D01*
X13810Y168465D01*
X13760D01*
X13756D01*
X13752D01*
X13727D01*
X13689Y168469D01*
X13644Y168478D01*
X13589Y168486D01*
X13531Y168503D01*
X13473Y168524D01*
X13419Y168553D01*
X13415Y168557D01*
X13394Y168569D01*
X13369Y168586D01*
X13336Y168615D01*
X13298Y168648D01*
X13261Y168686D01*
X13223Y168736D01*
X13186Y168786D01*
X13182Y168794D01*
X13173Y168811D01*
X13157Y168840D01*
X13136Y168881D01*
X13115Y168927D01*
X13099Y168985D01*
X13078Y169048D01*
X13061Y169114D01*
Y169123D01*
X13053Y169148D01*
X13049Y169185D01*
X13040Y169235D01*
X13032Y169293D01*
X13028Y169360D01*
X13020Y169430D01*
Y169568D01*
X13024Y169601D01*
Y169638D01*
X13028Y169684D01*
X13032Y169730D01*
X13049Y169838D01*
X13065Y169955D01*
X13094Y170075D01*
X13132Y170196D01*
X13693D01*
X13689Y170187D01*
X13677Y170167D01*
X13656Y170133D01*
X13635Y170088D01*
X13610Y170034D01*
X13585Y169975D01*
X13560Y169913D01*
X13540Y169851D01*
Y169842D01*
X13531Y169821D01*
X13523Y169788D01*
X13514Y169747D01*
X13506Y169697D01*
X13498Y169643D01*
X13494Y169588D01*
X13489Y169530D01*
Y169501D01*
X13494Y169464D01*
X13498Y169422D01*
X13502Y169376D01*
X13510Y169326D01*
X13523Y169281D01*
X13540Y169239D01*
X13544Y169235D01*
X13548Y169222D01*
X13560Y169206D01*
X13577Y169185D01*
X13598Y169164D01*
X13627Y169148D01*
X13656Y169135D01*
X13693Y169131D01*
X13698D01*
X13706D01*
X13731Y169135D01*
X13768Y169152D01*
X13785Y169164D01*
X13802Y169181D01*
X13806D01*
X13810Y169189D01*
X13831Y169214D01*
X13856Y169252D01*
X13881Y169306D01*
Y169310D01*
X13885Y169318D01*
X13893Y169335D01*
X13901Y169355D01*
X13910Y169380D01*
X13918Y169405D01*
X13939Y169472D01*
Y169476D01*
X13943Y169489D01*
X13951Y169505D01*
X13960Y169526D01*
X13976Y169580D01*
X14001Y169643D01*
X14005Y169647D01*
X14009Y169667D01*
X14022Y169693D01*
X14035Y169726D01*
X14051Y169763D01*
X14068Y169801D01*
X14109Y169884D01*
X14114Y169888D01*
X14122Y169901D01*
X14130Y169917D01*
X14147Y169942D01*
X14188Y169996D01*
X14243Y170054D01*
X14247Y170059D01*
X14255Y170067D01*
X14272Y170079D01*
X14297Y170092D01*
X14322Y170108D01*
X14351Y170125D01*
X14421Y170158D01*
X14425D01*
X14438Y170163D01*
X14463Y170171D01*
X14492Y170175D01*
X14525Y170183D01*
X14567Y170192D01*
X14613Y170196D01*
X14663D01*
X14667D01*
X14671D01*
X14696D01*
X14729Y170192D01*
D02*
G37*
G36*
X11307Y170279D02*
X10949D01*
Y170271D01*
X10954Y170267D01*
X10966Y170258D01*
X10987Y170246D01*
X11016Y170225D01*
X11045Y170200D01*
X11078Y170167D01*
X11116Y170129D01*
X11157Y170088D01*
X11195Y170038D01*
X11232Y169984D01*
X11266Y169925D01*
X11299Y169859D01*
X11324Y169788D01*
X11345Y169713D01*
X11357Y169634D01*
X11361Y169547D01*
Y169514D01*
X11357Y169476D01*
X11349Y169430D01*
X11332Y169372D01*
X11311Y169310D01*
X11282Y169243D01*
X11245Y169173D01*
X11195Y169102D01*
X11137Y169035D01*
X11062Y168973D01*
X10970Y168915D01*
X10920Y168890D01*
X10862Y168869D01*
X10804Y168848D01*
X10741Y168831D01*
X10671Y168815D01*
X10596Y168806D01*
X10517Y168798D01*
X10434D01*
X9057D01*
Y169493D01*
X10305D01*
X10309D01*
X10325D01*
X10355Y169497D01*
X10388D01*
X10425Y169505D01*
X10471Y169514D01*
X10517Y169526D01*
X10567Y169539D01*
X10617Y169559D01*
X10662Y169584D01*
X10708Y169613D01*
X10746Y169651D01*
X10779Y169693D01*
X10808Y169742D01*
X10825Y169801D01*
X10829Y169867D01*
Y169896D01*
X10820Y169930D01*
X10812Y169971D01*
X10796Y170017D01*
X10771Y170067D01*
X10737Y170117D01*
X10691Y170163D01*
X10687Y170167D01*
X10667Y170179D01*
X10637Y170200D01*
X10596Y170221D01*
X10546Y170242D01*
X10484Y170262D01*
X10417Y170275D01*
X10338Y170279D01*
X9057D01*
Y170974D01*
X11307D01*
Y170279D01*
D02*
G37*
G36*
X15324Y167371D02*
X13073D01*
Y168066D01*
X15324D01*
Y167371D01*
D02*
G37*
G36*
X16094Y168112D02*
X16131Y168103D01*
X16173Y168087D01*
X16214Y168070D01*
X16256Y168041D01*
X16297Y168003D01*
X16302Y167999D01*
X16314Y167983D01*
X16331Y167958D01*
X16348Y167924D01*
X16364Y167883D01*
X16381Y167833D01*
X16393Y167779D01*
X16397Y167717D01*
Y167687D01*
X16393Y167654D01*
X16385Y167613D01*
X16372Y167567D01*
X16356Y167517D01*
X16331Y167471D01*
X16297Y167425D01*
X16293Y167421D01*
X16281Y167409D01*
X16256Y167388D01*
X16227Y167367D01*
X16189Y167350D01*
X16148Y167330D01*
X16098Y167317D01*
X16040Y167313D01*
X16031D01*
X16015D01*
X15985Y167317D01*
X15948Y167325D01*
X15906Y167342D01*
X15865Y167359D01*
X15823Y167388D01*
X15782Y167425D01*
X15777Y167429D01*
X15765Y167446D01*
X15748Y167471D01*
X15732Y167504D01*
X15715Y167546D01*
X15698Y167596D01*
X15686Y167654D01*
X15682Y167717D01*
Y167746D01*
X15686Y167779D01*
X15694Y167816D01*
X15707Y167862D01*
X15728Y167912D01*
X15753Y167958D01*
X15786Y168003D01*
X15790Y168008D01*
X15807Y168020D01*
X15827Y168041D01*
X15857Y168058D01*
X15894Y168078D01*
X15936Y168099D01*
X15985Y168112D01*
X16040Y168116D01*
X16048D01*
X16065D01*
X16094Y168112D01*
D02*
G37*
G36*
X11307Y168087D02*
X11794D01*
X11989Y167392D01*
X11307D01*
Y166889D01*
X10796D01*
Y167392D01*
X9884D01*
X9880D01*
X9868D01*
X9851D01*
X9830Y167388D01*
X9772Y167375D01*
X9710Y167359D01*
X9643Y167325D01*
X9614Y167300D01*
X9585Y167276D01*
X9564Y167242D01*
X9548Y167205D01*
X9535Y167163D01*
X9531Y167113D01*
Y167093D01*
X9535Y167072D01*
X9539Y167043D01*
X9548Y167009D01*
X9560Y166972D01*
X9577Y166930D01*
X9597Y166889D01*
X9082D01*
X9077Y166897D01*
X9069Y166918D01*
X9057Y166955D01*
X9044Y167005D01*
X9027Y167068D01*
X9015Y167147D01*
X9007Y167242D01*
X9003Y167350D01*
Y167384D01*
X9007Y167417D01*
X9015Y167467D01*
X9027Y167521D01*
X9044Y167583D01*
X9065Y167650D01*
X9098Y167717D01*
X9140Y167787D01*
X9190Y167854D01*
X9248Y167916D01*
X9323Y167970D01*
X9410Y168020D01*
X9514Y168053D01*
X9568Y168070D01*
X9631Y168078D01*
X9693Y168083D01*
X9764Y168087D01*
X10796D01*
Y168453D01*
X11307D01*
Y168087D01*
D02*
G37*
G36*
Y164788D02*
X9939Y164368D01*
X9934D01*
X9918Y164359D01*
X9889Y164355D01*
X9851Y164343D01*
X9810Y164334D01*
X9755Y164322D01*
X9697Y164314D01*
X9635Y164305D01*
Y164297D01*
X9639D01*
X9660Y164293D01*
X9685Y164289D01*
X9722Y164280D01*
X9764Y164268D01*
X9814Y164255D01*
X9872Y164239D01*
X9934Y164222D01*
X11307Y163798D01*
Y163111D01*
X8878Y164027D01*
X8874D01*
X8869Y164031D01*
X8857Y164035D01*
X8840Y164043D01*
X8799Y164060D01*
X8741Y164089D01*
X8674Y164122D01*
X8599Y164164D01*
X8520Y164214D01*
X8441Y164272D01*
X8358Y164339D01*
X8279Y164413D01*
X8204Y164497D01*
X8137Y164584D01*
X8083Y164680D01*
X8037Y164788D01*
X8021Y164842D01*
X8008Y164900D01*
X8004Y164958D01*
X8000Y165021D01*
Y165062D01*
X8004Y165108D01*
X8008Y165166D01*
X8012Y165233D01*
X8025Y165299D01*
X8037Y165370D01*
X8058Y165437D01*
X8612D01*
X8607Y165428D01*
X8599Y165412D01*
X8587Y165383D01*
X8574Y165345D01*
X8557Y165299D01*
X8545Y165250D01*
X8537Y165191D01*
X8533Y165133D01*
Y165108D01*
X8537Y165092D01*
X8545Y165042D01*
X8566Y164988D01*
X8595Y164925D01*
X8616Y164892D01*
X8636Y164863D01*
X8666Y164834D01*
X8699Y164804D01*
X8736Y164779D01*
X8782Y164759D01*
X9061Y164642D01*
X11307Y165553D01*
Y164788D01*
D02*
G37*
G36*
X14243Y166914D02*
X14280D01*
X14326Y166909D01*
X14380Y166901D01*
X14442Y166889D01*
X14509Y166876D01*
X14575Y166859D01*
X14646Y166835D01*
X14721Y166810D01*
X14792Y166776D01*
X14862Y166739D01*
X14933Y166693D01*
X15000Y166643D01*
X15062Y166585D01*
X15066Y166581D01*
X15075Y166568D01*
X15091Y166552D01*
X15112Y166523D01*
X15137Y166489D01*
X15162Y166448D01*
X15191Y166402D01*
X15220Y166348D01*
X15249Y166285D01*
X15278Y166219D01*
X15303Y166144D01*
X15328Y166065D01*
X15349Y165978D01*
X15366Y165886D01*
X15374Y165786D01*
X15378Y165682D01*
Y165628D01*
X15374Y165591D01*
X15370Y165541D01*
X15361Y165487D01*
X15353Y165428D01*
X15341Y165362D01*
X15324Y165291D01*
X15299Y165220D01*
X15274Y165146D01*
X15245Y165075D01*
X15208Y165000D01*
X15166Y164929D01*
X15116Y164863D01*
X15062Y164800D01*
X15058Y164796D01*
X15049Y164788D01*
X15029Y164771D01*
X15004Y164750D01*
X14975Y164725D01*
X14933Y164700D01*
X14891Y164671D01*
X14841Y164638D01*
X14783Y164609D01*
X14721Y164580D01*
X14650Y164555D01*
X14580Y164530D01*
X14500Y164509D01*
X14413Y164492D01*
X14326Y164484D01*
X14230Y164480D01*
X14222D01*
X14205D01*
X14176D01*
X14139Y164484D01*
X14089Y164488D01*
X14035Y164497D01*
X13976Y164509D01*
X13910Y164522D01*
X13839Y164538D01*
X13768Y164559D01*
X13693Y164588D01*
X13619Y164621D01*
X13548Y164659D01*
X13477Y164705D01*
X13406Y164755D01*
X13344Y164813D01*
X13340Y164817D01*
X13331Y164829D01*
X13315Y164846D01*
X13294Y164871D01*
X13269Y164904D01*
X13240Y164946D01*
X13211Y164996D01*
X13182Y165050D01*
X13153Y165108D01*
X13124Y165175D01*
X13094Y165250D01*
X13069Y165329D01*
X13049Y165416D01*
X13032Y165507D01*
X13024Y165607D01*
X13020Y165711D01*
Y165736D01*
X13024Y165765D01*
Y165803D01*
X13028Y165853D01*
X13036Y165907D01*
X13044Y165965D01*
X13057Y166032D01*
X13073Y166102D01*
X13094Y166173D01*
X13119Y166248D01*
X13153Y166323D01*
X13186Y166394D01*
X13228Y166464D01*
X13277Y166535D01*
X13331Y166597D01*
X13336Y166602D01*
X13348Y166610D01*
X13365Y166627D01*
X13390Y166647D01*
X13423Y166672D01*
X13460Y166697D01*
X13506Y166726D01*
X13556Y166755D01*
X13614Y166789D01*
X13681Y166818D01*
X13752Y166843D01*
X13826Y166868D01*
X13910Y166889D01*
X13997Y166905D01*
X14089Y166914D01*
X14188Y166918D01*
X14197D01*
X14213D01*
X14243Y166914D01*
D02*
G37*
G36*
X11307Y162134D02*
X9057D01*
Y162829D01*
X11307D01*
Y162134D01*
D02*
G37*
G36*
X12077Y162874D02*
X12114Y162866D01*
X12156Y162849D01*
X12197Y162833D01*
X12239Y162803D01*
X12281Y162766D01*
X12285Y162762D01*
X12297Y162745D01*
X12314Y162720D01*
X12331Y162687D01*
X12347Y162645D01*
X12364Y162595D01*
X12376Y162541D01*
X12381Y162479D01*
Y162450D01*
X12376Y162417D01*
X12368Y162375D01*
X12355Y162329D01*
X12339Y162279D01*
X12314Y162234D01*
X12281Y162188D01*
X12276Y162184D01*
X12264Y162171D01*
X12239Y162150D01*
X12210Y162130D01*
X12173Y162113D01*
X12131Y162092D01*
X12081Y162080D01*
X12023Y162075D01*
X12014D01*
X11998D01*
X11969Y162080D01*
X11931Y162088D01*
X11890Y162105D01*
X11848Y162121D01*
X11806Y162150D01*
X11765Y162188D01*
X11761Y162192D01*
X11748Y162209D01*
X11732Y162234D01*
X11715Y162267D01*
X11698Y162309D01*
X11682Y162358D01*
X11669Y162417D01*
X11665Y162479D01*
Y162508D01*
X11669Y162541D01*
X11677Y162579D01*
X11690Y162625D01*
X11711Y162675D01*
X11736Y162720D01*
X11769Y162766D01*
X11773Y162770D01*
X11790Y162783D01*
X11811Y162803D01*
X11840Y162820D01*
X11877Y162841D01*
X11919Y162862D01*
X11969Y162874D01*
X12023Y162878D01*
X12031D01*
X12048D01*
X12077Y162874D01*
D02*
G37*
G36*
X15324Y163336D02*
X14966D01*
Y163328D01*
X14970Y163323D01*
X14983Y163315D01*
X15004Y163303D01*
X15033Y163282D01*
X15062Y163257D01*
X15095Y163224D01*
X15133Y163186D01*
X15174Y163145D01*
X15212Y163095D01*
X15249Y163041D01*
X15282Y162982D01*
X15316Y162916D01*
X15341Y162845D01*
X15361Y162770D01*
X15374Y162691D01*
X15378Y162604D01*
Y162571D01*
X15374Y162533D01*
X15366Y162487D01*
X15349Y162429D01*
X15328Y162367D01*
X15299Y162300D01*
X15262Y162229D01*
X15212Y162159D01*
X15154Y162092D01*
X15079Y162030D01*
X14987Y161971D01*
X14937Y161947D01*
X14879Y161926D01*
X14821Y161905D01*
X14758Y161888D01*
X14688Y161872D01*
X14613Y161863D01*
X14534Y161855D01*
X14450D01*
X13073D01*
Y162550D01*
X14322D01*
X14326D01*
X14342D01*
X14371Y162554D01*
X14405D01*
X14442Y162562D01*
X14488Y162571D01*
X14534Y162583D01*
X14584Y162595D01*
X14634Y162616D01*
X14679Y162641D01*
X14725Y162670D01*
X14762Y162708D01*
X14796Y162749D01*
X14825Y162799D01*
X14841Y162858D01*
X14846Y162924D01*
Y162953D01*
X14837Y162987D01*
X14829Y163028D01*
X14812Y163074D01*
X14787Y163124D01*
X14754Y163174D01*
X14708Y163219D01*
X14704Y163224D01*
X14683Y163236D01*
X14654Y163257D01*
X14613Y163278D01*
X14563Y163299D01*
X14500Y163319D01*
X14434Y163332D01*
X14355Y163336D01*
X13073D01*
Y164031D01*
X15324D01*
Y163336D01*
D02*
G37*
G36*
X12210Y159172D02*
Y158548D01*
X8537Y160083D01*
Y160699D01*
X12210Y159172D01*
D02*
G37*
G36*
X13760Y160224D02*
X13802Y160216D01*
X13851Y160204D01*
X13910Y160187D01*
X13972Y160162D01*
X14039Y160133D01*
X14105Y160091D01*
X14172Y160041D01*
X14234Y159979D01*
X14292Y159900D01*
X14346Y159812D01*
X14392Y159708D01*
X14413Y159654D01*
X14430Y159592D01*
X14442Y159525D01*
X14455Y159455D01*
X14538Y158843D01*
X14542D01*
X14555D01*
X14571Y158847D01*
X14596D01*
X14625Y158856D01*
X14654Y158864D01*
X14688Y158877D01*
X14725Y158893D01*
X14758Y158914D01*
X14792Y158939D01*
X14821Y158972D01*
X14850Y159010D01*
X14875Y159055D01*
X14891Y159109D01*
X14904Y159172D01*
X14908Y159243D01*
Y159280D01*
X14904Y159309D01*
X14900Y159347D01*
X14896Y159388D01*
X14887Y159438D01*
X14879Y159488D01*
X14866Y159546D01*
X14850Y159609D01*
X14829Y159671D01*
X14808Y159738D01*
X14779Y159804D01*
X14746Y159871D01*
X14708Y159941D01*
X14667Y160008D01*
X15191D01*
X15195Y160000D01*
X15203Y159983D01*
X15216Y159950D01*
X15237Y159904D01*
X15258Y159846D01*
X15278Y159779D01*
X15299Y159700D01*
X15320Y159613D01*
Y159609D01*
X15324Y159600D01*
Y159588D01*
X15328Y159571D01*
X15332Y159546D01*
X15337Y159521D01*
X15349Y159459D01*
X15361Y159388D01*
X15370Y159309D01*
X15374Y159230D01*
X15378Y159151D01*
Y159109D01*
X15374Y159089D01*
Y159064D01*
X15361Y159001D01*
X15349Y158926D01*
X15328Y158847D01*
X15299Y158760D01*
X15258Y158668D01*
X15208Y158581D01*
X15145Y158494D01*
X15066Y158415D01*
X15020Y158377D01*
X14975Y158340D01*
X14921Y158307D01*
X14862Y158277D01*
X14800Y158253D01*
X14733Y158232D01*
X14663Y158215D01*
X14588Y158203D01*
X14505Y158194D01*
X14417Y158190D01*
X13073D01*
Y158847D01*
X13394D01*
Y158856D01*
X13390Y158860D01*
X13377Y158864D01*
X13361Y158881D01*
X13336Y158897D01*
X13307Y158922D01*
X13277Y158951D01*
X13240Y158985D01*
X13207Y159022D01*
X13173Y159068D01*
X13140Y159118D01*
X13107Y159172D01*
X13078Y159234D01*
X13053Y159297D01*
X13036Y159367D01*
X13024Y159446D01*
X13020Y159525D01*
Y159559D01*
X13024Y159580D01*
Y159609D01*
X13028Y159638D01*
X13044Y159713D01*
X13065Y159796D01*
X13099Y159883D01*
X13144Y159966D01*
X13169Y160004D01*
X13203Y160041D01*
X13207D01*
X13211Y160050D01*
X13223Y160058D01*
X13236Y160070D01*
X13277Y160099D01*
X13336Y160133D01*
X13406Y160170D01*
X13489Y160199D01*
X13589Y160220D01*
X13644Y160224D01*
X13698Y160229D01*
X13706D01*
X13727D01*
X13760Y160224D01*
D02*
G37*
G36*
X9743Y157225D02*
X9785Y157217D01*
X9835Y157204D01*
X9893Y157187D01*
X9955Y157163D01*
X10022Y157133D01*
X10088Y157092D01*
X10155Y157042D01*
X10217Y156980D01*
X10276Y156901D01*
X10330Y156813D01*
X10375Y156709D01*
X10396Y156655D01*
X10413Y156593D01*
X10425Y156526D01*
X10438Y156455D01*
X10521Y155844D01*
X10525D01*
X10538D01*
X10554Y155848D01*
X10579D01*
X10608Y155856D01*
X10637Y155865D01*
X10671Y155877D01*
X10708Y155894D01*
X10741Y155915D01*
X10775Y155939D01*
X10804Y155973D01*
X10833Y156010D01*
X10858Y156056D01*
X10875Y156110D01*
X10887Y156173D01*
X10891Y156243D01*
Y156281D01*
X10887Y156310D01*
X10883Y156347D01*
X10879Y156389D01*
X10870Y156439D01*
X10862Y156489D01*
X10850Y156547D01*
X10833Y156609D01*
X10812Y156672D01*
X10791Y156738D01*
X10762Y156805D01*
X10729Y156871D01*
X10691Y156942D01*
X10650Y157009D01*
X11174D01*
X11178Y157000D01*
X11187Y156984D01*
X11199Y156950D01*
X11220Y156905D01*
X11241Y156846D01*
X11261Y156780D01*
X11282Y156701D01*
X11303Y156613D01*
Y156609D01*
X11307Y156601D01*
Y156588D01*
X11311Y156572D01*
X11315Y156547D01*
X11320Y156522D01*
X11332Y156459D01*
X11345Y156389D01*
X11353Y156310D01*
X11357Y156231D01*
X11361Y156152D01*
Y156110D01*
X11357Y156089D01*
Y156064D01*
X11345Y156002D01*
X11332Y155927D01*
X11311Y155848D01*
X11282Y155761D01*
X11241Y155669D01*
X11191Y155582D01*
X11128Y155494D01*
X11049Y155415D01*
X11004Y155378D01*
X10958Y155341D01*
X10904Y155307D01*
X10845Y155278D01*
X10783Y155253D01*
X10717Y155232D01*
X10646Y155216D01*
X10571Y155203D01*
X10488Y155195D01*
X10400Y155191D01*
X9057D01*
Y155848D01*
X9377D01*
Y155856D01*
X9373Y155860D01*
X9360Y155865D01*
X9344Y155881D01*
X9319Y155898D01*
X9290Y155923D01*
X9261Y155952D01*
X9223Y155985D01*
X9190Y156023D01*
X9156Y156069D01*
X9123Y156118D01*
X9090Y156173D01*
X9061Y156235D01*
X9036Y156297D01*
X9019Y156368D01*
X9007Y156447D01*
X9003Y156526D01*
Y156559D01*
X9007Y156580D01*
Y156609D01*
X9011Y156638D01*
X9027Y156713D01*
X9048Y156797D01*
X9082Y156884D01*
X9127Y156967D01*
X9152Y157004D01*
X9186Y157042D01*
X9190D01*
X9194Y157050D01*
X9206Y157059D01*
X9219Y157071D01*
X9261Y157100D01*
X9319Y157133D01*
X9389Y157171D01*
X9473Y157200D01*
X9572Y157221D01*
X9627Y157225D01*
X9681Y157229D01*
X9689D01*
X9710D01*
X9743Y157225D01*
D02*
G37*
G36*
X11307Y153980D02*
X10009D01*
X10005D01*
X9989D01*
X9963Y153976D01*
X9934D01*
X9897Y153968D01*
X9860Y153959D01*
X9814Y153947D01*
X9772Y153934D01*
X9726Y153914D01*
X9681Y153889D01*
X9643Y153855D01*
X9606Y153822D01*
X9577Y153776D01*
X9552Y153726D01*
X9535Y153668D01*
X9531Y153602D01*
Y153593D01*
X9535Y153572D01*
X9539Y153535D01*
X9548Y153493D01*
X9564Y153448D01*
X9585Y153398D01*
X9618Y153348D01*
X9660Y153302D01*
X9668Y153298D01*
X9685Y153285D01*
X9714Y153265D01*
X9755Y153244D01*
X9805Y153227D01*
X9868Y153206D01*
X9939Y153194D01*
X10018Y153190D01*
X11307D01*
Y152499D01*
X9057D01*
Y153190D01*
X9398D01*
Y153202D01*
X9394Y153206D01*
X9381Y153215D01*
X9360Y153227D01*
X9335Y153248D01*
X9306Y153273D01*
X9273Y153306D01*
X9235Y153344D01*
X9202Y153385D01*
X9165Y153431D01*
X9127Y153481D01*
X9094Y153539D01*
X9065Y153602D01*
X9040Y153664D01*
X9019Y153735D01*
X9007Y153810D01*
X9003Y153889D01*
Y153922D01*
X9011Y153959D01*
X9019Y154009D01*
X9032Y154072D01*
X9053Y154138D01*
X9082Y154209D01*
X9119Y154280D01*
X9169Y154355D01*
X9231Y154425D01*
X9310Y154492D01*
X9402Y154550D01*
X9452Y154579D01*
X9510Y154604D01*
X9568Y154625D01*
X9635Y154642D01*
X9706Y154654D01*
X9781Y154667D01*
X9860Y154671D01*
X9947Y154675D01*
X11307D01*
Y153980D01*
D02*
G37*
G36*
X10213Y152042D02*
X10259Y152037D01*
X10317Y152029D01*
X10379Y152021D01*
X10446Y152013D01*
X10588Y151979D01*
X10667Y151954D01*
X10741Y151929D01*
X10816Y151896D01*
X10887Y151859D01*
X10958Y151817D01*
X11024Y151767D01*
X11028Y151763D01*
X11041Y151755D01*
X11058Y151738D01*
X11078Y151717D01*
X11103Y151688D01*
X11133Y151655D01*
X11162Y151613D01*
X11195Y151567D01*
X11224Y151517D01*
X11253Y151463D01*
X11282Y151401D01*
X11307Y151334D01*
X11332Y151264D01*
X11349Y151189D01*
X11357Y151110D01*
X11361Y151027D01*
Y150989D01*
X11357Y150960D01*
X11353Y150923D01*
X11345Y150885D01*
X11336Y150844D01*
X11324Y150794D01*
X11307Y150744D01*
X11282Y150694D01*
X11257Y150644D01*
X11228Y150590D01*
X11191Y150540D01*
X11149Y150494D01*
X11099Y150448D01*
X11045Y150407D01*
Y150398D01*
X11307D01*
Y149704D01*
X9310D01*
X9302D01*
X9281D01*
X9252Y149708D01*
X9206D01*
X9156Y149716D01*
X9098Y149724D01*
X9027Y149733D01*
X8957Y149749D01*
X8882Y149770D01*
X8803Y149791D01*
X8724Y149824D01*
X8641Y149858D01*
X8562Y149899D01*
X8487Y149949D01*
X8412Y150003D01*
X8345Y150070D01*
X8341Y150074D01*
X8329Y150086D01*
X8312Y150107D01*
X8291Y150136D01*
X8266Y150174D01*
X8237Y150220D01*
X8204Y150274D01*
X8175Y150336D01*
X8141Y150407D01*
X8108Y150486D01*
X8079Y150569D01*
X8054Y150665D01*
X8033Y150765D01*
X8017Y150877D01*
X8004Y150993D01*
X8000Y151118D01*
Y151164D01*
X8004Y151193D01*
Y151230D01*
X8008Y151276D01*
X8012Y151326D01*
X8017Y151380D01*
X8033Y151497D01*
X8054Y151617D01*
X8087Y151734D01*
X8108Y151788D01*
X8129Y151842D01*
X8715D01*
X8711Y151838D01*
X8707Y151825D01*
X8699Y151809D01*
X8682Y151784D01*
X8670Y151750D01*
X8653Y151713D01*
X8632Y151671D01*
X8616Y151621D01*
X8578Y151517D01*
X8545Y151397D01*
X8520Y151272D01*
X8516Y151205D01*
X8512Y151139D01*
Y151106D01*
X8516Y151081D01*
Y151051D01*
X8520Y151018D01*
X8537Y150939D01*
X8557Y150852D01*
X8591Y150760D01*
X8636Y150673D01*
X8666Y150631D01*
X8699Y150594D01*
X8703Y150590D01*
X8707Y150586D01*
X8720Y150577D01*
X8732Y150565D01*
X8774Y150531D01*
X8832Y150494D01*
X8903Y150461D01*
X8990Y150427D01*
X9086Y150407D01*
X9140Y150398D01*
X9198D01*
X9377D01*
Y150407D01*
X9373Y150411D01*
X9360Y150419D01*
X9344Y150432D01*
X9319Y150452D01*
X9290Y150477D01*
X9261Y150507D01*
X9223Y150544D01*
X9190Y150586D01*
X9156Y150631D01*
X9123Y150685D01*
X9090Y150744D01*
X9061Y150806D01*
X9036Y150873D01*
X9019Y150947D01*
X9007Y151027D01*
X9003Y151110D01*
Y151131D01*
X9007Y151151D01*
Y151181D01*
X9011Y151218D01*
X9019Y151260D01*
X9027Y151305D01*
X9040Y151359D01*
X9057Y151413D01*
X9077Y151468D01*
X9098Y151526D01*
X9127Y151580D01*
X9165Y151638D01*
X9202Y151692D01*
X9248Y151746D01*
X9302Y151796D01*
X9306Y151800D01*
X9315Y151809D01*
X9335Y151821D01*
X9356Y151834D01*
X9389Y151854D01*
X9427Y151875D01*
X9469Y151896D01*
X9518Y151921D01*
X9572Y151946D01*
X9635Y151967D01*
X9701Y151988D01*
X9776Y152008D01*
X9851Y152021D01*
X9934Y152033D01*
X10026Y152042D01*
X10117Y152046D01*
X10126D01*
X10142D01*
X10171D01*
X10213Y152042D01*
D02*
G37*
G36*
X11307Y148464D02*
X10009D01*
X10005D01*
X9989D01*
X9963Y148460D01*
X9934D01*
X9897Y148451D01*
X9860Y148443D01*
X9814Y148431D01*
X9772Y148418D01*
X9726Y148397D01*
X9681Y148372D01*
X9643Y148339D01*
X9606Y148306D01*
X9577Y148260D01*
X9552Y148210D01*
X9535Y148152D01*
X9531Y148085D01*
Y148077D01*
X9535Y148056D01*
X9539Y148019D01*
X9548Y147977D01*
X9564Y147932D01*
X9585Y147882D01*
X9618Y147832D01*
X9660Y147786D01*
X9668Y147782D01*
X9685Y147769D01*
X9714Y147748D01*
X9755Y147728D01*
X9805Y147711D01*
X9868Y147690D01*
X9939Y147678D01*
X10018Y147674D01*
X11307D01*
Y146983D01*
X9057D01*
Y147674D01*
X9398D01*
Y147686D01*
X9394Y147690D01*
X9381Y147699D01*
X9360Y147711D01*
X9335Y147732D01*
X9306Y147757D01*
X9273Y147790D01*
X9235Y147827D01*
X9202Y147869D01*
X9165Y147915D01*
X9127Y147965D01*
X9094Y148023D01*
X9065Y148085D01*
X9040Y148148D01*
X9019Y148219D01*
X9007Y148293D01*
X9003Y148372D01*
Y148406D01*
X9011Y148443D01*
X9019Y148493D01*
X9032Y148556D01*
X9053Y148622D01*
X9082Y148693D01*
X9119Y148764D01*
X9169Y148838D01*
X9231Y148909D01*
X9310Y148976D01*
X9402Y149034D01*
X9452Y149063D01*
X9510Y149088D01*
X9568Y149109D01*
X9635Y149125D01*
X9706Y149138D01*
X9781Y149150D01*
X9860Y149155D01*
X9947Y149159D01*
X11307D01*
Y148464D01*
D02*
G37*
G36*
X10712Y146542D02*
X10758Y146534D01*
X10808Y146525D01*
X10862Y146513D01*
X10916Y146492D01*
X10970Y146463D01*
X10974Y146459D01*
X10995Y146446D01*
X11020Y146430D01*
X11049Y146405D01*
X11087Y146371D01*
X11124Y146334D01*
X11162Y146292D01*
X11195Y146243D01*
X11199Y146234D01*
X11207Y146218D01*
X11224Y146188D01*
X11245Y146151D01*
X11266Y146105D01*
X11286Y146051D01*
X11303Y145993D01*
X11320Y145931D01*
Y145922D01*
X11328Y145901D01*
X11332Y145864D01*
X11340Y145818D01*
X11349Y145760D01*
X11353Y145698D01*
X11361Y145631D01*
Y145506D01*
X11357Y145465D01*
Y145419D01*
X11353Y145369D01*
X11336Y145257D01*
Y145248D01*
X11332Y145232D01*
X11328Y145198D01*
X11320Y145161D01*
X11311Y145115D01*
X11303Y145065D01*
X11274Y144953D01*
X10737D01*
X10741Y144957D01*
X10750Y144974D01*
X10762Y145003D01*
X10779Y145036D01*
X10800Y145078D01*
X10816Y145128D01*
X10833Y145178D01*
X10850Y145236D01*
Y145244D01*
X10858Y145261D01*
X10862Y145290D01*
X10870Y145327D01*
X10879Y145373D01*
X10883Y145423D01*
X10891Y145531D01*
Y145573D01*
X10887Y145614D01*
X10879Y145660D01*
Y145664D01*
X10875Y145668D01*
X10870Y145693D01*
X10858Y145727D01*
X10841Y145764D01*
X10837Y145773D01*
X10825Y145789D01*
X10808Y145814D01*
X10783Y145839D01*
X10775Y145843D01*
X10758Y145852D01*
X10733Y145860D01*
X10700Y145864D01*
X10696D01*
X10691D01*
X10662Y145860D01*
X10629Y145847D01*
X10592Y145827D01*
X10583Y145818D01*
X10567Y145797D01*
X10542Y145764D01*
X10517Y145723D01*
Y145718D01*
X10513Y145710D01*
X10509Y145698D01*
X10500Y145681D01*
X10484Y145635D01*
X10463Y145581D01*
Y145577D01*
X10459Y145569D01*
X10454Y145552D01*
X10446Y145531D01*
X10429Y145481D01*
X10409Y145423D01*
Y145415D01*
X10400Y145398D01*
X10392Y145373D01*
X10379Y145340D01*
X10363Y145302D01*
X10346Y145261D01*
X10305Y145173D01*
X10300Y145169D01*
X10296Y145153D01*
X10284Y145132D01*
X10267Y145107D01*
X10221Y145045D01*
X10167Y144982D01*
X10163Y144978D01*
X10155Y144970D01*
X10138Y144953D01*
X10117Y144936D01*
X10092Y144920D01*
X10059Y144899D01*
X9989Y144861D01*
X9984Y144857D01*
X9972Y144853D01*
X9947Y144845D01*
X9918Y144836D01*
X9884Y144828D01*
X9843Y144824D01*
X9793Y144816D01*
X9743D01*
X9739D01*
X9735D01*
X9710D01*
X9672Y144820D01*
X9627Y144828D01*
X9572Y144836D01*
X9514Y144853D01*
X9456Y144874D01*
X9402Y144903D01*
X9398Y144907D01*
X9377Y144920D01*
X9352Y144936D01*
X9319Y144965D01*
X9281Y144999D01*
X9244Y145036D01*
X9206Y145086D01*
X9169Y145136D01*
X9165Y145144D01*
X9156Y145161D01*
X9140Y145190D01*
X9119Y145232D01*
X9098Y145277D01*
X9082Y145336D01*
X9061Y145398D01*
X9044Y145465D01*
Y145473D01*
X9036Y145498D01*
X9032Y145535D01*
X9023Y145585D01*
X9015Y145643D01*
X9011Y145710D01*
X9003Y145781D01*
Y145918D01*
X9007Y145951D01*
Y145989D01*
X9011Y146035D01*
X9015Y146080D01*
X9032Y146188D01*
X9048Y146305D01*
X9077Y146426D01*
X9115Y146546D01*
X9676D01*
X9672Y146538D01*
X9660Y146517D01*
X9639Y146484D01*
X9618Y146438D01*
X9593Y146384D01*
X9568Y146326D01*
X9543Y146263D01*
X9523Y146201D01*
Y146193D01*
X9514Y146172D01*
X9506Y146139D01*
X9498Y146097D01*
X9489Y146047D01*
X9481Y145993D01*
X9477Y145939D01*
X9473Y145881D01*
Y145852D01*
X9477Y145814D01*
X9481Y145773D01*
X9485Y145727D01*
X9493Y145677D01*
X9506Y145631D01*
X9523Y145589D01*
X9527Y145585D01*
X9531Y145573D01*
X9543Y145556D01*
X9560Y145535D01*
X9581Y145515D01*
X9610Y145498D01*
X9639Y145485D01*
X9676Y145481D01*
X9681D01*
X9689D01*
X9714Y145485D01*
X9751Y145502D01*
X9768Y145515D01*
X9785Y145531D01*
X9789D01*
X9793Y145539D01*
X9814Y145564D01*
X9839Y145602D01*
X9864Y145656D01*
Y145660D01*
X9868Y145668D01*
X9876Y145685D01*
X9884Y145706D01*
X9893Y145731D01*
X9901Y145756D01*
X9922Y145822D01*
Y145827D01*
X9926Y145839D01*
X9934Y145856D01*
X9943Y145877D01*
X9959Y145931D01*
X9984Y145993D01*
X9989Y145997D01*
X9993Y146018D01*
X10005Y146043D01*
X10018Y146076D01*
X10034Y146114D01*
X10051Y146151D01*
X10092Y146234D01*
X10097Y146238D01*
X10105Y146251D01*
X10113Y146267D01*
X10130Y146292D01*
X10171Y146347D01*
X10226Y146405D01*
X10230Y146409D01*
X10238Y146417D01*
X10255Y146430D01*
X10280Y146442D01*
X10305Y146459D01*
X10334Y146476D01*
X10405Y146509D01*
X10409D01*
X10421Y146513D01*
X10446Y146521D01*
X10475Y146525D01*
X10509Y146534D01*
X10550Y146542D01*
X10596Y146546D01*
X10646D01*
X10650D01*
X10654D01*
X10679D01*
X10712Y146542D01*
D02*
G37*
G36*
X11307Y144254D02*
X11794D01*
X11989Y143559D01*
X11307D01*
Y143056D01*
X10796D01*
Y143559D01*
X9884D01*
X9880D01*
X9868D01*
X9851D01*
X9830Y143555D01*
X9772Y143543D01*
X9710Y143526D01*
X9643Y143493D01*
X9614Y143468D01*
X9585Y143443D01*
X9564Y143410D01*
X9548Y143372D01*
X9535Y143331D01*
X9531Y143281D01*
Y143260D01*
X9535Y143239D01*
X9539Y143210D01*
X9548Y143177D01*
X9560Y143139D01*
X9577Y143098D01*
X9597Y143056D01*
X9082D01*
X9077Y143064D01*
X9069Y143085D01*
X9057Y143123D01*
X9044Y143173D01*
X9027Y143235D01*
X9015Y143314D01*
X9007Y143410D01*
X9003Y143518D01*
Y143551D01*
X9007Y143584D01*
X9015Y143634D01*
X9027Y143688D01*
X9044Y143751D01*
X9065Y143817D01*
X9098Y143884D01*
X9140Y143955D01*
X9190Y144021D01*
X9248Y144083D01*
X9323Y144138D01*
X9410Y144187D01*
X9514Y144221D01*
X9568Y144237D01*
X9631Y144246D01*
X9693Y144250D01*
X9764Y144254D01*
X10796D01*
Y144620D01*
X11307D01*
Y144254D01*
D02*
G37*
G36*
X9381Y141529D02*
X9439Y141521D01*
X9506Y141513D01*
X9577Y141500D01*
X9651Y141479D01*
X9726Y141450D01*
X9731D01*
X9735Y141446D01*
X9760Y141434D01*
X9797Y141417D01*
X9843Y141392D01*
X9897Y141363D01*
X9951Y141330D01*
X10013Y141288D01*
X10072Y141246D01*
X10080Y141242D01*
X10097Y141226D01*
X10126Y141201D01*
X10163Y141167D01*
X10205Y141126D01*
X10251Y141080D01*
X10296Y141030D01*
X10342Y140976D01*
X10346Y140968D01*
X10363Y140951D01*
X10384Y140922D01*
X10413Y140884D01*
X10446Y140843D01*
X10479Y140797D01*
X10554Y140697D01*
X10558Y140693D01*
X10571Y140672D01*
X10592Y140647D01*
X10617Y140614D01*
X10646Y140577D01*
X10675Y140539D01*
X10741Y140456D01*
X10746Y140452D01*
X10758Y140439D01*
X10775Y140419D01*
X10800Y140394D01*
X10854Y140340D01*
X10920Y140281D01*
X10925Y140277D01*
X10937Y140269D01*
X10954Y140256D01*
X10979Y140240D01*
X11004Y140223D01*
X11037Y140202D01*
X11103Y140173D01*
X11107D01*
X11120Y140169D01*
X11137Y140161D01*
X11162Y140152D01*
X11191Y140148D01*
X11224Y140140D01*
X11299Y140136D01*
X11303D01*
X11307D01*
X11332D01*
X11370Y140140D01*
X11415Y140148D01*
X11461Y140165D01*
X11515Y140186D01*
X11561Y140215D01*
X11603Y140252D01*
X11607Y140256D01*
X11619Y140273D01*
X11636Y140302D01*
X11657Y140340D01*
X11673Y140385D01*
X11690Y140448D01*
X11702Y140518D01*
X11707Y140602D01*
Y140643D01*
X11702Y140672D01*
X11698Y140706D01*
X11690Y140751D01*
X11682Y140797D01*
X11665Y140851D01*
X11648Y140909D01*
X11627Y140972D01*
X11603Y141034D01*
X11573Y141101D01*
X11536Y141172D01*
X11490Y141238D01*
X11445Y141309D01*
X11386Y141379D01*
X11998D01*
X12002Y141375D01*
X12010Y141359D01*
X12023Y141338D01*
X12039Y141309D01*
X12060Y141267D01*
X12081Y141221D01*
X12106Y141167D01*
X12131Y141109D01*
X12156Y141043D01*
X12181Y140972D01*
X12202Y140897D01*
X12222Y140814D01*
X12239Y140731D01*
X12252Y140639D01*
X12260Y140548D01*
X12264Y140452D01*
Y140410D01*
X12260Y140365D01*
X12256Y140306D01*
X12247Y140240D01*
X12235Y140169D01*
X12218Y140094D01*
X12197Y140023D01*
Y140019D01*
X12193Y140015D01*
X12185Y139990D01*
X12173Y139957D01*
X12152Y139911D01*
X12127Y139861D01*
X12098Y139807D01*
X12060Y139753D01*
X12019Y139699D01*
X12014Y139695D01*
X11998Y139678D01*
X11973Y139653D01*
X11940Y139624D01*
X11898Y139591D01*
X11852Y139557D01*
X11794Y139528D01*
X11736Y139499D01*
X11727Y139495D01*
X11707Y139487D01*
X11673Y139478D01*
X11627Y139462D01*
X11573Y139449D01*
X11511Y139441D01*
X11440Y139433D01*
X11365Y139428D01*
X11361D01*
X11357D01*
X11345D01*
X11328D01*
X11286Y139433D01*
X11236Y139437D01*
X11174Y139445D01*
X11112Y139458D01*
X11045Y139474D01*
X10979Y139495D01*
X10970Y139499D01*
X10949Y139507D01*
X10916Y139520D01*
X10875Y139541D01*
X10829Y139566D01*
X10779Y139599D01*
X10725Y139632D01*
X10671Y139674D01*
X10667Y139678D01*
X10646Y139695D01*
X10621Y139716D01*
X10588Y139749D01*
X10550Y139786D01*
X10504Y139832D01*
X10463Y139878D01*
X10417Y139932D01*
X10413Y139940D01*
X10396Y139957D01*
X10375Y139986D01*
X10346Y140023D01*
X10313Y140069D01*
X10271Y140119D01*
X10192Y140231D01*
X10188Y140235D01*
X10180Y140248D01*
X10163Y140269D01*
X10147Y140294D01*
X10122Y140327D01*
X10097Y140360D01*
X10043Y140435D01*
X10038Y140439D01*
X10030Y140452D01*
X10018Y140473D01*
X9997Y140493D01*
X9955Y140552D01*
X9901Y140610D01*
X9897Y140614D01*
X9889Y140622D01*
X9876Y140635D01*
X9855Y140652D01*
X9814Y140689D01*
X9760Y140726D01*
X9755D01*
X9747Y140735D01*
X9735Y140739D01*
X9718Y140747D01*
X9676Y140764D01*
X9656Y140768D01*
X9631Y140772D01*
Y139433D01*
X9057D01*
Y141533D01*
X9294D01*
X9298D01*
X9306D01*
X9319D01*
X9335D01*
X9381Y141529D01*
D02*
G37*
G36*
X10662Y138967D02*
X10717D01*
X10787Y138963D01*
X10866Y138954D01*
X10954Y138946D01*
X11045Y138933D01*
X11145Y138917D01*
X11249Y138896D01*
X11353Y138871D01*
X11457Y138842D01*
X11557Y138809D01*
X11657Y138767D01*
X11748Y138721D01*
X11831Y138667D01*
X11835Y138663D01*
X11852Y138655D01*
X11873Y138634D01*
X11898Y138609D01*
X11931Y138580D01*
X11969Y138538D01*
X12006Y138497D01*
X12048Y138443D01*
X12089Y138384D01*
X12127Y138318D01*
X12164Y138243D01*
X12197Y138164D01*
X12222Y138081D01*
X12247Y137985D01*
X12260Y137885D01*
X12264Y137781D01*
Y137752D01*
X12260Y137735D01*
Y137710D01*
X12252Y137681D01*
X12239Y137611D01*
X12214Y137527D01*
X12181Y137432D01*
X12131Y137336D01*
X12098Y137282D01*
X12064Y137232D01*
X12023Y137182D01*
X11977Y137128D01*
X11927Y137078D01*
X11873Y137028D01*
X11811Y136982D01*
X11740Y136937D01*
X11665Y136895D01*
X11586Y136853D01*
X11494Y136816D01*
X11399Y136783D01*
X11299Y136754D01*
X11187Y136729D01*
X11066Y136708D01*
X10937Y136695D01*
X10800Y136687D01*
X10654Y136683D01*
X10650D01*
X10646D01*
X10633D01*
X10621D01*
X10579D01*
X10521Y136687D01*
X10454Y136691D01*
X10379Y136699D01*
X10292Y136708D01*
X10201Y136720D01*
X10101Y136737D01*
X10001Y136758D01*
X9901Y136779D01*
X9797Y136808D01*
X9697Y136845D01*
X9602Y136883D01*
X9510Y136928D01*
X9427Y136982D01*
X9423Y136987D01*
X9410Y136995D01*
X9389Y137016D01*
X9360Y137037D01*
X9327Y137070D01*
X9294Y137107D01*
X9256Y137153D01*
X9215Y137203D01*
X9177Y137261D01*
X9136Y137323D01*
X9102Y137394D01*
X9069Y137473D01*
X9040Y137557D01*
X9019Y137644D01*
X9007Y137740D01*
X9003Y137844D01*
Y137873D01*
X9007Y137893D01*
Y137918D01*
X9015Y137947D01*
X9027Y138018D01*
X9053Y138106D01*
X9086Y138201D01*
X9136Y138301D01*
X9165Y138355D01*
X9202Y138405D01*
X9240Y138459D01*
X9285Y138513D01*
X9335Y138563D01*
X9389Y138613D01*
X9448Y138663D01*
X9518Y138709D01*
X9589Y138755D01*
X9668Y138796D01*
X9755Y138834D01*
X9851Y138867D01*
X9951Y138896D01*
X10063Y138921D01*
X10180Y138942D01*
X10305Y138958D01*
X10442Y138967D01*
X10583Y138971D01*
X10588D01*
X10592D01*
X10604D01*
X10621D01*
X10662Y138967D01*
D02*
G37*
G36*
X11806Y136059D02*
X11811Y136051D01*
X11815Y136038D01*
X11819Y136017D01*
X11827Y135992D01*
X11840Y135963D01*
X11861Y135897D01*
X11890Y135822D01*
X11923Y135734D01*
X11964Y135647D01*
X12006Y135556D01*
Y135551D01*
X12010Y135543D01*
X12019Y135531D01*
X12027Y135514D01*
X12052Y135468D01*
X12089Y135410D01*
X12127Y135343D01*
X12177Y135273D01*
X12227Y135198D01*
X12281Y135123D01*
Y134703D01*
X9057D01*
Y135393D01*
X11494D01*
X11490Y135397D01*
X11486Y135402D01*
X11478Y135414D01*
X11465Y135431D01*
X11432Y135477D01*
X11399Y135531D01*
Y135535D01*
X11390Y135543D01*
X11382Y135560D01*
X11374Y135581D01*
X11361Y135605D01*
X11349Y135630D01*
X11320Y135697D01*
Y135701D01*
X11315Y135714D01*
X11307Y135730D01*
X11299Y135751D01*
X11286Y135780D01*
X11278Y135809D01*
X11257Y135880D01*
Y135884D01*
X11253Y135897D01*
X11249Y135913D01*
X11245Y135938D01*
X11236Y135963D01*
X11232Y135996D01*
X11220Y136063D01*
X11806D01*
Y136059D01*
D02*
G37*
G36*
X9951Y133758D02*
X9984D01*
X10022Y133754D01*
X10063Y133746D01*
X10155Y133725D01*
X10159D01*
X10176Y133717D01*
X10201Y133709D01*
X10230Y133696D01*
X10267Y133679D01*
X10305Y133663D01*
X10384Y133613D01*
X10388Y133609D01*
X10400Y133600D01*
X10421Y133580D01*
X10446Y133559D01*
X10475Y133530D01*
X10509Y133496D01*
X10538Y133459D01*
X10571Y133417D01*
X10575Y133413D01*
X10583Y133396D01*
X10600Y133371D01*
X10621Y133338D01*
X10642Y133301D01*
X10662Y133255D01*
X10687Y133201D01*
X10708Y133147D01*
Y133151D01*
X10712Y133155D01*
X10721Y133168D01*
X10729Y133184D01*
X10754Y133230D01*
X10791Y133280D01*
X10833Y133342D01*
X10887Y133405D01*
X10945Y133463D01*
X11012Y133517D01*
X11016D01*
X11020Y133521D01*
X11045Y133538D01*
X11083Y133559D01*
X11133Y133584D01*
X11195Y133609D01*
X11266Y133629D01*
X11340Y133646D01*
X11424Y133650D01*
X11428D01*
X11432D01*
X11453D01*
X11490Y133646D01*
X11532Y133642D01*
X11582Y133634D01*
X11640Y133617D01*
X11698Y133600D01*
X11756Y133575D01*
X11765Y133571D01*
X11781Y133559D01*
X11811Y133542D01*
X11848Y133517D01*
X11890Y133488D01*
X11935Y133451D01*
X11981Y133409D01*
X12023Y133363D01*
X12027Y133359D01*
X12039Y133338D01*
X12060Y133309D01*
X12085Y133272D01*
X12114Y133226D01*
X12143Y133172D01*
X12173Y133109D01*
X12197Y133043D01*
Y133039D01*
X12202Y133035D01*
X12210Y133010D01*
X12218Y132972D01*
X12231Y132922D01*
X12243Y132860D01*
X12256Y132793D01*
X12260Y132714D01*
X12264Y132635D01*
Y132598D01*
X12260Y132556D01*
X12256Y132498D01*
X12247Y132436D01*
X12235Y132369D01*
X12218Y132298D01*
X12197Y132228D01*
Y132223D01*
X12193Y132219D01*
X12185Y132194D01*
X12173Y132161D01*
X12152Y132115D01*
X12127Y132065D01*
X12098Y132011D01*
X12064Y131957D01*
X12023Y131907D01*
X12019Y131903D01*
X12002Y131886D01*
X11981Y131861D01*
X11948Y131828D01*
X11910Y131795D01*
X11865Y131762D01*
X11815Y131724D01*
X11761Y131695D01*
X11752Y131691D01*
X11736Y131683D01*
X11702Y131670D01*
X11665Y131658D01*
X11615Y131645D01*
X11561Y131633D01*
X11499Y131624D01*
X11432Y131620D01*
X11428D01*
X11424D01*
X11411D01*
X11395D01*
X11353Y131629D01*
X11299Y131637D01*
X11232Y131653D01*
X11166Y131678D01*
X11095Y131716D01*
X11024Y131762D01*
X11016Y131770D01*
X10995Y131787D01*
X10962Y131820D01*
X10916Y131861D01*
X10870Y131915D01*
X10820Y131982D01*
X10766Y132061D01*
X10721Y132149D01*
X10717Y132140D01*
X10712Y132123D01*
X10700Y132094D01*
X10687Y132057D01*
X10667Y132015D01*
X10642Y131970D01*
X10588Y131878D01*
X10583Y131874D01*
X10575Y131857D01*
X10554Y131836D01*
X10533Y131811D01*
X10504Y131778D01*
X10471Y131745D01*
X10396Y131683D01*
X10392Y131678D01*
X10379Y131670D01*
X10359Y131653D01*
X10330Y131637D01*
X10296Y131620D01*
X10255Y131599D01*
X10167Y131566D01*
X10163D01*
X10147Y131558D01*
X10122Y131554D01*
X10088Y131545D01*
X10051Y131537D01*
X10005Y131533D01*
X9909Y131525D01*
X9905D01*
X9901D01*
X9876D01*
X9839Y131529D01*
X9789Y131533D01*
X9731Y131545D01*
X9672Y131558D01*
X9606Y131579D01*
X9543Y131608D01*
X9535Y131612D01*
X9514Y131620D01*
X9485Y131641D01*
X9443Y131666D01*
X9402Y131699D01*
X9352Y131737D01*
X9302Y131782D01*
X9256Y131836D01*
X9252Y131845D01*
X9235Y131861D01*
X9215Y131895D01*
X9190Y131936D01*
X9156Y131986D01*
X9127Y132049D01*
X9098Y132115D01*
X9069Y132190D01*
Y132194D01*
X9065Y132198D01*
Y132211D01*
X9061Y132228D01*
X9048Y132269D01*
X9040Y132323D01*
X9027Y132390D01*
X9015Y132469D01*
X9011Y132552D01*
X9007Y132643D01*
Y132685D01*
X9011Y132731D01*
X9015Y132793D01*
X9023Y132864D01*
X9032Y132939D01*
X9048Y133018D01*
X9069Y133097D01*
Y133101D01*
X9073Y133105D01*
X9082Y133130D01*
X9098Y133168D01*
X9119Y133218D01*
X9144Y133272D01*
X9173Y133330D01*
X9211Y133392D01*
X9252Y133451D01*
X9256Y133459D01*
X9273Y133475D01*
X9298Y133501D01*
X9335Y133534D01*
X9377Y133571D01*
X9423Y133609D01*
X9481Y133646D01*
X9539Y133679D01*
X9548Y133684D01*
X9568Y133692D01*
X9602Y133704D01*
X9647Y133721D01*
X9701Y133738D01*
X9764Y133750D01*
X9830Y133758D01*
X9905Y133763D01*
X9909D01*
X9926D01*
X9951Y133758D01*
D02*
G37*
G36*
X21983Y181351D02*
X5000D01*
Y232010D01*
X21983D01*
Y181351D01*
D02*
G37*
%LPC*%
G36*
X10267Y177318D02*
X10034D01*
X10030D01*
X10026D01*
X10013D01*
X9997Y177314D01*
X9959Y177309D01*
X9909Y177301D01*
X9851Y177289D01*
X9789Y177264D01*
X9731Y177235D01*
X9672Y177193D01*
X9668Y177189D01*
X9651Y177168D01*
X9627Y177143D01*
X9602Y177106D01*
X9577Y177056D01*
X9552Y177002D01*
X9535Y176939D01*
X9531Y176868D01*
Y176848D01*
X9535Y176831D01*
X9539Y176785D01*
X9556Y176735D01*
X9577Y176673D01*
X9610Y176615D01*
X9656Y176557D01*
X9681Y176527D01*
X9714Y176502D01*
X9718D01*
X9722Y176498D01*
X9735Y176490D01*
X9747Y176482D01*
X9789Y176461D01*
X9851Y176436D01*
X9922Y176411D01*
X10013Y176390D01*
X10117Y176373D01*
X10234Y176369D01*
X10238D01*
X10246D01*
X10263D01*
X10280D01*
X10305Y176373D01*
X10330D01*
X10396Y176386D01*
X10467Y176398D01*
X10538Y176419D01*
X10608Y176448D01*
X10671Y176490D01*
X10679Y176494D01*
X10696Y176511D01*
X10721Y176540D01*
X10750Y176577D01*
X10779Y176627D01*
X10804Y176685D01*
X10820Y176752D01*
X10829Y176831D01*
Y176839D01*
X10825Y176864D01*
X10820Y176906D01*
X10808Y176956D01*
X10791Y177010D01*
X10762Y177068D01*
X10725Y177126D01*
X10671Y177181D01*
X10662Y177185D01*
X10642Y177201D01*
X10608Y177222D01*
X10563Y177247D01*
X10504Y177276D01*
X10438Y177297D01*
X10355Y177314D01*
X10267Y177318D01*
D02*
G37*
G36*
X14425Y175658D02*
Y174830D01*
X14430D01*
X14446D01*
X14471Y174834D01*
X14500D01*
X14538Y174843D01*
X14580Y174851D01*
X14625Y174863D01*
X14671Y174880D01*
X14713Y174901D01*
X14758Y174926D01*
X14800Y174959D01*
X14837Y174996D01*
X14866Y175038D01*
X14891Y175092D01*
X14908Y175150D01*
X14912Y175221D01*
Y175250D01*
X14904Y175279D01*
X14896Y175321D01*
X14879Y175367D01*
X14854Y175412D01*
X14817Y175462D01*
X14771Y175512D01*
X14767Y175516D01*
X14746Y175533D01*
X14717Y175550D01*
X14675Y175575D01*
X14625Y175600D01*
X14567Y175625D01*
X14500Y175645D01*
X14425Y175658D01*
D02*
G37*
G36*
X10409Y172862D02*
Y172035D01*
X10413D01*
X10429D01*
X10454Y172039D01*
X10484D01*
X10521Y172047D01*
X10563Y172055D01*
X10608Y172068D01*
X10654Y172084D01*
X10696Y172105D01*
X10741Y172130D01*
X10783Y172163D01*
X10820Y172201D01*
X10850Y172243D01*
X10875Y172297D01*
X10891Y172355D01*
X10895Y172426D01*
Y172455D01*
X10887Y172484D01*
X10879Y172525D01*
X10862Y172571D01*
X10837Y172617D01*
X10800Y172667D01*
X10754Y172717D01*
X10750Y172721D01*
X10729Y172738D01*
X10700Y172754D01*
X10658Y172779D01*
X10608Y172804D01*
X10550Y172829D01*
X10484Y172850D01*
X10409Y172862D01*
D02*
G37*
G36*
X14197Y166215D02*
X14188D01*
X14168D01*
X14139Y166211D01*
X14097Y166206D01*
X14047Y166198D01*
X13993Y166186D01*
X13935Y166169D01*
X13872Y166148D01*
X13810Y166123D01*
X13752Y166086D01*
X13698Y166044D01*
X13648Y165994D01*
X13606Y165932D01*
X13577Y165865D01*
X13556Y165782D01*
X13548Y165691D01*
Y165670D01*
X13552Y165645D01*
X13560Y165612D01*
X13569Y165574D01*
X13581Y165533D01*
X13602Y165487D01*
X13631Y165441D01*
X13668Y165395D01*
X13710Y165349D01*
X13764Y165308D01*
X13831Y165270D01*
X13905Y165237D01*
X13993Y165212D01*
X14097Y165196D01*
X14213Y165191D01*
X14222D01*
X14243D01*
X14272Y165196D01*
X14313Y165200D01*
X14359Y165208D01*
X14413Y165216D01*
X14471Y165233D01*
X14529Y165254D01*
X14588Y165283D01*
X14646Y165316D01*
X14700Y165354D01*
X14746Y165403D01*
X14787Y165462D01*
X14821Y165528D01*
X14837Y165607D01*
X14846Y165695D01*
Y165720D01*
X14841Y165736D01*
X14837Y165778D01*
X14825Y165836D01*
X14804Y165894D01*
X14775Y165961D01*
X14733Y166023D01*
X14675Y166077D01*
X14667Y166082D01*
X14646Y166098D01*
X14604Y166119D01*
X14555Y166144D01*
X14484Y166173D01*
X14405Y166194D01*
X14309Y166211D01*
X14197Y166215D01*
D02*
G37*
G36*
X13781Y159588D02*
X13777D01*
X13760D01*
X13739Y159584D01*
X13710Y159580D01*
X13681Y159567D01*
X13648Y159555D01*
X13614Y159534D01*
X13585Y159509D01*
X13581Y159505D01*
X13573Y159492D01*
X13560Y159476D01*
X13548Y159451D01*
X13535Y159417D01*
X13523Y159380D01*
X13514Y159334D01*
X13510Y159284D01*
Y159276D01*
X13514Y159251D01*
X13519Y159218D01*
X13527Y159172D01*
X13544Y159122D01*
X13569Y159068D01*
X13598Y159018D01*
X13644Y158968D01*
X13652Y158964D01*
X13668Y158947D01*
X13698Y158926D01*
X13739Y158906D01*
X13789Y158881D01*
X13847Y158864D01*
X13910Y158847D01*
X13985Y158843D01*
X14139D01*
X14084Y159251D01*
Y159255D01*
X14080Y159263D01*
Y159280D01*
X14072Y159305D01*
X14060Y159359D01*
X14030Y159417D01*
X13993Y159480D01*
X13939Y159534D01*
X13905Y159555D01*
X13868Y159571D01*
X13826Y159584D01*
X13781Y159588D01*
D02*
G37*
G36*
X9764Y156588D02*
X9760D01*
X9743D01*
X9722Y156584D01*
X9693Y156580D01*
X9664Y156568D01*
X9631Y156555D01*
X9597Y156534D01*
X9568Y156509D01*
X9564Y156505D01*
X9556Y156493D01*
X9543Y156476D01*
X9531Y156451D01*
X9518Y156418D01*
X9506Y156380D01*
X9498Y156335D01*
X9493Y156285D01*
Y156277D01*
X9498Y156252D01*
X9502Y156218D01*
X9510Y156173D01*
X9527Y156123D01*
X9552Y156069D01*
X9581Y156019D01*
X9627Y155969D01*
X9635Y155965D01*
X9651Y155948D01*
X9681Y155927D01*
X9722Y155906D01*
X9772Y155881D01*
X9830Y155865D01*
X9893Y155848D01*
X9968Y155844D01*
X10122D01*
X10068Y156252D01*
Y156256D01*
X10063Y156264D01*
Y156281D01*
X10055Y156306D01*
X10043Y156360D01*
X10013Y156418D01*
X9976Y156480D01*
X9922Y156534D01*
X9889Y156555D01*
X9851Y156572D01*
X9810Y156584D01*
X9764Y156588D01*
D02*
G37*
G36*
X10142Y151343D02*
X10138D01*
X10130D01*
X10113D01*
X10097Y151339D01*
X10072D01*
X10043Y151334D01*
X9980Y151326D01*
X9909Y151314D01*
X9835Y151289D01*
X9760Y151260D01*
X9693Y151218D01*
X9685Y151214D01*
X9668Y151193D01*
X9643Y151164D01*
X9614Y151126D01*
X9581Y151076D01*
X9556Y151018D01*
X9539Y150947D01*
X9531Y150873D01*
Y150852D01*
X9535Y150835D01*
X9539Y150798D01*
X9552Y150748D01*
X9572Y150694D01*
X9602Y150636D01*
X9643Y150577D01*
X9697Y150523D01*
X9706Y150519D01*
X9726Y150502D01*
X9764Y150482D01*
X9814Y150457D01*
X9876Y150432D01*
X9955Y150411D01*
X10043Y150394D01*
X10138Y150390D01*
X10317D01*
X10321D01*
X10325D01*
X10338D01*
X10355D01*
X10392Y150398D01*
X10442Y150407D01*
X10500Y150423D01*
X10558Y150444D01*
X10621Y150477D01*
X10679Y150519D01*
X10687Y150523D01*
X10704Y150540D01*
X10725Y150569D01*
X10754Y150606D01*
X10783Y150652D01*
X10804Y150710D01*
X10820Y150777D01*
X10829Y150848D01*
Y150868D01*
X10825Y150885D01*
X10820Y150927D01*
X10808Y150977D01*
X10787Y151035D01*
X10754Y151097D01*
X10708Y151155D01*
X10683Y151185D01*
X10650Y151210D01*
X10642Y151214D01*
X10617Y151230D01*
X10575Y151251D01*
X10521Y151276D01*
X10446Y151301D01*
X10359Y151322D01*
X10259Y151339D01*
X10142Y151343D01*
D02*
G37*
G36*
X10704Y138264D02*
X10600D01*
X10596D01*
X10588D01*
X10575D01*
X10554D01*
X10529D01*
X10500Y138259D01*
X10434Y138255D01*
X10350Y138251D01*
X10263Y138239D01*
X10163Y138226D01*
X10068Y138210D01*
X9968Y138185D01*
X9868Y138155D01*
X9781Y138122D01*
X9697Y138076D01*
X9631Y138027D01*
X9602Y137997D01*
X9577Y137968D01*
X9556Y137935D01*
X9543Y137902D01*
X9535Y137864D01*
X9531Y137823D01*
Y137819D01*
X9535Y137802D01*
X9539Y137781D01*
X9548Y137756D01*
X9564Y137723D01*
X9589Y137685D01*
X9622Y137648D01*
X9668Y137606D01*
X9726Y137565D01*
X9801Y137527D01*
X9843Y137507D01*
X9889Y137490D01*
X9939Y137473D01*
X9997Y137457D01*
X10055Y137444D01*
X10122Y137432D01*
X10192Y137419D01*
X10271Y137407D01*
X10350Y137403D01*
X10438Y137394D01*
X10533Y137390D01*
X10633D01*
X10637D01*
X10646D01*
X10662D01*
X10679D01*
X10704D01*
X10733Y137394D01*
X10804Y137398D01*
X10887Y137403D01*
X10983Y137411D01*
X11078Y137427D01*
X11182Y137444D01*
X11286Y137465D01*
X11386Y137494D01*
X11478Y137527D01*
X11561Y137569D01*
X11632Y137619D01*
X11661Y137644D01*
X11686Y137673D01*
X11707Y137706D01*
X11719Y137740D01*
X11727Y137777D01*
X11732Y137814D01*
Y137835D01*
X11723Y137856D01*
X11715Y137885D01*
X11698Y137918D01*
X11673Y137956D01*
X11636Y137997D01*
X11590Y138039D01*
X11532Y138081D01*
X11457Y138122D01*
X11411Y138139D01*
X11365Y138160D01*
X11311Y138176D01*
X11253Y138193D01*
X11191Y138210D01*
X11124Y138222D01*
X11053Y138235D01*
X10974Y138243D01*
X10891Y138251D01*
X10800Y138259D01*
X10704Y138264D01*
D02*
G37*
G36*
X11361Y133010D02*
X11357D01*
X11349D01*
X11332D01*
X11311Y133005D01*
X11261Y132997D01*
X11203Y132981D01*
X11199D01*
X11191Y132976D01*
X11178Y132968D01*
X11157Y132960D01*
X11116Y132935D01*
X11074Y132901D01*
X11070Y132897D01*
X11066Y132893D01*
X11045Y132864D01*
X11016Y132827D01*
X10987Y132781D01*
Y132777D01*
X10983Y132768D01*
X10979Y132756D01*
X10974Y132735D01*
X10962Y132689D01*
X10958Y132631D01*
Y132602D01*
X10962Y132581D01*
X10970Y132535D01*
X10987Y132485D01*
Y132481D01*
X10991Y132473D01*
X10999Y132460D01*
X11012Y132444D01*
X11037Y132406D01*
X11074Y132369D01*
X11078Y132365D01*
X11083Y132361D01*
X11095Y132348D01*
X11112Y132340D01*
X11153Y132311D01*
X11203Y132286D01*
X11207D01*
X11216Y132282D01*
X11232Y132273D01*
X11253Y132269D01*
X11303Y132257D01*
X11361Y132253D01*
X11365D01*
X11374D01*
X11390D01*
X11411Y132257D01*
X11465Y132265D01*
X11519Y132282D01*
X11524D01*
X11532Y132286D01*
X11544Y132294D01*
X11565Y132302D01*
X11607Y132327D01*
X11648Y132365D01*
X11653Y132369D01*
X11657Y132373D01*
X11677Y132398D01*
X11707Y132436D01*
X11732Y132485D01*
Y132490D01*
X11736Y132498D01*
X11740Y132510D01*
X11748Y132527D01*
X11756Y132573D01*
X11761Y132631D01*
Y132660D01*
X11756Y132681D01*
X11748Y132731D01*
X11727Y132785D01*
Y132789D01*
X11723Y132797D01*
X11715Y132810D01*
X11707Y132827D01*
X11682Y132864D01*
X11644Y132906D01*
X11640D01*
X11636Y132914D01*
X11623Y132922D01*
X11607Y132935D01*
X11565Y132960D01*
X11515Y132985D01*
X11511D01*
X11503Y132989D01*
X11490Y132993D01*
X11469Y132997D01*
X11419Y133005D01*
X11361Y133010D01*
D02*
G37*
G36*
X9963Y133105D02*
X9959D01*
X9947D01*
X9926D01*
X9897Y133101D01*
X9835Y133093D01*
X9768Y133072D01*
X9764D01*
X9755Y133064D01*
X9739Y133060D01*
X9718Y133047D01*
X9672Y133018D01*
X9622Y132981D01*
X9618Y132976D01*
X9614Y132968D01*
X9602Y132956D01*
X9589Y132939D01*
X9560Y132893D01*
X9531Y132835D01*
Y132831D01*
X9527Y132818D01*
X9523Y132802D01*
X9518Y132777D01*
X9510Y132747D01*
X9506Y132714D01*
X9502Y132639D01*
Y132602D01*
X9506Y132577D01*
X9514Y132519D01*
X9535Y132456D01*
Y132452D01*
X9543Y132440D01*
X9548Y132427D01*
X9560Y132406D01*
X9589Y132357D01*
X9627Y132311D01*
X9631Y132307D01*
X9639Y132298D01*
X9651Y132290D01*
X9668Y132273D01*
X9714Y132244D01*
X9772Y132215D01*
X9776D01*
X9789Y132211D01*
X9805Y132203D01*
X9830Y132194D01*
X9855Y132190D01*
X9889Y132182D01*
X9963Y132178D01*
X9968D01*
X9980D01*
X9997D01*
X10022Y132182D01*
X10080Y132190D01*
X10142Y132211D01*
X10147D01*
X10159Y132215D01*
X10171Y132223D01*
X10192Y132236D01*
X10242Y132265D01*
X10292Y132307D01*
X10296Y132311D01*
X10305Y132315D01*
X10313Y132332D01*
X10330Y132348D01*
X10359Y132394D01*
X10392Y132452D01*
Y132456D01*
X10396Y132465D01*
X10405Y132485D01*
X10413Y132506D01*
X10417Y132535D01*
X10425Y132564D01*
X10429Y132639D01*
Y132677D01*
X10425Y132702D01*
X10417Y132760D01*
X10396Y132827D01*
Y132831D01*
X10392Y132839D01*
X10384Y132856D01*
X10371Y132877D01*
X10342Y132926D01*
X10296Y132976D01*
X10292Y132981D01*
X10284Y132985D01*
X10271Y132997D01*
X10255Y133010D01*
X10209Y133043D01*
X10147Y133072D01*
X10142D01*
X10134Y133076D01*
X10113Y133080D01*
X10092Y133089D01*
X10068Y133093D01*
X10034Y133101D01*
X9963Y133105D01*
D02*
G37*
G36*
X18983Y229010D02*
X10644D01*
Y228105D01*
X13351D01*
Y228084D01*
X10644Y225596D01*
Y224326D01*
X13559Y227147D01*
X16276Y224534D01*
Y225710D01*
X13694Y228084D01*
Y228105D01*
X18983D01*
Y224326D01*
X10644D01*
X18983D01*
Y229010D01*
D02*
G37*
G36*
X16411Y223795D02*
D01*
Y221193D01*
X16401Y221390D01*
X16380Y221588D01*
X16338Y221776D01*
X16286Y221942D01*
X16214Y222109D01*
X16151Y222265D01*
X16068Y222400D01*
X15995Y222535D01*
X15922Y222650D01*
X15839Y222754D01*
X15776Y222837D01*
X15714Y222910D01*
X15651Y222973D01*
X15610Y223014D01*
X15589Y223035D01*
X15578Y223045D01*
X15422Y223181D01*
X15245Y223295D01*
X15079Y223389D01*
X14902Y223483D01*
X14714Y223556D01*
X14537Y223608D01*
X14360Y223660D01*
X14194Y223701D01*
X14038Y223732D01*
X13892Y223753D01*
X13767Y223774D01*
X13653Y223785D01*
X13559D01*
X13497Y223795D01*
X16411D01*
X10519D01*
D01*
X13434D01*
X13184Y223785D01*
X12945Y223764D01*
X12716Y223732D01*
X12507Y223691D01*
X12320Y223639D01*
X12143Y223576D01*
X11977Y223524D01*
X11831Y223451D01*
X11706Y223389D01*
X11592Y223337D01*
X11498Y223274D01*
X11425Y223222D01*
X11362Y223181D01*
X11310Y223150D01*
X11290Y223129D01*
X11279Y223118D01*
X11144Y222983D01*
X11029Y222837D01*
X10925Y222691D01*
X10842Y222535D01*
X10769Y222379D01*
X10707Y222223D01*
X10655Y222067D01*
X10613Y221921D01*
X10582Y221776D01*
X10561Y221651D01*
X10540Y221536D01*
X10530Y221432D01*
Y221349D01*
X10519Y221286D01*
Y221234D01*
X10530Y221005D01*
X10540Y220797D01*
X10571Y220599D01*
X10603Y220412D01*
X10644Y220235D01*
X10686Y220068D01*
X10738Y219922D01*
X10790Y219787D01*
X10831Y219673D01*
X10884Y219568D01*
X10925Y219475D01*
X10967Y219402D01*
X10998Y219339D01*
X11029Y219298D01*
X11040Y219277D01*
X11050Y219267D01*
X11893D01*
X11779Y219423D01*
X11685Y219568D01*
X11602Y219725D01*
X11529Y219881D01*
X11477Y220027D01*
X11425Y220172D01*
X11352Y220443D01*
X11321Y220568D01*
X11300Y220672D01*
X11290Y220776D01*
X11279Y220859D01*
X11269Y220922D01*
Y221016D01*
X11279Y221172D01*
X11290Y221317D01*
X11352Y221588D01*
X11435Y221817D01*
X11529Y222005D01*
X11623Y222161D01*
X11664Y222223D01*
X11696Y222265D01*
X11737Y222306D01*
X11758Y222338D01*
X11768Y222348D01*
X11779Y222358D01*
X11883Y222442D01*
X11987Y222515D01*
X12227Y222639D01*
X12466Y222723D01*
X12695Y222785D01*
X12913Y222827D01*
X12997Y222837D01*
X13080Y222848D01*
X13142D01*
X13195Y222858D01*
X13226D01*
X13236D01*
Y218882D01*
X13705D01*
X13934Y218892D01*
X14152Y218902D01*
X14360Y218934D01*
X14548Y218975D01*
X14725Y219017D01*
X14891Y219069D01*
X15037Y219131D01*
X15172Y219183D01*
X15297Y219235D01*
X15402Y219298D01*
X15485Y219350D01*
X15558Y219392D01*
X15620Y219433D01*
X15662Y219454D01*
X15683Y219475D01*
X15693Y219485D01*
X15818Y219600D01*
X15932Y219735D01*
X16026Y219870D01*
X16109Y220006D01*
X16182Y220151D01*
X16234Y220287D01*
X16286Y220433D01*
X16318Y220568D01*
X16349Y220693D01*
X16370Y220807D01*
X16390Y220922D01*
X16401Y221005D01*
X16411Y221088D01*
Y218882D01*
D01*
Y223795D01*
D02*
G37*
G36*
X16276Y218351D02*
D01*
X10655Y216154D01*
X9593Y216602D01*
X9447Y216675D01*
X9322Y216747D01*
X9218Y216820D01*
X9124Y216904D01*
X9041Y216987D01*
X8979Y217070D01*
X8926Y217164D01*
X8885Y217237D01*
X8822Y217393D01*
X8791Y217507D01*
Y217559D01*
X8781Y217591D01*
Y217622D01*
X8791Y217809D01*
X8812Y217903D01*
X8833Y217986D01*
X8843Y218059D01*
X8864Y218111D01*
X8874Y218153D01*
Y218163D01*
X8062D01*
X8042Y218070D01*
X8031Y217965D01*
X8010Y217872D01*
Y217778D01*
X8000Y217695D01*
Y217570D01*
X8021Y217341D01*
X8073Y217122D01*
X8167Y216924D01*
X8271Y216737D01*
X8406Y216560D01*
X8552Y216404D01*
X8708Y216258D01*
X8874Y216123D01*
X9041Y216008D01*
X9197Y215904D01*
X9343Y215821D01*
X9478Y215748D01*
X9593Y215696D01*
X9676Y215654D01*
X9728Y215634D01*
X9749Y215623D01*
X16276Y213031D01*
X8000D01*
X16276D01*
Y218351D01*
D02*
G37*
G36*
X18983Y212063D02*
X10519D01*
D01*
X10644D01*
Y211157D01*
X11456D01*
Y211136D01*
X11290Y211022D01*
X11144Y210897D01*
X11019Y210772D01*
X10915Y210626D01*
X10821Y210491D01*
X10748Y210356D01*
X10686Y210210D01*
X10634Y210075D01*
X10603Y209950D01*
X10571Y209835D01*
X10550Y209721D01*
X10530Y209637D01*
Y209554D01*
X10519Y209502D01*
Y209450D01*
X10530Y209231D01*
X10561Y209023D01*
X10603Y208836D01*
X10655Y208648D01*
X10717Y208482D01*
X10790Y208326D01*
X10863Y208190D01*
X10946Y208055D01*
X11019Y207941D01*
X11092Y207847D01*
X11165Y207764D01*
X11227Y207691D01*
X11290Y207639D01*
X11331Y207597D01*
X11352Y207576D01*
X11362Y207566D01*
X11529Y207441D01*
X11706Y207337D01*
X11883Y207243D01*
X12070Y207170D01*
X12258Y207097D01*
X12445Y207045D01*
X12809Y206962D01*
X12976Y206931D01*
X13132Y206910D01*
X13268Y206900D01*
X13392Y206889D01*
X13486Y206879D01*
X13621D01*
X13850Y206889D01*
X14069Y206910D01*
X14277Y206931D01*
X14475Y206972D01*
X14652Y207025D01*
X14818Y207077D01*
X14975Y207129D01*
X15110Y207181D01*
X15235Y207243D01*
X15349Y207295D01*
X15433Y207347D01*
X15516Y207399D01*
X15568Y207441D01*
X15620Y207462D01*
X15641Y207483D01*
X15651Y207493D01*
X15787Y207608D01*
X15901Y207743D01*
X16005Y207878D01*
X16089Y208013D01*
X16161Y208149D01*
X16224Y208295D01*
X16276Y208430D01*
X16318Y208565D01*
X16349Y208690D01*
X16370Y208815D01*
X16390Y208919D01*
X16401Y209013D01*
X16411Y209086D01*
Y209190D01*
X16401Y209419D01*
X16359Y209637D01*
X16307Y209846D01*
X16234Y210033D01*
X16151Y210210D01*
X16057Y210366D01*
X15953Y210512D01*
X15849Y210647D01*
X15745Y210762D01*
X15641Y210855D01*
X15547Y210939D01*
X15464Y211012D01*
X15391Y211064D01*
X15339Y211105D01*
X15297Y211126D01*
X15287Y211136D01*
Y211157D01*
X18983D01*
Y206879D01*
D01*
Y212063D01*
D02*
G37*
G36*
X16411Y205817D02*
D01*
Y202944D01*
X16401Y203183D01*
X16380Y203412D01*
X16338Y203631D01*
X16286Y203829D01*
X16224Y204016D01*
X16161Y204193D01*
X16089Y204349D01*
X16016Y204495D01*
X15932Y204620D01*
X15859Y204734D01*
X15797Y204828D01*
X15735Y204901D01*
X15683Y204963D01*
X15641Y205005D01*
X15620Y205036D01*
X15610Y205047D01*
X15454Y205182D01*
X15287Y205296D01*
X15110Y205400D01*
X14923Y205494D01*
X14746Y205567D01*
X14558Y205630D01*
X14371Y205682D01*
X14204Y205723D01*
X14038Y205754D01*
X13882Y205775D01*
X13746Y205796D01*
X13621Y205806D01*
X13528D01*
X13455Y205817D01*
X16411D01*
X10519D01*
D01*
X13392D01*
X13153Y205806D01*
X12934Y205786D01*
X12716Y205744D01*
X12518Y205702D01*
X12331Y205640D01*
X12164Y205577D01*
X11997Y205515D01*
X11862Y205442D01*
X11727Y205369D01*
X11623Y205307D01*
X11519Y205244D01*
X11446Y205182D01*
X11383Y205140D01*
X11342Y205099D01*
X11310Y205078D01*
X11300Y205067D01*
X11165Y204922D01*
X11040Y204766D01*
X10936Y204609D01*
X10852Y204443D01*
X10769Y204276D01*
X10707Y204110D01*
X10655Y203943D01*
X10613Y203787D01*
X10582Y203641D01*
X10561Y203506D01*
X10540Y203381D01*
X10530Y203277D01*
Y203194D01*
X10519Y203121D01*
Y203069D01*
X10530Y202829D01*
X10550Y202611D01*
X10592Y202402D01*
X10644Y202205D01*
X10707Y202028D01*
X10769Y201861D01*
X10842Y201705D01*
X10925Y201570D01*
X10998Y201445D01*
X11071Y201341D01*
X11133Y201247D01*
X11196Y201164D01*
X11248Y201112D01*
X11290Y201060D01*
X11310Y201039D01*
X11321Y201028D01*
X11477Y200893D01*
X11643Y200779D01*
X11821Y200674D01*
X11997Y200591D01*
X12185Y200518D01*
X12362Y200456D01*
X12539Y200404D01*
X12705Y200362D01*
X12862Y200331D01*
X13007Y200310D01*
X13142Y200289D01*
X13257Y200279D01*
X13351Y200268D01*
X13476D01*
X13725Y200279D01*
X13965Y200300D01*
X14194Y200331D01*
X14392Y200383D01*
X14590Y200435D01*
X14766Y200487D01*
X14923Y200560D01*
X15068Y200622D01*
X15204Y200685D01*
X15318Y200747D01*
X15412Y200810D01*
X15485Y200862D01*
X15547Y200914D01*
X15599Y200945D01*
X15620Y200966D01*
X15631Y200976D01*
X15766Y201112D01*
X15891Y201268D01*
X15995Y201424D01*
X16078Y201580D01*
X16161Y201747D01*
X16224Y201913D01*
X16276Y202069D01*
X16318Y202225D01*
X16349Y202371D01*
X16370Y202506D01*
X16390Y202631D01*
X16401Y202736D01*
X16411Y202819D01*
Y200268D01*
D01*
Y205817D01*
D02*
G37*
G36*
Y199238D02*
D01*
Y196771D01*
X16401Y196968D01*
X16390Y197166D01*
X16328Y197531D01*
X16286Y197697D01*
X16245Y197853D01*
X16193Y197999D01*
X16151Y198134D01*
X16099Y198259D01*
X16047Y198363D01*
X16005Y198457D01*
X15964Y198540D01*
X15932Y198603D01*
X15901Y198644D01*
X15891Y198676D01*
X15880Y198686D01*
X14954D01*
X15079Y198530D01*
X15183Y198374D01*
X15277Y198207D01*
X15360Y198051D01*
X15422Y197895D01*
X15485Y197739D01*
X15568Y197458D01*
X15589Y197322D01*
X15610Y197208D01*
X15631Y197104D01*
X15641Y197020D01*
X15651Y196948D01*
Y196844D01*
X15631Y196635D01*
X15589Y196458D01*
X15516Y196313D01*
X15422Y196177D01*
X15318Y196063D01*
X15193Y195969D01*
X15068Y195896D01*
X14933Y195834D01*
X14798Y195782D01*
X14673Y195750D01*
X14548Y195719D01*
X14444Y195709D01*
X14350Y195698D01*
X14277Y195688D01*
X14236D01*
X14215D01*
X13975Y197374D01*
X13944Y197541D01*
X13913Y197697D01*
X13819Y197989D01*
X13705Y198238D01*
X13580Y198447D01*
X13434Y198634D01*
X13278Y198780D01*
X13122Y198905D01*
X12955Y199009D01*
X12799Y199082D01*
X12643Y199144D01*
X12507Y199186D01*
X12383Y199207D01*
X12279Y199227D01*
X12206Y199238D01*
X16411D01*
X10519D01*
D01*
X12133D01*
X11997Y199227D01*
X11873Y199217D01*
X11633Y199165D01*
X11435Y199082D01*
X11269Y198998D01*
X11133Y198915D01*
X11040Y198832D01*
X10977Y198780D01*
X10967Y198759D01*
X10956D01*
X10811Y198561D01*
X10707Y198353D01*
X10623Y198134D01*
X10571Y197926D01*
X10540Y197739D01*
X10530Y197655D01*
Y197583D01*
X10519Y197531D01*
Y197447D01*
X10530Y197239D01*
X10561Y197041D01*
X10613Y196864D01*
X10675Y196687D01*
X10748Y196531D01*
X10831Y196396D01*
X10925Y196260D01*
X11019Y196146D01*
X11113Y196042D01*
X11206Y195959D01*
X11290Y195886D01*
X11362Y195823D01*
X11425Y195771D01*
X11477Y195740D01*
X11508Y195719D01*
X11519Y195709D01*
Y195688D01*
X10644D01*
Y194782D01*
X14309D01*
X14496Y194793D01*
X14683Y194803D01*
X14850Y194834D01*
X15006Y194866D01*
X15152Y194918D01*
X15287Y194970D01*
X15526Y195095D01*
X15724Y195240D01*
X15901Y195407D01*
X16037Y195594D01*
X16151Y195771D01*
X16234Y195959D01*
X16297Y196146D01*
X16349Y196313D01*
X16380Y196458D01*
X16401Y196583D01*
X16411Y196687D01*
Y194782D01*
D01*
Y199238D01*
D02*
G37*
G36*
X16380Y193086D02*
D01*
Y190681D01*
X16370Y190858D01*
X16328Y191024D01*
X16276Y191181D01*
X16214Y191305D01*
X16151Y191410D01*
X16099Y191493D01*
X16057Y191545D01*
X16047Y191566D01*
X15912Y191701D01*
X15755Y191826D01*
X15599Y191930D01*
X15454Y192013D01*
X15318Y192076D01*
X15214Y192117D01*
X15172Y192138D01*
X15141Y192149D01*
X15120Y192159D01*
X15110D01*
Y192180D01*
X16276D01*
Y193086D01*
X10644D01*
Y192180D01*
X13517D01*
X13850Y192159D01*
X14142Y192117D01*
X14277Y192086D01*
X14402Y192055D01*
X14506Y192024D01*
X14610Y191982D01*
X14694Y191951D01*
X14777Y191920D01*
X14839Y191888D01*
X14902Y191857D01*
X14943Y191826D01*
X14975Y191815D01*
X14985Y191795D01*
X14996D01*
X15089Y191722D01*
X15183Y191639D01*
X15256Y191555D01*
X15318Y191472D01*
X15412Y191316D01*
X15474Y191160D01*
X15516Y191024D01*
X15537Y190920D01*
X15547Y190879D01*
Y190826D01*
X15537Y190670D01*
X15516Y190535D01*
X15485Y190410D01*
X15454Y190316D01*
X15422Y190244D01*
X15391Y190181D01*
X15370Y190150D01*
X15360Y190139D01*
X16297D01*
X16328Y190212D01*
X16349Y190306D01*
X16370Y190483D01*
X16380Y190556D01*
Y190139D01*
D01*
Y193086D01*
D02*
G37*
G36*
X18983Y189546D02*
D01*
Y185247D01*
X15495D01*
Y185268D01*
X15662Y185372D01*
X15797Y185497D01*
X15922Y185622D01*
X16026Y185757D01*
X16109Y185892D01*
X16193Y186038D01*
X16245Y186173D01*
X16297Y186319D01*
X16338Y186444D01*
X16359Y186569D01*
X16380Y186673D01*
X16401Y186777D01*
Y186850D01*
X16411Y186912D01*
Y186964D01*
X16401Y187173D01*
X16380Y187381D01*
X16338Y187568D01*
X16276Y187745D01*
X16214Y187912D01*
X16141Y188068D01*
X16068Y188214D01*
X15995Y188338D01*
X15912Y188453D01*
X15839Y188557D01*
X15766Y188640D01*
X15703Y188713D01*
X15651Y188765D01*
X15610Y188807D01*
X15578Y188828D01*
X15568Y188838D01*
X15402Y188963D01*
X15235Y189067D01*
X15048Y189161D01*
X14860Y189244D01*
X14673Y189317D01*
X14485Y189369D01*
X14131Y189452D01*
X13965Y189484D01*
X13819Y189505D01*
X13684Y189525D01*
X13559Y189536D01*
X13465Y189546D01*
X18983D01*
X10519D01*
X13330D01*
X13091Y189536D01*
X12862Y189515D01*
X12653Y189484D01*
X12455Y189442D01*
X12268Y189400D01*
X12101Y189348D01*
X11945Y189286D01*
X11810Y189223D01*
X11685Y189171D01*
X11571Y189109D01*
X11487Y189057D01*
X11404Y189005D01*
X11352Y188974D01*
X11300Y188942D01*
X11279Y188921D01*
X11269Y188911D01*
X11133Y188786D01*
X11019Y188651D01*
X10925Y188515D01*
X10831Y188380D01*
X10759Y188234D01*
X10707Y188099D01*
X10655Y187953D01*
X10613Y187828D01*
X10582Y187704D01*
X10561Y187579D01*
X10540Y187475D01*
X10530Y187391D01*
Y187318D01*
X10519Y187256D01*
Y187214D01*
X10530Y186975D01*
X10571Y186756D01*
X10623Y186548D01*
X10686Y186361D01*
X10769Y186184D01*
X10863Y186017D01*
X10956Y185882D01*
X11061Y185747D01*
X11165Y185632D01*
X11258Y185538D01*
X11352Y185455D01*
X11435Y185382D01*
X11498Y185330D01*
X11560Y185299D01*
X11592Y185278D01*
X11602Y185268D01*
Y185247D01*
X10644D01*
Y184352D01*
X10519D01*
X18983D01*
Y189546D01*
D02*
G37*
%LPD*%
G36*
X14256Y222796D02*
X14496Y222712D01*
X14704Y222629D01*
X14871Y222535D01*
X15006Y222442D01*
X15110Y222369D01*
X15172Y222317D01*
X15193Y222296D01*
X15277Y222213D01*
X15349Y222119D01*
X15454Y221942D01*
X15537Y221755D01*
X15599Y221588D01*
X15631Y221442D01*
X15641Y221317D01*
X15651Y221276D01*
Y221213D01*
X15631Y220974D01*
X15578Y220766D01*
X15516Y220599D01*
X15433Y220443D01*
X15349Y220328D01*
X15287Y220245D01*
X15235Y220203D01*
X15214Y220183D01*
X15037Y220058D01*
X14839Y219964D01*
X14642Y219891D01*
X14444Y219850D01*
X14267Y219818D01*
X14194Y219808D01*
X14121D01*
X14069Y219798D01*
X14027D01*
X14007D01*
X13996D01*
Y222848D01*
X14256Y222796D01*
D02*
G37*
G36*
X16276Y213968D02*
X11925Y215571D01*
X11831Y215592D01*
X11737Y215613D01*
X11675Y215634D01*
X11612Y215654D01*
X11571Y215665D01*
X11529D01*
X11519Y215675D01*
X11508D01*
Y215706D01*
X11623Y215738D01*
X11716Y215758D01*
X11800Y215779D01*
X11852Y215800D01*
X11893Y215810D01*
X11914Y215821D01*
X11935D01*
X16276Y217351D01*
Y213968D01*
D02*
G37*
G36*
X13882Y211147D02*
X14017Y211136D01*
X14288Y211084D01*
X14527Y211001D01*
X14725Y210918D01*
X14808Y210876D01*
X14881Y210835D01*
X14943Y210793D01*
X15006Y210751D01*
X15048Y210720D01*
X15079Y210699D01*
X15089Y210678D01*
X15100D01*
X15193Y210585D01*
X15287Y210491D01*
X15360Y210387D01*
X15422Y210272D01*
X15516Y210064D01*
X15578Y209866D01*
X15620Y209679D01*
X15631Y209606D01*
X15641Y209544D01*
X15651Y209481D01*
Y209408D01*
X15641Y209273D01*
X15631Y209148D01*
X15568Y208909D01*
X15485Y208711D01*
X15381Y208544D01*
X15277Y208409D01*
X15193Y208315D01*
X15131Y208253D01*
X15120Y208232D01*
X15110D01*
X14891Y208086D01*
X14652Y207982D01*
X14413Y207899D01*
X14173Y207847D01*
X13965Y207816D01*
X13871Y207805D01*
X13798D01*
X13736Y207795D01*
X13684D01*
X13653D01*
X13642D01*
X13434D01*
X13247Y207816D01*
X13059Y207837D01*
X12893Y207868D01*
X12736Y207899D01*
X12591Y207941D01*
X12466Y207982D01*
X12351Y208024D01*
X12237Y208076D01*
X12154Y208118D01*
X12070Y208159D01*
X12008Y208190D01*
X11956Y208222D01*
X11925Y208243D01*
X11904Y208253D01*
X11893Y208263D01*
X11779Y208357D01*
X11685Y208451D01*
X11602Y208555D01*
X11529Y208659D01*
X11477Y208773D01*
X11425Y208877D01*
X11352Y209086D01*
X11300Y209273D01*
X11290Y209346D01*
X11279Y209419D01*
X11269Y209471D01*
Y209554D01*
X11279Y209679D01*
X11290Y209804D01*
X11342Y210033D01*
X11425Y210231D01*
X11508Y210397D01*
X11592Y210533D01*
X11675Y210626D01*
X11727Y210689D01*
X11748Y210699D01*
Y210710D01*
X11841Y210793D01*
X11935Y210855D01*
X12143Y210970D01*
X12341Y211043D01*
X12528Y211105D01*
X12695Y211136D01*
X12768Y211147D01*
X12830D01*
X12872Y211157D01*
X12913D01*
X12934D01*
X12945D01*
X13725D01*
X13882Y211147D01*
D02*
G37*
G36*
X13611Y204880D02*
X13788Y204870D01*
X13965Y204849D01*
X14121Y204807D01*
X14267Y204776D01*
X14402Y204734D01*
X14517Y204682D01*
X14631Y204641D01*
X14725Y204589D01*
X14818Y204547D01*
X14891Y204505D01*
X14954Y204464D01*
X14996Y204432D01*
X15027Y204412D01*
X15048Y204401D01*
X15058Y204391D01*
X15162Y204287D01*
X15256Y204183D01*
X15329Y204068D01*
X15402Y203964D01*
X15464Y203839D01*
X15506Y203725D01*
X15578Y203506D01*
X15620Y203308D01*
X15631Y203225D01*
X15641Y203152D01*
X15651Y203089D01*
Y203006D01*
X15641Y202850D01*
X15631Y202694D01*
X15558Y202423D01*
X15474Y202194D01*
X15370Y202007D01*
X15308Y201924D01*
X15256Y201861D01*
X15214Y201799D01*
X15172Y201747D01*
X15131Y201715D01*
X15100Y201684D01*
X15089Y201663D01*
X15079D01*
X14964Y201580D01*
X14839Y201507D01*
X14579Y201393D01*
X14309Y201309D01*
X14048Y201257D01*
X13923Y201237D01*
X13809Y201216D01*
X13705Y201205D01*
X13621D01*
X13548Y201195D01*
X13497D01*
X13455D01*
X13444D01*
X13257D01*
X13080Y201216D01*
X12913Y201237D01*
X12757Y201268D01*
X12612Y201299D01*
X12476Y201341D01*
X12351Y201382D01*
X12247Y201424D01*
X12154Y201476D01*
X12070Y201518D01*
X11997Y201559D01*
X11935Y201590D01*
X11893Y201622D01*
X11862Y201642D01*
X11841Y201653D01*
X11831Y201663D01*
X11737Y201757D01*
X11643Y201851D01*
X11571Y201965D01*
X11508Y202069D01*
X11404Y202298D01*
X11342Y202506D01*
X11300Y202704D01*
X11290Y202788D01*
X11279Y202860D01*
X11269Y202923D01*
Y203006D01*
X11279Y203162D01*
X11290Y203308D01*
X11362Y203589D01*
X11446Y203818D01*
X11560Y204016D01*
X11612Y204099D01*
X11664Y204172D01*
X11706Y204235D01*
X11748Y204287D01*
X11789Y204328D01*
X11821Y204360D01*
X11831Y204370D01*
X11841Y204380D01*
X11956Y204474D01*
X12081Y204547D01*
X12206Y204620D01*
X12331Y204672D01*
X12601Y204766D01*
X12851Y204828D01*
X12966Y204849D01*
X13080Y204859D01*
X13174Y204870D01*
X13257Y204880D01*
X13330Y204890D01*
X13382D01*
X13413D01*
X13424D01*
X13611Y204880D01*
D02*
G37*
G36*
X12403Y198301D02*
X12570Y198259D01*
X12695Y198207D01*
X12809Y198155D01*
X12893Y198093D01*
X12945Y198051D01*
X12976Y198009D01*
X12986Y197999D01*
X13070Y197864D01*
X13132Y197718D01*
X13184Y197551D01*
X13226Y197395D01*
X13257Y197260D01*
X13278Y197145D01*
X13288Y197104D01*
X13299Y197073D01*
Y197041D01*
X13486Y195688D01*
X12924D01*
X12664Y195709D01*
X12435Y195761D01*
X12237Y195823D01*
X12060Y195907D01*
X11925Y195990D01*
X11821Y196052D01*
X11758Y196104D01*
X11748Y196115D01*
X11737Y196125D01*
X11654Y196209D01*
X11581Y196302D01*
X11467Y196479D01*
X11383Y196667D01*
X11331Y196844D01*
X11290Y197000D01*
X11279Y197114D01*
X11269Y197166D01*
Y197229D01*
X11279Y197406D01*
X11310Y197562D01*
X11352Y197697D01*
X11404Y197812D01*
X11446Y197895D01*
X11487Y197968D01*
X11519Y198009D01*
X11529Y198020D01*
X11633Y198114D01*
X11748Y198186D01*
X11862Y198238D01*
X11966Y198270D01*
X12060Y198291D01*
X12133Y198311D01*
X12185D01*
X12206D01*
X12403Y198301D01*
D02*
G37*
G36*
X13569Y188609D02*
X13746Y188599D01*
X13923Y188578D01*
X14079Y188547D01*
X14225Y188515D01*
X14360Y188474D01*
X14485Y188432D01*
X14600Y188380D01*
X14704Y188338D01*
X14787Y188297D01*
X14860Y188255D01*
X14923Y188224D01*
X14975Y188193D01*
X15006Y188172D01*
X15027Y188151D01*
X15037D01*
X15141Y188057D01*
X15245Y187953D01*
X15318Y187849D01*
X15391Y187745D01*
X15454Y187641D01*
X15506Y187527D01*
X15578Y187318D01*
X15620Y187131D01*
X15631Y187058D01*
X15641Y186985D01*
X15651Y186933D01*
Y186725D01*
X15631Y186600D01*
X15578Y186381D01*
X15495Y186184D01*
X15412Y186017D01*
X15329Y185882D01*
X15245Y185788D01*
X15193Y185726D01*
X15183Y185705D01*
X15172D01*
X15079Y185622D01*
X14985Y185549D01*
X14798Y185445D01*
X14600Y185361D01*
X14423Y185299D01*
X14256Y185268D01*
X14194Y185257D01*
X14131D01*
X14079Y185247D01*
X14048D01*
X14027D01*
X14017D01*
X13184D01*
X13028D01*
X12882Y185268D01*
X12622Y185320D01*
X12383Y185403D01*
X12185Y185486D01*
X12101Y185528D01*
X12029Y185570D01*
X11966Y185611D01*
X11904Y185653D01*
X11862Y185684D01*
X11831Y185705D01*
X11821Y185715D01*
X11810Y185726D01*
X11716Y185819D01*
X11633Y185913D01*
X11560Y186007D01*
X11498Y186111D01*
X11404Y186319D01*
X11342Y186506D01*
X11300Y186683D01*
X11290Y186756D01*
X11279Y186819D01*
X11269Y186871D01*
Y186944D01*
X11279Y187079D01*
X11290Y187214D01*
X11352Y187464D01*
X11446Y187672D01*
X11550Y187849D01*
X11654Y187985D01*
X11748Y188089D01*
X11810Y188151D01*
X11821Y188162D01*
X11831Y188172D01*
X11945Y188255D01*
X12060Y188318D01*
X12310Y188432D01*
X12570Y188505D01*
X12809Y188568D01*
X12924Y188578D01*
X13028Y188599D01*
X13132Y188609D01*
X13215D01*
X13278Y188620D01*
X13330D01*
X13361D01*
X13372D01*
X13569Y188609D01*
D02*
G37*
D10*
X490976Y230016D02*
G03*
X490976Y230016I-492J0D01*
G01*
D11*
X548000Y71500D02*
Y72500D01*
Y76500D01*
X542000Y71500D02*
Y75500D01*
Y76500D01*
X548000Y79500D02*
Y80500D01*
Y84500D01*
X542000Y79500D02*
Y83500D01*
Y84500D01*
X72962Y336963D02*
Y343963D01*
X14963Y354962D02*
Y363963D01*
X15962Y364963D01*
X24962D01*
X54962D02*
X63963D01*
X64963Y363963D01*
Y354962D02*
Y363963D01*
Y315963D02*
Y324962D01*
X63963Y314963D02*
X64963Y315963D01*
X54962Y314963D02*
X63963D01*
X14963Y315963D02*
Y324962D01*
Y315963D02*
X15962Y314963D01*
X24962D01*
X70963Y336963D02*
X74963D01*
X70963D02*
X72962Y334963D01*
X74963Y336963D01*
X70963Y334963D02*
X74963D01*
X72962Y327962D02*
Y334963D01*
X6962Y327962D02*
Y331962D01*
Y339963D02*
Y343963D01*
X5962Y338963D02*
X6962Y339963D01*
X5962Y338963D02*
X7963Y336963D01*
X5962Y334963D02*
X7963Y336963D01*
X5962Y334963D02*
X7963Y332962D01*
X6962Y331962D02*
X7963Y332962D01*
X81963Y331962D02*
X82963Y332962D01*
X80963Y334963D02*
X82963Y332962D01*
X80963Y334963D02*
X82963Y336963D01*
X80963Y338963D02*
X82963Y336963D01*
X80963Y338963D02*
X81963Y339963D01*
Y343963D01*
Y327962D02*
Y331962D01*
X147962Y327962D02*
Y334963D01*
X145963D02*
X149962D01*
X147962D02*
X149962Y336963D01*
X145963D02*
X147962Y334963D01*
X145963Y336963D02*
X149962D01*
X90962Y314963D02*
X99963D01*
X89963Y315963D02*
X90962Y314963D01*
X89963Y315963D02*
Y324962D01*
X129963Y314963D02*
X138962D01*
X139962Y315963D01*
Y324962D01*
Y354962D02*
Y363963D01*
X138962Y364963D02*
X139962Y363963D01*
X129963Y364963D02*
X138962D01*
X90962D02*
X99963D01*
X89963Y363963D02*
X90962Y364963D01*
X89963Y354962D02*
Y363963D01*
X147962Y336963D02*
Y343963D01*
X222962Y336963D02*
Y343963D01*
X164962Y354962D02*
Y363963D01*
X165963Y364963D01*
X174962D01*
X204962D02*
X213963D01*
X214963Y363963D01*
Y354962D02*
Y363963D01*
Y315963D02*
Y324962D01*
X213963Y314963D02*
X214963Y315963D01*
X204962Y314963D02*
X213963D01*
X164962Y315963D02*
Y324962D01*
Y315963D02*
X165963Y314963D01*
X174962D01*
X220963Y336963D02*
X224962D01*
X220963D02*
X222962Y334963D01*
X224962Y336963D01*
X220963Y334963D02*
X224962D01*
X222962Y327962D02*
Y334963D01*
X156963Y327962D02*
Y331962D01*
Y339963D02*
Y343963D01*
X155963Y338963D02*
X156963Y339963D01*
X155963Y338963D02*
X157963Y336963D01*
X155963Y334963D02*
X157963Y336963D01*
X155963Y334963D02*
X157963Y332962D01*
X156963Y331962D02*
X157963Y332962D01*
X231962Y331962D02*
X232962Y332962D01*
X230962Y334963D02*
X232962Y332962D01*
X230962Y334963D02*
X232962Y336963D01*
X230962Y338963D02*
X232962Y336963D01*
X230962Y338963D02*
X231962Y339963D01*
Y343963D01*
Y327962D02*
Y331962D01*
X297962Y327962D02*
Y334963D01*
X295963D02*
X299962D01*
X297962D02*
X299962Y336963D01*
X295963D02*
X297962Y334963D01*
X295963Y336963D02*
X299962D01*
X240963Y314963D02*
X249962D01*
X239963Y315963D02*
X240963Y314963D01*
X239963Y315963D02*
Y324962D01*
X279962Y314963D02*
X288963D01*
X289963Y315963D01*
Y324962D01*
Y354962D02*
Y363963D01*
X288963Y364963D02*
X289963Y363963D01*
X279962Y364963D02*
X288963D01*
X240963D02*
X249962D01*
X239963Y363963D02*
X240963Y364963D01*
X239963Y354962D02*
Y363963D01*
X297962Y336963D02*
Y343963D01*
X372962Y336963D02*
Y343963D01*
X314963Y354962D02*
Y363963D01*
X315963Y364963D01*
X324962D01*
X354962D02*
X363963D01*
X364963Y363963D01*
Y354962D02*
Y363963D01*
Y315963D02*
Y324962D01*
X363963Y314963D02*
X364963Y315963D01*
X354962Y314963D02*
X363963D01*
X314963Y315963D02*
Y324962D01*
Y315963D02*
X315963Y314963D01*
X324962D01*
X370963Y336963D02*
X374962D01*
X370963D02*
X372962Y334963D01*
X374962Y336963D01*
X370963Y334963D02*
X374962D01*
X372962Y327962D02*
Y334963D01*
X306962Y327962D02*
Y331962D01*
Y339963D02*
Y343963D01*
X305962Y338963D02*
X306962Y339963D01*
X305962Y338963D02*
X307962Y336963D01*
X305962Y334963D02*
X307962Y336963D01*
X305962Y334963D02*
X307962Y332962D01*
X306962Y331962D02*
X307962Y332962D01*
X381962Y331962D02*
X382962Y332962D01*
X380962Y334963D02*
X382962Y332962D01*
X380962Y334963D02*
X382962Y336963D01*
X380962Y338963D02*
X382962Y336963D01*
X380962Y338963D02*
X381962Y339963D01*
Y343963D01*
Y327962D02*
Y331962D01*
X447963Y327962D02*
Y334963D01*
X445962D02*
X449963D01*
X447963D02*
X449963Y336963D01*
X445962D02*
X447963Y334963D01*
X445962Y336963D02*
X449963D01*
X390963Y314963D02*
X399962D01*
X389963Y315963D02*
X390963Y314963D01*
X389963Y315963D02*
Y324962D01*
X429962Y314963D02*
X438963D01*
X439962Y315963D01*
Y324962D01*
Y354962D02*
Y363963D01*
X438963Y364963D02*
X439962Y363963D01*
X429962Y364963D02*
X438963D01*
X390963D02*
X399962D01*
X389963Y363963D02*
X390963Y364963D01*
X389963Y354962D02*
Y363963D01*
X447963Y336963D02*
Y343963D01*
X87025Y261963D02*
Y268963D01*
X29025Y279962D02*
Y288963D01*
X30025Y289963D01*
X39025D01*
X69025D02*
X78025D01*
X79025Y288963D01*
Y279962D02*
Y288963D01*
Y240963D02*
Y249962D01*
X78025Y239963D02*
X79025Y240963D01*
X69025Y239963D02*
X78025D01*
X29025Y240963D02*
Y249962D01*
Y240963D02*
X30025Y239963D01*
X39025D01*
X85025Y261963D02*
X89025D01*
X85025D02*
X87025Y259963D01*
X89025Y261963D01*
X85025Y259963D02*
X89025D01*
X87025Y252962D02*
Y259963D01*
X21025Y252962D02*
Y256962D01*
Y264963D02*
Y268963D01*
X20025Y263963D02*
X21025Y264963D01*
X20025Y263963D02*
X22025Y261963D01*
X20025Y259963D02*
X22025Y261963D01*
X20025Y259963D02*
X22025Y257962D01*
X21025Y256962D02*
X22025Y257962D01*
X110088Y256962D02*
X111088Y257962D01*
X109088Y259963D02*
X111088Y257962D01*
X109088Y259963D02*
X111088Y261963D01*
X109088Y263963D02*
X111088Y261963D01*
X109088Y263963D02*
X110088Y264963D01*
Y268963D01*
Y252962D02*
Y256962D01*
X176087Y252962D02*
Y259963D01*
X174088D02*
X178087D01*
X176087D02*
X178087Y261963D01*
X174088D02*
X176087Y259963D01*
X174088Y261963D02*
X178087D01*
X119088Y239963D02*
X128087D01*
X118087Y240963D02*
X119088Y239963D01*
X118087Y240963D02*
Y249962D01*
X158088Y239963D02*
X167087D01*
X168087Y240963D01*
Y249962D01*
Y279962D02*
Y288963D01*
X167087Y289963D02*
X168087Y288963D01*
X158088Y289963D02*
X167087D01*
X119088D02*
X128087D01*
X118087Y288963D02*
X119088Y289963D01*
X118087Y279962D02*
Y288963D01*
X176087Y261963D02*
Y268963D01*
X251087Y261963D02*
Y268963D01*
X193087Y279962D02*
Y288963D01*
X194088Y289963D01*
X203087D01*
X233087D02*
X242088D01*
X243088Y288963D01*
Y279962D02*
Y288963D01*
Y240963D02*
Y249962D01*
X242088Y239963D02*
X243088Y240963D01*
X233087Y239963D02*
X242088D01*
X193087Y240963D02*
Y249962D01*
Y240963D02*
X194088Y239963D01*
X203087D01*
X249088Y261963D02*
X253087D01*
X249088D02*
X251087Y259963D01*
X253087Y261963D01*
X249088Y259963D02*
X253087D01*
X251087Y252962D02*
Y259963D01*
X185088Y252962D02*
Y256962D01*
Y264963D02*
Y268963D01*
X184088Y263963D02*
X185088Y264963D01*
X184088Y263963D02*
X186088Y261963D01*
X184088Y259963D02*
X186088Y261963D01*
X184088Y259963D02*
X186088Y257962D01*
X185088Y256962D02*
X186088Y257962D01*
X260087Y256962D02*
X261087Y257962D01*
X259087Y259963D02*
X261087Y257962D01*
X259087Y259963D02*
X261087Y261963D01*
X259087Y263963D02*
X261087Y261963D01*
X259087Y263963D02*
X260087Y264963D01*
Y268963D01*
Y252962D02*
Y256962D01*
X326087Y252962D02*
Y259963D01*
X324088D02*
X328087D01*
X326087D02*
X328087Y261963D01*
X324088D02*
X326087Y259963D01*
X324088Y261963D02*
X328087D01*
X269088Y239963D02*
X278087D01*
X268088Y240963D02*
X269088Y239963D01*
X268088Y240963D02*
Y249962D01*
X308087Y239963D02*
X317088D01*
X318088Y240963D01*
Y249962D01*
Y279962D02*
Y288963D01*
X317088Y289963D02*
X318088Y288963D01*
X308087Y289963D02*
X317088D01*
X269088D02*
X278087D01*
X268088Y288963D02*
X269088Y289963D01*
X268088Y279962D02*
Y288963D01*
X326087Y261963D02*
Y268963D01*
X401088Y261963D02*
Y268963D01*
X343088Y279962D02*
Y288963D01*
X344088Y289963D01*
X353087D01*
X383087D02*
X392088D01*
X393088Y288963D01*
Y279962D02*
Y288963D01*
Y240963D02*
Y249962D01*
X392088Y239963D02*
X393088Y240963D01*
X383087Y239963D02*
X392088D01*
X343088Y240963D02*
Y249962D01*
Y240963D02*
X344088Y239963D01*
X353087D01*
X399088Y261963D02*
X403088D01*
X399088D02*
X401088Y259963D01*
X403088Y261963D01*
X399088Y259963D02*
X403088D01*
X401088Y252962D02*
Y259963D01*
X335087Y252962D02*
Y256962D01*
Y264963D02*
Y268963D01*
X334087Y263963D02*
X335087Y264963D01*
X334087Y263963D02*
X336087Y261963D01*
X334087Y259963D02*
X336087Y261963D01*
X334087Y259963D02*
X336087Y257962D01*
X335087Y256962D02*
X336087Y257962D01*
X410087Y256962D02*
X411088Y257962D01*
X409088Y259963D02*
X411088Y257962D01*
X409088Y259963D02*
X411088Y261963D01*
X409088Y263963D02*
X411088Y261963D01*
X409088Y263963D02*
X410087Y264963D01*
Y268963D01*
Y252962D02*
Y256962D01*
X476088Y252962D02*
Y259963D01*
X474087D02*
X478088D01*
X476088D02*
X478088Y261963D01*
X474087D02*
X476088Y259963D01*
X474087Y261963D02*
X478088D01*
X419088Y239963D02*
X428088D01*
X418087Y240963D02*
X419088Y239963D01*
X418087Y240963D02*
Y249962D01*
X458087Y239963D02*
X467088D01*
X468087Y240963D01*
Y249962D01*
Y279962D02*
Y288963D01*
X467088Y289963D02*
X468087Y288963D01*
X458087Y289963D02*
X467088D01*
X419088D02*
X428088D01*
X418087Y288963D02*
X419088Y289963D01*
X418087Y279962D02*
Y288963D01*
X476088Y261963D02*
Y268963D01*
X99525Y186962D02*
Y193963D01*
X41525Y204962D02*
Y213963D01*
X42525Y214963D01*
X51525D01*
X81525D02*
X90525D01*
X91525Y213963D01*
Y204962D02*
Y213963D01*
Y165963D02*
Y174962D01*
X90525Y164962D02*
X91525Y165963D01*
X81525Y164962D02*
X90525D01*
X41525Y165963D02*
Y174962D01*
Y165963D02*
X42525Y164962D01*
X51525D01*
X97525Y186962D02*
X101525D01*
X97525D02*
X99525Y184962D01*
X101525Y186962D01*
X97525Y184962D02*
X101525D01*
X99525Y177963D02*
Y184962D01*
X33525Y177963D02*
Y181963D01*
Y189962D02*
Y193963D01*
X32525Y188962D02*
X33525Y189962D01*
X32525Y188962D02*
X34525Y186962D01*
X32525Y184962D02*
X34525Y186962D01*
X32525Y184962D02*
X34525Y182963D01*
X33525Y181963D02*
X34525Y182963D01*
X135088Y181963D02*
X136088Y182963D01*
X134088Y184962D02*
X136088Y182963D01*
X134088Y184962D02*
X136088Y186962D01*
X134088Y188962D02*
X136088Y186962D01*
X134088Y188962D02*
X135088Y189962D01*
Y193963D01*
Y177963D02*
Y181963D01*
X201087Y177963D02*
Y184962D01*
X199088D02*
X203087D01*
X201087D02*
X203087Y186962D01*
X199088D02*
X201087Y184962D01*
X199088Y186962D02*
X203087D01*
X144088Y164962D02*
X153087D01*
X143087Y165963D02*
X144088Y164962D01*
X143087Y165963D02*
Y174962D01*
X183088Y164962D02*
X192087D01*
X193087Y165963D01*
Y174962D01*
Y204962D02*
Y213963D01*
X192087Y214963D02*
X193087Y213963D01*
X183088Y214963D02*
X192087D01*
X144088D02*
X153087D01*
X143087Y213963D02*
X144088Y214963D01*
X143087Y204962D02*
Y213963D01*
X201087Y186962D02*
Y193963D01*
X276087Y186962D02*
Y193963D01*
X218088Y204962D02*
Y213963D01*
X219088Y214963D01*
X228087D01*
X258087D02*
X267088D01*
X268088Y213963D01*
Y204962D02*
Y213963D01*
Y165963D02*
Y174962D01*
X267088Y164962D02*
X268088Y165963D01*
X258087Y164962D02*
X267088D01*
X218088Y165963D02*
Y174962D01*
Y165963D02*
X219088Y164962D01*
X228087D01*
X274088Y186962D02*
X278087D01*
X274088D02*
X276087Y184962D01*
X278087Y186962D01*
X274088Y184962D02*
X278087D01*
X276087Y177963D02*
Y184962D01*
X210087Y177963D02*
Y181963D01*
Y189962D02*
Y193963D01*
X209087Y188962D02*
X210087Y189962D01*
X209087Y188962D02*
X211087Y186962D01*
X209087Y184962D02*
X211087Y186962D01*
X209087Y184962D02*
X211087Y182963D01*
X210087Y181963D02*
X211087Y182963D01*
X285087Y181963D02*
X286087Y182963D01*
X284087Y184962D02*
X286087Y182963D01*
X284087Y184962D02*
X286087Y186962D01*
X284087Y188962D02*
X286087Y186962D01*
X284087Y188962D02*
X285087Y189962D01*
Y193963D01*
Y177963D02*
Y181963D01*
X351087Y177963D02*
Y184962D01*
X349088D02*
X353087D01*
X351087D02*
X353087Y186962D01*
X349088D02*
X351087Y184962D01*
X349088Y186962D02*
X353087D01*
X294088Y164962D02*
X303087D01*
X293088Y165963D02*
X294088Y164962D01*
X293088Y165963D02*
Y174962D01*
X333087Y164962D02*
X342088D01*
X343088Y165963D01*
Y174962D01*
Y204962D02*
Y213963D01*
X342088Y214963D02*
X343088Y213963D01*
X333087Y214963D02*
X342088D01*
X294088D02*
X303087D01*
X293088Y213963D02*
X294088Y214963D01*
X293088Y204962D02*
Y213963D01*
X351087Y186962D02*
Y193963D01*
X426088Y186962D02*
Y193963D01*
X368088Y204962D02*
Y213963D01*
X369088Y214963D01*
X378087D01*
X408087D02*
X417088D01*
X418087Y213963D01*
Y204962D02*
Y213963D01*
Y165963D02*
Y174962D01*
X417088Y164962D02*
X418087Y165963D01*
X408087Y164962D02*
X417088D01*
X368088Y165963D02*
Y174962D01*
Y165963D02*
X369088Y164962D01*
X378087D01*
X424087Y186962D02*
X428088D01*
X424087D02*
X426088Y184962D01*
X428088Y186962D01*
X424087Y184962D02*
X428088D01*
X426088Y177963D02*
Y184962D01*
X360087Y177963D02*
Y181963D01*
Y189962D02*
Y193963D01*
X359087Y188962D02*
X360087Y189962D01*
X359087Y188962D02*
X361087Y186962D01*
X359087Y184962D02*
X361087Y186962D01*
X359087Y184962D02*
X361087Y182963D01*
X360087Y181963D02*
X361087Y182963D01*
X435087Y181963D02*
X436088Y182963D01*
X434088Y184962D02*
X436088Y182963D01*
X434088Y184962D02*
X436088Y186962D01*
X434088Y188962D02*
X436088Y186962D01*
X434088Y188962D02*
X435087Y189962D01*
Y193963D01*
Y177963D02*
Y181963D01*
X501088Y177963D02*
Y184962D01*
X499087D02*
X503088D01*
X501088D02*
X503088Y186962D01*
X499087D02*
X501088Y184962D01*
X499087Y186962D02*
X503088D01*
X444088Y164962D02*
X453088D01*
X443087Y165963D02*
X444088Y164962D01*
X443087Y165963D02*
Y174962D01*
X483087Y164962D02*
X492088D01*
X493087Y165963D01*
Y174962D01*
Y204962D02*
Y213963D01*
X492088Y214963D02*
X493087Y213963D01*
X483087Y214963D02*
X492088D01*
X444088D02*
X453088D01*
X443087Y213963D02*
X444088Y214963D01*
X443087Y204962D02*
Y213963D01*
X501088Y186962D02*
Y193963D01*
X51463Y83963D02*
X55462D01*
X63463D02*
X67462D01*
X62463Y84962D02*
X63463Y83963D01*
X60462Y82963D02*
X62463Y84962D01*
X58463D02*
X60462Y82963D01*
X56463D02*
X58463Y84962D01*
X55462Y83963D02*
X56463Y82963D01*
X87463Y83963D02*
X94463D01*
X52463Y129963D02*
Y138962D01*
X53462Y139962D01*
X62463D01*
X92462D02*
X101462D01*
X102462Y138962D01*
Y129963D02*
Y138962D01*
Y90962D02*
Y99963D01*
X101462Y89963D02*
X102462Y90962D01*
X92462Y89963D02*
X101462D01*
X52463Y90962D02*
Y99963D01*
Y90962D02*
X53462Y89963D01*
X62463D01*
X94463Y81963D02*
Y85962D01*
Y81963D02*
X96463Y83963D01*
X94463Y85962D02*
X96463Y83963D01*
Y81963D02*
Y85962D01*
Y83963D02*
X103463D01*
X124462Y96962D02*
Y135462D01*
X104963Y114962D02*
X124462D01*
X30463Y96962D02*
Y135462D01*
Y114962D02*
X49962D01*
X222962Y111962D02*
Y118963D01*
X164962Y129963D02*
Y138962D01*
X165963Y139962D01*
X174962D01*
X204962D02*
X213963D01*
X214963Y138962D01*
Y129963D02*
Y138962D01*
Y90962D02*
Y99963D01*
X213963Y89963D02*
X214963Y90962D01*
X204962Y89963D02*
X213963D01*
X164962Y90962D02*
Y99963D01*
Y90962D02*
X165963Y89963D01*
X174962D01*
X220963Y111962D02*
X224962D01*
X220963D02*
X222962Y109962D01*
X224962Y111962D01*
X220963Y109962D02*
X224962D01*
X222962Y102963D02*
Y109962D01*
X156963Y102963D02*
Y106963D01*
Y114962D02*
Y118963D01*
X155963Y113962D02*
X156963Y114962D01*
X155963Y113962D02*
X157963Y111962D01*
X155963Y109962D02*
X157963Y111962D01*
X155963Y109962D02*
X157963Y107963D01*
X156963Y106963D02*
X157963Y107963D01*
X231962Y106963D02*
X232962Y107963D01*
X230962Y109962D02*
X232962Y107963D01*
X230962Y109962D02*
X232962Y111962D01*
X230962Y113962D02*
X232962Y111962D01*
X230962Y113962D02*
X231962Y114962D01*
Y118963D01*
Y102963D02*
Y106963D01*
X297962Y102963D02*
Y109962D01*
X295963D02*
X299962D01*
X297962D02*
X299962Y111962D01*
X295963D02*
X297962Y109962D01*
X295963Y111962D02*
X299962D01*
X240963Y89963D02*
X249962D01*
X239963Y90962D02*
X240963Y89963D01*
X239963Y90962D02*
Y99963D01*
X279962Y89963D02*
X288963D01*
X289963Y90962D01*
Y99963D01*
Y129963D02*
Y138962D01*
X288963Y139962D02*
X289963Y138962D01*
X279962Y139962D02*
X288963D01*
X240963D02*
X249962D01*
X239963Y138962D02*
X240963Y139962D01*
X239963Y129963D02*
Y138962D01*
X297962Y111962D02*
Y118963D01*
X372962Y111962D02*
Y118963D01*
X314963Y129963D02*
Y138962D01*
X315963Y139962D01*
X324962D01*
X354962D02*
X363963D01*
X364963Y138962D01*
Y129963D02*
Y138962D01*
Y90962D02*
Y99963D01*
X363963Y89963D02*
X364963Y90962D01*
X354962Y89963D02*
X363963D01*
X314963Y90962D02*
Y99963D01*
Y90962D02*
X315963Y89963D01*
X324962D01*
X370963Y111962D02*
X374962D01*
X370963D02*
X372962Y109962D01*
X374962Y111962D01*
X370963Y109962D02*
X374962D01*
X372962Y102963D02*
Y109962D01*
X306962Y102963D02*
Y106963D01*
Y114962D02*
Y118963D01*
X305962Y113962D02*
X306962Y114962D01*
X305962Y113962D02*
X307962Y111962D01*
X305962Y109962D02*
X307962Y111962D01*
X305962Y109962D02*
X307962Y107963D01*
X306962Y106963D02*
X307962Y107963D01*
X381962Y106963D02*
X382962Y107963D01*
X380962Y109962D02*
X382962Y107963D01*
X380962Y109962D02*
X382962Y111962D01*
X380962Y113962D02*
X382962Y111962D01*
X380962Y113962D02*
X381962Y114962D01*
Y118963D01*
Y102963D02*
Y106963D01*
X447963Y102963D02*
Y109962D01*
X445962D02*
X449963D01*
X447963D02*
X449963Y111962D01*
X445962D02*
X447963Y109962D01*
X445962Y111962D02*
X449963D01*
X390963Y89963D02*
X399962D01*
X389963Y90962D02*
X390963Y89963D01*
X389963Y90962D02*
Y99963D01*
X429962Y89963D02*
X438963D01*
X439962Y90962D01*
Y99963D01*
Y129963D02*
Y138962D01*
X438963Y139962D02*
X439962Y138962D01*
X429962Y139962D02*
X438963D01*
X390963D02*
X399962D01*
X389963Y138962D02*
X390963Y139962D01*
X389963Y129963D02*
Y138962D01*
X447963Y111962D02*
Y118963D01*
X522963Y111962D02*
Y118963D01*
X464962Y129963D02*
Y138962D01*
X465963Y139962D01*
X474963D01*
X504962D02*
X513963D01*
X514962Y138962D01*
Y129963D02*
Y138962D01*
Y90962D02*
Y99963D01*
X513963Y89963D02*
X514962Y90962D01*
X504962Y89963D02*
X513963D01*
X464962Y90962D02*
Y99963D01*
Y90962D02*
X465963Y89963D01*
X474963D01*
X520962Y111962D02*
X524963D01*
X520962D02*
X522963Y109962D01*
X524963Y111962D01*
X520962Y109962D02*
X524963D01*
X522963Y102963D02*
Y109962D01*
X456962Y102963D02*
Y106963D01*
Y114962D02*
Y118963D01*
X455963Y113962D02*
X456962Y114962D01*
X455963Y113962D02*
X457963Y111962D01*
X455963Y109962D02*
X457963Y111962D01*
X455963Y109962D02*
X457963Y107963D01*
X456962Y106963D02*
X457963Y107963D01*
X6962Y31962D02*
X7963Y32963D01*
X5962Y34962D02*
X7963Y32963D01*
X5962Y34962D02*
X7963Y36963D01*
X5962Y38963D02*
X7963Y36963D01*
X5962Y38963D02*
X6962Y39963D01*
Y43962D01*
Y27962D02*
Y31962D01*
X72962Y27962D02*
Y34962D01*
X70963D02*
X74963D01*
X72962D02*
X74963Y36963D01*
X70963D02*
X72962Y34962D01*
X70963Y36963D02*
X74963D01*
X15962Y14963D02*
X24962D01*
X14963Y15962D02*
X15962Y14963D01*
X14963Y15962D02*
Y24962D01*
X54962Y14963D02*
X63963D01*
X64963Y15962D01*
Y24962D01*
Y54962D02*
Y63963D01*
X63963Y64963D02*
X64963Y63963D01*
X54962Y64963D02*
X63963D01*
X15962D02*
X24962D01*
X14963Y63963D02*
X15962Y64963D01*
X14963Y54962D02*
Y63963D01*
X72962Y36963D02*
Y43962D01*
X147962Y36963D02*
Y43962D01*
X89963Y54962D02*
Y63963D01*
X90962Y64963D01*
X99963D01*
X129963D02*
X138962D01*
X139962Y63963D01*
Y54962D02*
Y63963D01*
Y15962D02*
Y24962D01*
X138962Y14963D02*
X139962Y15962D01*
X129963Y14963D02*
X138962D01*
X89963Y15962D02*
Y24962D01*
Y15962D02*
X90962Y14963D01*
X99963D01*
X145963Y36963D02*
X149962D01*
X145963D02*
X147962Y34962D01*
X149962Y36963D01*
X145963Y34962D02*
X149962D01*
X147962Y27962D02*
Y34962D01*
X81963Y27962D02*
Y31962D01*
Y39963D02*
Y43962D01*
X80963Y38963D02*
X81963Y39963D01*
X80963Y38963D02*
X82963Y36963D01*
X80963Y34962D02*
X82963Y36963D01*
X80963Y34962D02*
X82963Y32963D01*
X81963Y31962D02*
X82963Y32963D01*
X156963Y31962D02*
X157963Y32963D01*
X155963Y34962D02*
X157963Y32963D01*
X155963Y34962D02*
X157963Y36963D01*
X155963Y38963D02*
X157963Y36963D01*
X155963Y38963D02*
X156963Y39963D01*
Y43962D01*
Y27962D02*
Y31962D01*
X222962Y27962D02*
Y34962D01*
X220963D02*
X224962D01*
X222962D02*
X224962Y36963D01*
X220963D02*
X222962Y34962D01*
X220963Y36963D02*
X224962D01*
X165963Y14963D02*
X174962D01*
X164962Y15962D02*
X165963Y14963D01*
X164962Y15962D02*
Y24962D01*
X204962Y14963D02*
X213963D01*
X214963Y15962D01*
Y24962D01*
Y54962D02*
Y63963D01*
X213963Y64963D02*
X214963Y63963D01*
X204962Y64963D02*
X213963D01*
X165963D02*
X174962D01*
X164962Y63963D02*
X165963Y64963D01*
X164962Y54962D02*
Y63963D01*
X222962Y36963D02*
Y43962D01*
X297962Y36963D02*
Y43962D01*
X239963Y54962D02*
Y63963D01*
X240963Y64963D01*
X249962D01*
X279962D02*
X288963D01*
X289963Y63963D01*
Y54962D02*
Y63963D01*
Y15962D02*
Y24962D01*
X288963Y14963D02*
X289963Y15962D01*
X279962Y14963D02*
X288963D01*
X239963Y15962D02*
Y24962D01*
Y15962D02*
X240963Y14963D01*
X249962D01*
X295963Y36963D02*
X299962D01*
X295963D02*
X297962Y34962D01*
X299962Y36963D01*
X295963Y34962D02*
X299962D01*
X297962Y27962D02*
Y34962D01*
X231962Y27962D02*
Y31962D01*
Y39963D02*
Y43962D01*
X230962Y38963D02*
X231962Y39963D01*
X230962Y38963D02*
X232962Y36963D01*
X230962Y34962D02*
X232962Y36963D01*
X230962Y34962D02*
X232962Y32963D01*
X231962Y31962D02*
X232962Y32963D01*
X306962Y31962D02*
X307962Y32963D01*
X305962Y34962D02*
X307962Y32963D01*
X305962Y34962D02*
X307962Y36963D01*
X305962Y38963D02*
X307962Y36963D01*
X305962Y38963D02*
X306962Y39963D01*
Y43962D01*
Y27962D02*
Y31962D01*
X372962Y27962D02*
Y34962D01*
X370963D02*
X374962D01*
X372962D02*
X374962Y36963D01*
X370963D02*
X372962Y34962D01*
X370963Y36963D02*
X374962D01*
X315963Y14963D02*
X324962D01*
X314963Y15962D02*
X315963Y14963D01*
X314963Y15962D02*
Y24962D01*
X354962Y14963D02*
X363963D01*
X364963Y15962D01*
Y24962D01*
Y54962D02*
Y63963D01*
X363963Y64963D02*
X364963Y63963D01*
X354962Y64963D02*
X363963D01*
X315963D02*
X324962D01*
X314963Y63963D02*
X315963Y64963D01*
X314963Y54962D02*
Y63963D01*
X372962Y36963D02*
Y43962D01*
X438963Y8963D02*
X442963D01*
X450962D02*
X454962D01*
X449963Y9962D02*
X450962Y8963D01*
X447963Y7963D02*
X449963Y9962D01*
X445962D02*
X447963Y7963D01*
X443962D02*
X445962Y9962D01*
X442963Y8963D02*
X443962Y7963D01*
X474963Y8963D02*
X481962D01*
X439962Y54962D02*
Y63963D01*
X440963Y64963D01*
X449963D01*
X479962D02*
X488963D01*
X489962Y63963D01*
Y54962D02*
Y63963D01*
Y15962D02*
Y24962D01*
X488963Y14963D02*
X489962Y15962D01*
X479962Y14963D02*
X488963D01*
X439962Y15962D02*
Y24962D01*
Y15962D02*
X440963Y14963D01*
X449963D01*
X481962Y6962D02*
Y10962D01*
Y6962D02*
X483962Y8963D01*
X481962Y10962D02*
X483962Y8963D01*
Y6962D02*
Y10962D01*
Y8963D02*
X490963D01*
X511963Y21962D02*
Y60462D01*
X492462Y39963D02*
X511963D01*
X417963Y21962D02*
Y60462D01*
Y39963D02*
X437463D01*
X526448Y162421D02*
X528273Y163158D01*
X523475Y169780D02*
X525300Y170517D01*
X523475Y169780D02*
X526448Y162421D01*
D12*
X534803Y119075D02*
X535197D01*
X534803Y115925D02*
X535197D01*
X534803Y128075D02*
X535197D01*
X534803Y124925D02*
X535197D01*
X534803Y106925D02*
X535197D01*
X534803Y110075D02*
X535197D01*
X484500Y240653D02*
Y243248D01*
X484555D02*
X487055D01*
X484555Y231752D02*
X487055D01*
X484500D02*
Y234347D01*
X487303Y226575D02*
X487697D01*
X487303Y223425D02*
X487697D01*
X516525Y192237D02*
X525300Y170517D01*
X528273Y163158D02*
X537025Y141497D01*
D13*
X550000Y72000D02*
Y73666D01*
X550833Y74499D01*
X551666Y73666D01*
Y72000D01*
Y73250D01*
X550000D01*
X552499Y74499D02*
Y72000D01*
X553749D01*
X554165Y72417D01*
Y74083D01*
X553749Y74499D01*
X552499D01*
X554998D02*
Y72000D01*
X556248D01*
X556665Y72417D01*
Y74083D01*
X556248Y74499D01*
X554998D01*
X557498Y72000D02*
Y74499D01*
X558747D01*
X559164Y74083D01*
Y73250D01*
X558747Y72833D01*
X557498D01*
X558331D02*
X559164Y72000D01*
X559997Y71583D02*
X561663D01*
X562496Y74499D02*
Y72000D01*
X564162D01*
X550000Y80000D02*
Y81666D01*
X550833Y82499D01*
X551666Y81666D01*
Y80000D01*
Y81250D01*
X550000D01*
X552499Y82499D02*
Y80000D01*
X553749D01*
X554165Y80417D01*
Y82083D01*
X553749Y82499D01*
X552499D01*
X554998D02*
Y80000D01*
X556248D01*
X556665Y80417D01*
Y82083D01*
X556248Y82499D01*
X554998D01*
X557498Y80000D02*
Y82499D01*
X558747D01*
X559164Y82083D01*
Y81250D01*
X558747Y80833D01*
X557498D01*
X558331D02*
X559164Y80000D01*
X559997Y79584D02*
X561663D01*
X562496Y82499D02*
Y80000D01*
Y81250D01*
X564162D01*
Y82499D01*
Y80000D01*
X18466Y369483D02*
X18050Y369899D01*
X17217D01*
X16800Y369483D01*
Y369066D01*
X17217Y368650D01*
X18050D01*
X18466Y368233D01*
Y367816D01*
X18050Y367400D01*
X17217D01*
X16800Y367816D01*
X19299Y367400D02*
X20132D01*
X19716D01*
Y369899D01*
X19299Y369483D01*
X21382Y366984D02*
X23048D01*
X23881Y367400D02*
X24714D01*
X24298D01*
Y369899D01*
X23881Y369483D01*
X93466D02*
X93050Y369899D01*
X92216D01*
X91800Y369483D01*
Y369066D01*
X92216Y368650D01*
X93050D01*
X93466Y368233D01*
Y367816D01*
X93050Y367400D01*
X92216D01*
X91800Y367816D01*
X94299Y367400D02*
X95132D01*
X94716D01*
Y369899D01*
X94299Y369483D01*
X96382Y366984D02*
X98048D01*
X100547Y367400D02*
X98881D01*
X100547Y369066D01*
Y369483D01*
X100131Y369899D01*
X99298D01*
X98881Y369483D01*
X168466D02*
X168050Y369899D01*
X167217D01*
X166800Y369483D01*
Y369066D01*
X167217Y368650D01*
X168050D01*
X168466Y368233D01*
Y367816D01*
X168050Y367400D01*
X167217D01*
X166800Y367816D01*
X169299Y367400D02*
X170132D01*
X169716D01*
Y369899D01*
X169299Y369483D01*
X171382Y366984D02*
X173048D01*
X173881Y369483D02*
X174298Y369899D01*
X175131D01*
X175547Y369483D01*
Y369066D01*
X175131Y368650D01*
X174714D01*
X175131D01*
X175547Y368233D01*
Y367816D01*
X175131Y367400D01*
X174298D01*
X173881Y367816D01*
X243466Y369483D02*
X243050Y369899D01*
X242216D01*
X241800Y369483D01*
Y369066D01*
X242216Y368650D01*
X243050D01*
X243466Y368233D01*
Y367816D01*
X243050Y367400D01*
X242216D01*
X241800Y367816D01*
X244299Y367400D02*
X245132D01*
X244716D01*
Y369899D01*
X244299Y369483D01*
X246382Y366984D02*
X248048D01*
X250131Y367400D02*
Y369899D01*
X248881Y368650D01*
X250547D01*
X318466Y369483D02*
X318050Y369899D01*
X317216D01*
X316800Y369483D01*
Y369066D01*
X317216Y368650D01*
X318050D01*
X318466Y368233D01*
Y367816D01*
X318050Y367400D01*
X317216D01*
X316800Y367816D01*
X319299Y367400D02*
X320132D01*
X319716D01*
Y369899D01*
X319299Y369483D01*
X321382Y366984D02*
X323048D01*
X325547Y369899D02*
X323881D01*
Y368650D01*
X324714Y369066D01*
X325131D01*
X325547Y368650D01*
Y367816D01*
X325131Y367400D01*
X324298D01*
X323881Y367816D01*
X393466Y369483D02*
X393050Y369899D01*
X392216D01*
X391800Y369483D01*
Y369066D01*
X392216Y368650D01*
X393050D01*
X393466Y368233D01*
Y367816D01*
X393050Y367400D01*
X392216D01*
X391800Y367816D01*
X394299Y367400D02*
X395132D01*
X394716D01*
Y369899D01*
X394299Y369483D01*
X396382Y366984D02*
X398048D01*
X400547Y369899D02*
X399714Y369483D01*
X398881Y368650D01*
Y367816D01*
X399298Y367400D01*
X400131D01*
X400547Y367816D01*
Y368233D01*
X400131Y368650D01*
X398881D01*
X32466Y294483D02*
X32050Y294899D01*
X31216D01*
X30800Y294483D01*
Y294066D01*
X31216Y293650D01*
X32050D01*
X32466Y293233D01*
Y292816D01*
X32050Y292400D01*
X31216D01*
X30800Y292816D01*
X33299Y292400D02*
X34132D01*
X33716D01*
Y294899D01*
X33299Y294483D01*
X35382Y291984D02*
X37048D01*
X37881Y294899D02*
X39547D01*
Y294483D01*
X37881Y292816D01*
Y292400D01*
X121566Y294483D02*
X121150Y294899D01*
X120317D01*
X119900Y294483D01*
Y294066D01*
X120317Y293650D01*
X121150D01*
X121566Y293233D01*
Y292816D01*
X121150Y292400D01*
X120317D01*
X119900Y292816D01*
X122399Y292400D02*
X123232D01*
X122816D01*
Y294899D01*
X122399Y294483D01*
X124482Y291984D02*
X126148D01*
X126981Y294483D02*
X127398Y294899D01*
X128231D01*
X128647Y294483D01*
Y294066D01*
X128231Y293650D01*
X128647Y293233D01*
Y292816D01*
X128231Y292400D01*
X127398D01*
X126981Y292816D01*
Y293233D01*
X127398Y293650D01*
X126981Y294066D01*
Y294483D01*
X127398Y293650D02*
X128231D01*
X196566Y294483D02*
X196150Y294899D01*
X195317D01*
X194900Y294483D01*
Y294066D01*
X195317Y293650D01*
X196150D01*
X196566Y293233D01*
Y292816D01*
X196150Y292400D01*
X195317D01*
X194900Y292816D01*
X197399Y292400D02*
X198232D01*
X197816D01*
Y294899D01*
X197399Y294483D01*
X199482Y291984D02*
X201148D01*
X201981Y292816D02*
X202398Y292400D01*
X203231D01*
X203647Y292816D01*
Y294483D01*
X203231Y294899D01*
X202398D01*
X201981Y294483D01*
Y294066D01*
X202398Y293650D01*
X203647D01*
X271566Y294483D02*
X271150Y294899D01*
X270317D01*
X269900Y294483D01*
Y294066D01*
X270317Y293650D01*
X271150D01*
X271566Y293233D01*
Y292816D01*
X271150Y292400D01*
X270317D01*
X269900Y292816D01*
X272399Y292400D02*
X273232D01*
X272816D01*
Y294899D01*
X272399Y294483D01*
X274482Y291984D02*
X276148D01*
X276981Y292400D02*
X277814D01*
X277398D01*
Y294899D01*
X276981Y294483D01*
X279064D02*
X279480Y294899D01*
X280313D01*
X280730Y294483D01*
Y292816D01*
X280313Y292400D01*
X279480D01*
X279064Y292816D01*
Y294483D01*
X346566D02*
X346150Y294899D01*
X345317D01*
X344900Y294483D01*
Y294066D01*
X345317Y293650D01*
X346150D01*
X346566Y293233D01*
Y292816D01*
X346150Y292400D01*
X345317D01*
X344900Y292816D01*
X347399Y292400D02*
X348232D01*
X347816D01*
Y294899D01*
X347399Y294483D01*
X349482Y291984D02*
X351148D01*
X351981Y292400D02*
X352814D01*
X352398D01*
Y294899D01*
X351981Y294483D01*
X354064Y292400D02*
X354897D01*
X354480D01*
Y294899D01*
X354064Y294483D01*
X421566D02*
X421150Y294899D01*
X420317D01*
X419900Y294483D01*
Y294066D01*
X420317Y293650D01*
X421150D01*
X421566Y293233D01*
Y292816D01*
X421150Y292400D01*
X420317D01*
X419900Y292816D01*
X422399Y292400D02*
X423232D01*
X422816D01*
Y294899D01*
X422399Y294483D01*
X424482Y291984D02*
X426148D01*
X426981Y292400D02*
X427814D01*
X427398D01*
Y294899D01*
X426981Y294483D01*
X430730Y292400D02*
X429064D01*
X430730Y294066D01*
Y294483D01*
X430313Y294899D01*
X429480D01*
X429064Y294483D01*
X44966Y219483D02*
X44550Y219899D01*
X43716D01*
X43300Y219483D01*
Y219066D01*
X43716Y218650D01*
X44550D01*
X44966Y218233D01*
Y217816D01*
X44550Y217400D01*
X43716D01*
X43300Y217816D01*
X45799Y217400D02*
X46632D01*
X46216D01*
Y219899D01*
X45799Y219483D01*
X47882Y216984D02*
X49548D01*
X50381Y217400D02*
X51214D01*
X50798D01*
Y219899D01*
X50381Y219483D01*
X52464D02*
X52880Y219899D01*
X53713D01*
X54130Y219483D01*
Y219066D01*
X53713Y218650D01*
X53297D01*
X53713D01*
X54130Y218233D01*
Y217816D01*
X53713Y217400D01*
X52880D01*
X52464Y217816D01*
X146566Y219483D02*
X146150Y219899D01*
X145317D01*
X144900Y219483D01*
Y219066D01*
X145317Y218650D01*
X146150D01*
X146566Y218233D01*
Y217816D01*
X146150Y217400D01*
X145317D01*
X144900Y217816D01*
X147399Y217400D02*
X148232D01*
X147816D01*
Y219899D01*
X147399Y219483D01*
X149482Y216984D02*
X151148D01*
X151981Y217400D02*
X152814D01*
X152398D01*
Y219899D01*
X151981Y219483D01*
X155313Y217400D02*
Y219899D01*
X154064Y218650D01*
X155730D01*
X221566Y219483D02*
X221150Y219899D01*
X220317D01*
X219900Y219483D01*
Y219066D01*
X220317Y218650D01*
X221150D01*
X221566Y218233D01*
Y217816D01*
X221150Y217400D01*
X220317D01*
X219900Y217816D01*
X222399Y217400D02*
X223232D01*
X222816D01*
Y219899D01*
X222399Y219483D01*
X224482Y216984D02*
X226148D01*
X226981Y217400D02*
X227814D01*
X227398D01*
Y219899D01*
X226981Y219483D01*
X230730Y219899D02*
X229064D01*
Y218650D01*
X229897Y219066D01*
X230313D01*
X230730Y218650D01*
Y217816D01*
X230313Y217400D01*
X229480D01*
X229064Y217816D01*
X296566Y219483D02*
X296150Y219899D01*
X295317D01*
X294900Y219483D01*
Y219066D01*
X295317Y218650D01*
X296150D01*
X296566Y218233D01*
Y217816D01*
X296150Y217400D01*
X295317D01*
X294900Y217816D01*
X297399Y217400D02*
X298232D01*
X297816D01*
Y219899D01*
X297399Y219483D01*
X299482Y216984D02*
X301148D01*
X301981Y217400D02*
X302814D01*
X302398D01*
Y219899D01*
X301981Y219483D01*
X305730Y219899D02*
X304897Y219483D01*
X304064Y218650D01*
Y217816D01*
X304480Y217400D01*
X305313D01*
X305730Y217816D01*
Y218233D01*
X305313Y218650D01*
X304064D01*
X371566Y219483D02*
X371150Y219899D01*
X370317D01*
X369900Y219483D01*
Y219066D01*
X370317Y218650D01*
X371150D01*
X371566Y218233D01*
Y217816D01*
X371150Y217400D01*
X370317D01*
X369900Y217816D01*
X372399Y217400D02*
X373232D01*
X372816D01*
Y219899D01*
X372399Y219483D01*
X374482Y216984D02*
X376148D01*
X376981Y217400D02*
X377814D01*
X377398D01*
Y219899D01*
X376981Y219483D01*
X379064Y219899D02*
X380730D01*
Y219483D01*
X379064Y217816D01*
Y217400D01*
X446566Y219483D02*
X446150Y219899D01*
X445317D01*
X444900Y219483D01*
Y219066D01*
X445317Y218650D01*
X446150D01*
X446566Y218233D01*
Y217816D01*
X446150Y217400D01*
X445317D01*
X444900Y217816D01*
X447399Y217400D02*
X448232D01*
X447816D01*
Y219899D01*
X447399Y219483D01*
X449482Y216984D02*
X451148D01*
X451981Y217400D02*
X452814D01*
X452398D01*
Y219899D01*
X451981Y219483D01*
X454064D02*
X454480Y219899D01*
X455313D01*
X455730Y219483D01*
Y219066D01*
X455313Y218650D01*
X455730Y218233D01*
Y217816D01*
X455313Y217400D01*
X454480D01*
X454064Y217816D01*
Y218233D01*
X454480Y218650D01*
X454064Y219066D01*
Y219483D01*
X454480Y218650D02*
X455313D01*
X55666Y145083D02*
X55250Y145499D01*
X54417D01*
X54000Y145083D01*
Y144666D01*
X54417Y144250D01*
X55250D01*
X55666Y143833D01*
Y143417D01*
X55250Y143000D01*
X54417D01*
X54000Y143417D01*
X56499Y143000D02*
X57332D01*
X56916D01*
Y145499D01*
X56499Y145083D01*
X58582Y142584D02*
X60248D01*
X61081Y143000D02*
X61914D01*
X61498D01*
Y145499D01*
X61081Y145083D01*
X63164Y143417D02*
X63580Y143000D01*
X64413D01*
X64830Y143417D01*
Y145083D01*
X64413Y145499D01*
X63580D01*
X63164Y145083D01*
Y144666D01*
X63580Y144250D01*
X64830D01*
X64463Y94212D02*
X66129D01*
X65296Y95045D02*
Y93379D01*
X81957Y94212D02*
X83623D01*
X168466Y144483D02*
X168050Y144899D01*
X167217D01*
X166800Y144483D01*
Y144066D01*
X167217Y143650D01*
X168050D01*
X168466Y143233D01*
Y142816D01*
X168050Y142400D01*
X167217D01*
X166800Y142816D01*
X169299Y142400D02*
X170132D01*
X169716D01*
Y144899D01*
X169299Y144483D01*
X171382Y141983D02*
X173048D01*
X175547Y142400D02*
X173881D01*
X175547Y144066D01*
Y144483D01*
X175131Y144899D01*
X174298D01*
X173881Y144483D01*
X176380D02*
X176797Y144899D01*
X177630D01*
X178046Y144483D01*
Y142816D01*
X177630Y142400D01*
X176797D01*
X176380Y142816D01*
Y144483D01*
X243466D02*
X243050Y144899D01*
X242216D01*
X241800Y144483D01*
Y144066D01*
X242216Y143650D01*
X243050D01*
X243466Y143233D01*
Y142816D01*
X243050Y142400D01*
X242216D01*
X241800Y142816D01*
X244299Y142400D02*
X245132D01*
X244716D01*
Y144899D01*
X244299Y144483D01*
X246382Y141983D02*
X248048D01*
X250547Y142400D02*
X248881D01*
X250547Y144066D01*
Y144483D01*
X250131Y144899D01*
X249298D01*
X248881Y144483D01*
X251380Y142400D02*
X252213D01*
X251797D01*
Y144899D01*
X251380Y144483D01*
X318466D02*
X318050Y144899D01*
X317216D01*
X316800Y144483D01*
Y144066D01*
X317216Y143650D01*
X318050D01*
X318466Y143233D01*
Y142816D01*
X318050Y142400D01*
X317216D01*
X316800Y142816D01*
X319299Y142400D02*
X320132D01*
X319716D01*
Y144899D01*
X319299Y144483D01*
X321382Y141983D02*
X323048D01*
X325547Y142400D02*
X323881D01*
X325547Y144066D01*
Y144483D01*
X325131Y144899D01*
X324298D01*
X323881Y144483D01*
X328046Y142400D02*
X326380D01*
X328046Y144066D01*
Y144483D01*
X327630Y144899D01*
X326797D01*
X326380Y144483D01*
X393466D02*
X393050Y144899D01*
X392216D01*
X391800Y144483D01*
Y144066D01*
X392216Y143650D01*
X393050D01*
X393466Y143233D01*
Y142816D01*
X393050Y142400D01*
X392216D01*
X391800Y142816D01*
X394299Y142400D02*
X395132D01*
X394716D01*
Y144899D01*
X394299Y144483D01*
X396382Y141983D02*
X398048D01*
X400547Y142400D02*
X398881D01*
X400547Y144066D01*
Y144483D01*
X400131Y144899D01*
X399298D01*
X398881Y144483D01*
X401380D02*
X401797Y144899D01*
X402630D01*
X403046Y144483D01*
Y144066D01*
X402630Y143650D01*
X402213D01*
X402630D01*
X403046Y143233D01*
Y142816D01*
X402630Y142400D01*
X401797D01*
X401380Y142816D01*
X468466Y144483D02*
X468050Y144899D01*
X467216D01*
X466800Y144483D01*
Y144066D01*
X467216Y143650D01*
X468050D01*
X468466Y143233D01*
Y142816D01*
X468050Y142400D01*
X467216D01*
X466800Y142816D01*
X469299Y142400D02*
X470132D01*
X469716D01*
Y144899D01*
X469299Y144483D01*
X471382Y141983D02*
X473048D01*
X475547Y142400D02*
X473881D01*
X475547Y144066D01*
Y144483D01*
X475131Y144899D01*
X474298D01*
X473881Y144483D01*
X477630Y142400D02*
Y144899D01*
X476380Y143650D01*
X478046D01*
X24666Y69083D02*
X24250Y69499D01*
X23416D01*
X23000Y69083D01*
Y68666D01*
X23416Y68250D01*
X24250D01*
X24666Y67833D01*
Y67417D01*
X24250Y67000D01*
X23416D01*
X23000Y67417D01*
X25499Y67000D02*
X26332D01*
X25916D01*
Y69499D01*
X25499Y69083D01*
X27582Y66584D02*
X29248D01*
X31747Y67000D02*
X30081D01*
X31747Y68666D01*
Y69083D01*
X31331Y69499D01*
X30498D01*
X30081Y69083D01*
X34246Y69499D02*
X32580D01*
Y68250D01*
X33413Y68666D01*
X33830D01*
X34246Y68250D01*
Y67417D01*
X33830Y67000D01*
X32997D01*
X32580Y67417D01*
X93466Y69483D02*
X93050Y69899D01*
X92216D01*
X91800Y69483D01*
Y69066D01*
X92216Y68650D01*
X93050D01*
X93466Y68233D01*
Y67817D01*
X93050Y67400D01*
X92216D01*
X91800Y67817D01*
X94299Y67400D02*
X95132D01*
X94716D01*
Y69899D01*
X94299Y69483D01*
X96382Y66983D02*
X98048D01*
X100547Y67400D02*
X98881D01*
X100547Y69066D01*
Y69483D01*
X100131Y69899D01*
X99298D01*
X98881Y69483D01*
X103046Y69899D02*
X102213Y69483D01*
X101380Y68650D01*
Y67817D01*
X101797Y67400D01*
X102630D01*
X103046Y67817D01*
Y68233D01*
X102630Y68650D01*
X101380D01*
X168466Y69483D02*
X168050Y69899D01*
X167217D01*
X166800Y69483D01*
Y69066D01*
X167217Y68650D01*
X168050D01*
X168466Y68233D01*
Y67817D01*
X168050Y67400D01*
X167217D01*
X166800Y67817D01*
X169299Y67400D02*
X170132D01*
X169716D01*
Y69899D01*
X169299Y69483D01*
X171382Y66983D02*
X173048D01*
X175547Y67400D02*
X173881D01*
X175547Y69066D01*
Y69483D01*
X175131Y69899D01*
X174298D01*
X173881Y69483D01*
X176380Y69899D02*
X178046D01*
Y69483D01*
X176380Y67817D01*
Y67400D01*
X243466Y69483D02*
X243050Y69899D01*
X242216D01*
X241800Y69483D01*
Y69066D01*
X242216Y68650D01*
X243050D01*
X243466Y68233D01*
Y67817D01*
X243050Y67400D01*
X242216D01*
X241800Y67817D01*
X244299Y67400D02*
X245132D01*
X244716D01*
Y69899D01*
X244299Y69483D01*
X246382Y66983D02*
X248048D01*
X250547Y67400D02*
X248881D01*
X250547Y69066D01*
Y69483D01*
X250131Y69899D01*
X249298D01*
X248881Y69483D01*
X251380D02*
X251797Y69899D01*
X252630D01*
X253046Y69483D01*
Y69066D01*
X252630Y68650D01*
X253046Y68233D01*
Y67817D01*
X252630Y67400D01*
X251797D01*
X251380Y67817D01*
Y68233D01*
X251797Y68650D01*
X251380Y69066D01*
Y69483D01*
X251797Y68650D02*
X252630D01*
X318466Y69483D02*
X318050Y69899D01*
X317216D01*
X316800Y69483D01*
Y69066D01*
X317216Y68650D01*
X318050D01*
X318466Y68233D01*
Y67817D01*
X318050Y67400D01*
X317216D01*
X316800Y67817D01*
X319299Y67400D02*
X320132D01*
X319716D01*
Y69899D01*
X319299Y69483D01*
X321382Y66983D02*
X323048D01*
X325547Y67400D02*
X323881D01*
X325547Y69066D01*
Y69483D01*
X325131Y69899D01*
X324298D01*
X323881Y69483D01*
X326380Y67817D02*
X326797Y67400D01*
X327630D01*
X328046Y67817D01*
Y69483D01*
X327630Y69899D01*
X326797D01*
X326380Y69483D01*
Y69066D01*
X326797Y68650D01*
X328046D01*
X443666Y69083D02*
X443250Y69499D01*
X442416D01*
X442000Y69083D01*
Y68666D01*
X442416Y68250D01*
X443250D01*
X443666Y67833D01*
Y67417D01*
X443250Y67000D01*
X442416D01*
X442000Y67417D01*
X444499Y67000D02*
X445332D01*
X444916D01*
Y69499D01*
X444499Y69083D01*
X446582Y66584D02*
X448248D01*
X449081Y69083D02*
X449498Y69499D01*
X450331D01*
X450747Y69083D01*
Y68666D01*
X450331Y68250D01*
X449914D01*
X450331D01*
X450747Y67833D01*
Y67417D01*
X450331Y67000D01*
X449498D01*
X449081Y67417D01*
X451580Y69083D02*
X451997Y69499D01*
X452830D01*
X453246Y69083D01*
Y67417D01*
X452830Y67000D01*
X451997D01*
X451580Y67417D01*
Y69083D01*
X451963Y19212D02*
X453629D01*
X452796Y20045D02*
Y18379D01*
X469457Y19212D02*
X471123D01*
X543000Y116000D02*
Y118499D01*
X544250D01*
X544666Y118083D01*
Y117250D01*
X544250Y116833D01*
X543000D01*
X543833D02*
X544666Y116000D01*
X545499Y118083D02*
X545916Y118499D01*
X546749D01*
X547165Y118083D01*
Y117666D01*
X546749Y117250D01*
X546332D01*
X546749D01*
X547165Y116833D01*
Y116417D01*
X546749Y116000D01*
X545916D01*
X545499Y116417D01*
X543000Y125000D02*
Y127499D01*
X544250D01*
X544666Y127083D01*
Y126250D01*
X544250Y125833D01*
X543000D01*
X543833D02*
X544666Y125000D01*
X546749D02*
Y127499D01*
X545499Y126250D01*
X547165D01*
X544666Y109083D02*
X544250Y109499D01*
X543417D01*
X543000Y109083D01*
Y107416D01*
X543417Y107000D01*
X544250D01*
X544666Y107416D01*
X545499Y107000D02*
X546332D01*
X545916D01*
Y109499D01*
X545499Y109083D01*
X497666Y232417D02*
Y234083D01*
X497250Y234499D01*
X496417D01*
X496000Y234083D01*
Y232417D01*
X496417Y232000D01*
X497250D01*
X496833Y232833D02*
X497666Y232000D01*
X497250D02*
X497666Y232417D01*
X498499Y232000D02*
X499332D01*
X498916D01*
Y234499D01*
X498499Y234083D01*
X496000Y223000D02*
Y225499D01*
X497250D01*
X497666Y225083D01*
Y224250D01*
X497250Y223833D01*
X496000D01*
X496833D02*
X497666Y223000D01*
X498499D02*
X499332D01*
X498916D01*
Y225499D01*
X498499Y225083D01*
D14*
X26963Y319712D02*
X29295D01*
X28129Y320878D02*
Y318546D01*
X51455Y319712D02*
X53787D01*
X101962D02*
X104295D01*
X103129Y320878D02*
Y318546D01*
X126455Y319712D02*
X128787D01*
X176962D02*
X179295D01*
X178129Y320878D02*
Y318546D01*
X201455Y319712D02*
X203787D01*
X251962D02*
X254295D01*
X253129Y320878D02*
Y318546D01*
X276455Y319712D02*
X278787D01*
X326962D02*
X329295D01*
X328129Y320878D02*
Y318546D01*
X351455Y319712D02*
X353787D01*
X401963D02*
X404295D01*
X403129Y320878D02*
Y318546D01*
X426455Y319712D02*
X428787D01*
X41025Y244712D02*
X43358D01*
X42191Y245878D02*
Y243546D01*
X65517Y244712D02*
X67850D01*
X130087D02*
X132420D01*
X131254Y245878D02*
Y243546D01*
X154580Y244712D02*
X156912D01*
X205087D02*
X207420D01*
X206254Y245878D02*
Y243546D01*
X229580Y244712D02*
X231912D01*
X280087D02*
X282420D01*
X281254Y245878D02*
Y243546D01*
X304580Y244712D02*
X306912D01*
X355087D02*
X357420D01*
X356254Y245878D02*
Y243546D01*
X379580Y244712D02*
X381912D01*
X430088D02*
X432420D01*
X431254Y245878D02*
Y243546D01*
X454580Y244712D02*
X456912D01*
X53525Y169712D02*
X55858D01*
X54691Y170878D02*
Y168546D01*
X78017Y169712D02*
X80350D01*
X155087D02*
X157420D01*
X156254Y170878D02*
Y168546D01*
X179580Y169712D02*
X181912D01*
X230087D02*
X232420D01*
X231254Y170878D02*
Y168546D01*
X254580Y169712D02*
X256912D01*
X305087D02*
X307420D01*
X306254Y170878D02*
Y168546D01*
X329580Y169712D02*
X331912D01*
X380087D02*
X382420D01*
X381254Y170878D02*
Y168546D01*
X404580Y169712D02*
X406912D01*
X455088D02*
X457420D01*
X456254Y170878D02*
Y168546D01*
X479580Y169712D02*
X481912D01*
X176962Y94712D02*
X179295D01*
X178129Y95878D02*
Y93546D01*
X201455Y94712D02*
X203787D01*
X251962D02*
X254295D01*
X253129Y95878D02*
Y93546D01*
X276455Y94712D02*
X278787D01*
X326962D02*
X329295D01*
X328129Y95878D02*
Y93546D01*
X351455Y94712D02*
X353787D01*
X401963D02*
X404295D01*
X403129Y95878D02*
Y93546D01*
X426455Y94712D02*
X428787D01*
X476963D02*
X479295D01*
X478129Y95878D02*
Y93546D01*
X501455Y94712D02*
X503787D01*
X26963Y19712D02*
X29295D01*
X28129Y20878D02*
Y18546D01*
X51455Y19712D02*
X53787D01*
X101962D02*
X104295D01*
X103129Y20878D02*
Y18546D01*
X126455Y19712D02*
X128787D01*
X176962D02*
X179295D01*
X178129Y20878D02*
Y18546D01*
X201455Y19712D02*
X203787D01*
X251962D02*
X254295D01*
X253129Y20878D02*
Y18546D01*
X276455Y19712D02*
X278787D01*
X326962D02*
X329295D01*
X328129Y20878D02*
Y18546D01*
X351455Y19712D02*
X353787D01*
M02*
