G04*
G04 #@! TF.GenerationSoftware,Altium Limited,Altium Designer,18.1.7 (191)*
G04*
G04 Layer_Color=32896*
%FSLAX25Y25*%
%MOIN*%
G70*
G01*
G75*
%ADD10C,0.00984*%
%ADD11C,0.00800*%
%ADD12C,0.00787*%
%ADD13C,0.00500*%
%ADD14C,0.01000*%
D10*
X558811Y69169D02*
G03*
X558811Y69169I-492J0D01*
G01*
D11*
X72962Y334963D02*
X74963Y336963D01*
X14963Y315963D02*
X15962Y314963D01*
X14963Y315963D02*
Y324962D01*
Y363963D02*
X15962Y364963D01*
X14963Y354962D02*
Y363963D01*
X70963Y334963D02*
X74963D01*
X70963Y336963D02*
X72962Y334963D01*
X70963Y336963D02*
X74963D01*
X63963Y314963D02*
X64963Y315963D01*
Y324962D01*
Y354962D02*
Y363963D01*
X63963Y364963D02*
X64963Y363963D01*
X15962Y314963D02*
X24962D01*
X72962Y336963D02*
Y343963D01*
X15962Y364963D02*
X24962D01*
X72962Y327962D02*
Y334963D01*
X54962Y314963D02*
X63963D01*
X54962Y364963D02*
X63963D01*
X6962Y327962D02*
Y331962D01*
X7963Y332962D01*
X5962Y334963D02*
X7963Y332962D01*
X5962Y334963D02*
X7963Y336963D01*
X5962Y338963D02*
X7963Y336963D01*
X5962Y338963D02*
X6962Y339963D01*
Y343963D01*
X81963Y339963D02*
Y343963D01*
X80963Y338963D02*
X81963Y339963D01*
X80963Y338963D02*
X82963Y336963D01*
X80963Y334963D02*
X82963Y336963D01*
X80963Y334963D02*
X82963Y332962D01*
X81963Y331962D02*
X82963Y332962D01*
X81963Y327962D02*
Y331962D01*
X129963Y364963D02*
X138962D01*
X129963Y314963D02*
X138962D01*
X147962Y327962D02*
Y334963D01*
X90962Y364963D02*
X99963D01*
X147962Y336963D02*
Y343963D01*
X90962Y314963D02*
X99963D01*
X138962Y364963D02*
X139962Y363963D01*
Y354962D02*
Y363963D01*
Y315963D02*
Y324962D01*
X138962Y314963D02*
X139962Y315963D01*
X145963Y336963D02*
X149962D01*
X145963D02*
X147962Y334963D01*
X145963D02*
X149962D01*
X89963Y354962D02*
Y363963D01*
X90962Y364963D01*
X89963Y315963D02*
Y324962D01*
Y315963D02*
X90962Y314963D01*
X147962Y334963D02*
X149962Y336963D01*
X222962Y334963D02*
X224962Y336963D01*
X164962Y315963D02*
X165963Y314963D01*
X164962Y315963D02*
Y324962D01*
Y363963D02*
X165963Y364963D01*
X164962Y354962D02*
Y363963D01*
X220963Y334963D02*
X224962D01*
X220963Y336963D02*
X222962Y334963D01*
X220963Y336963D02*
X224962D01*
X213963Y314963D02*
X214963Y315963D01*
Y324962D01*
Y354962D02*
Y363963D01*
X213963Y364963D02*
X214963Y363963D01*
X165963Y314963D02*
X174962D01*
X222962Y336963D02*
Y343963D01*
X165963Y364963D02*
X174962D01*
X222962Y327962D02*
Y334963D01*
X204962Y314963D02*
X213963D01*
X204962Y364963D02*
X213963D01*
X156963Y327962D02*
Y331962D01*
X157963Y332962D01*
X155963Y334963D02*
X157963Y332962D01*
X155963Y334963D02*
X157963Y336963D01*
X155963Y338963D02*
X157963Y336963D01*
X155963Y338963D02*
X156963Y339963D01*
Y343963D01*
X231962Y339963D02*
Y343963D01*
X230962Y338963D02*
X231962Y339963D01*
X230962Y338963D02*
X232962Y336963D01*
X230962Y334963D02*
X232962Y336963D01*
X230962Y334963D02*
X232962Y332962D01*
X231962Y331962D02*
X232962Y332962D01*
X231962Y327962D02*
Y331962D01*
X279962Y364963D02*
X288963D01*
X279962Y314963D02*
X288963D01*
X297962Y327962D02*
Y334963D01*
X240963Y364963D02*
X249962D01*
X297962Y336963D02*
Y343963D01*
X240963Y314963D02*
X249962D01*
X288963Y364963D02*
X289963Y363963D01*
Y354962D02*
Y363963D01*
Y315963D02*
Y324962D01*
X288963Y314963D02*
X289963Y315963D01*
X295963Y336963D02*
X299962D01*
X295963D02*
X297962Y334963D01*
X295963D02*
X299962D01*
X239963Y354962D02*
Y363963D01*
X240963Y364963D01*
X239963Y315963D02*
Y324962D01*
Y315963D02*
X240963Y314963D01*
X297962Y334963D02*
X299962Y336963D01*
X372962Y334963D02*
X374962Y336963D01*
X314963Y315963D02*
X315963Y314963D01*
X314963Y315963D02*
Y324962D01*
Y363963D02*
X315963Y364963D01*
X314963Y354962D02*
Y363963D01*
X370963Y334963D02*
X374962D01*
X370963Y336963D02*
X372962Y334963D01*
X370963Y336963D02*
X374962D01*
X363963Y314963D02*
X364963Y315963D01*
Y324962D01*
Y354962D02*
Y363963D01*
X363963Y364963D02*
X364963Y363963D01*
X315963Y314963D02*
X324962D01*
X372962Y336963D02*
Y343963D01*
X315963Y364963D02*
X324962D01*
X372962Y327962D02*
Y334963D01*
X354962Y314963D02*
X363963D01*
X354962Y364963D02*
X363963D01*
X306962Y327962D02*
Y331962D01*
X307962Y332962D01*
X305962Y334963D02*
X307962Y332962D01*
X305962Y334963D02*
X307962Y336963D01*
X305962Y338963D02*
X307962Y336963D01*
X305962Y338963D02*
X306962Y339963D01*
Y343963D01*
X381962Y339963D02*
Y343963D01*
X380962Y338963D02*
X381962Y339963D01*
X380962Y338963D02*
X382962Y336963D01*
X380962Y334963D02*
X382962Y336963D01*
X380962Y334963D02*
X382962Y332962D01*
X381962Y331962D02*
X382962Y332962D01*
X381962Y327962D02*
Y331962D01*
X429962Y364963D02*
X438963D01*
X429962Y314963D02*
X438963D01*
X447963Y327962D02*
Y334963D01*
X390963Y364963D02*
X399962D01*
X447963Y336963D02*
Y343963D01*
X390963Y314963D02*
X399962D01*
X438963Y364963D02*
X439962Y363963D01*
Y354962D02*
Y363963D01*
Y315963D02*
Y324962D01*
X438963Y314963D02*
X439962Y315963D01*
X445962Y336963D02*
X449963D01*
X445962D02*
X447963Y334963D01*
X445962D02*
X449963D01*
X389963Y354962D02*
Y363963D01*
X390963Y364963D01*
X389963Y315963D02*
Y324962D01*
Y315963D02*
X390963Y314963D01*
X447963Y334963D02*
X449963Y336963D01*
X87025Y259963D02*
X89025Y261963D01*
X29025Y240963D02*
X30025Y239963D01*
X29025Y240963D02*
Y249962D01*
Y288963D02*
X30025Y289963D01*
X29025Y279962D02*
Y288963D01*
X85025Y259963D02*
X89025D01*
X85025Y261963D02*
X87025Y259963D01*
X85025Y261963D02*
X89025D01*
X78025Y239963D02*
X79025Y240963D01*
Y249962D01*
Y279962D02*
Y288963D01*
X78025Y289963D02*
X79025Y288963D01*
X30025Y239963D02*
X39025D01*
X87025Y261963D02*
Y268963D01*
X30025Y289963D02*
X39025D01*
X87025Y252962D02*
Y259963D01*
X69025Y239963D02*
X78025D01*
X69025Y289963D02*
X78025D01*
X21025Y252962D02*
Y256962D01*
X22025Y257962D01*
X20025Y259963D02*
X22025Y257962D01*
X20025Y259963D02*
X22025Y261963D01*
X20025Y263963D02*
X22025Y261963D01*
X20025Y263963D02*
X21025Y264963D01*
Y268963D01*
X110088Y264963D02*
Y268963D01*
X109088Y263963D02*
X110088Y264963D01*
X109088Y263963D02*
X111088Y261963D01*
X109088Y259963D02*
X111088Y261963D01*
X109088Y259963D02*
X111088Y257962D01*
X110088Y256962D02*
X111088Y257962D01*
X110088Y252962D02*
Y256962D01*
X158088Y289963D02*
X167087D01*
X158088Y239963D02*
X167087D01*
X176087Y252962D02*
Y259963D01*
X119088Y289963D02*
X128087D01*
X176087Y261963D02*
Y268963D01*
X119088Y239963D02*
X128087D01*
X167087Y289963D02*
X168087Y288963D01*
Y279962D02*
Y288963D01*
Y240963D02*
Y249962D01*
X167087Y239963D02*
X168087Y240963D01*
X174088Y261963D02*
X178087D01*
X174088D02*
X176087Y259963D01*
X174088D02*
X178087D01*
X118087Y279962D02*
Y288963D01*
X119088Y289963D01*
X118087Y240963D02*
Y249962D01*
Y240963D02*
X119088Y239963D01*
X176087Y259963D02*
X178087Y261963D01*
X251087Y259963D02*
X253087Y261963D01*
X193087Y240963D02*
X194088Y239963D01*
X193087Y240963D02*
Y249962D01*
Y288963D02*
X194088Y289963D01*
X193087Y279962D02*
Y288963D01*
X249088Y259963D02*
X253087D01*
X249088Y261963D02*
X251087Y259963D01*
X249088Y261963D02*
X253087D01*
X242088Y239963D02*
X243088Y240963D01*
Y249962D01*
Y279962D02*
Y288963D01*
X242088Y289963D02*
X243088Y288963D01*
X194088Y239963D02*
X203087D01*
X251087Y261963D02*
Y268963D01*
X194088Y289963D02*
X203087D01*
X251087Y252962D02*
Y259963D01*
X233087Y239963D02*
X242088D01*
X233087Y289963D02*
X242088D01*
X185088Y252962D02*
Y256962D01*
X186088Y257962D01*
X184088Y259963D02*
X186088Y257962D01*
X184088Y259963D02*
X186088Y261963D01*
X184088Y263963D02*
X186088Y261963D01*
X184088Y263963D02*
X185088Y264963D01*
Y268963D01*
X260087Y264963D02*
Y268963D01*
X259087Y263963D02*
X260087Y264963D01*
X259087Y263963D02*
X261087Y261963D01*
X259087Y259963D02*
X261087Y261963D01*
X259087Y259963D02*
X261087Y257962D01*
X260087Y256962D02*
X261087Y257962D01*
X260087Y252962D02*
Y256962D01*
X308087Y289963D02*
X317088D01*
X308087Y239963D02*
X317088D01*
X326087Y252962D02*
Y259963D01*
X269088Y289963D02*
X278087D01*
X326087Y261963D02*
Y268963D01*
X269088Y239963D02*
X278087D01*
X317088Y289963D02*
X318088Y288963D01*
Y279962D02*
Y288963D01*
Y240963D02*
Y249962D01*
X317088Y239963D02*
X318088Y240963D01*
X324088Y261963D02*
X328087D01*
X324088D02*
X326087Y259963D01*
X324088D02*
X328087D01*
X268088Y279962D02*
Y288963D01*
X269088Y289963D01*
X268088Y240963D02*
Y249962D01*
Y240963D02*
X269088Y239963D01*
X326087Y259963D02*
X328087Y261963D01*
X401088Y259963D02*
X403088Y261963D01*
X343088Y240963D02*
X344088Y239963D01*
X343088Y240963D02*
Y249962D01*
Y288963D02*
X344088Y289963D01*
X343088Y279962D02*
Y288963D01*
X399088Y259963D02*
X403088D01*
X399088Y261963D02*
X401088Y259963D01*
X399088Y261963D02*
X403088D01*
X392088Y239963D02*
X393088Y240963D01*
Y249962D01*
Y279962D02*
Y288963D01*
X392088Y289963D02*
X393088Y288963D01*
X344088Y239963D02*
X353087D01*
X401088Y261963D02*
Y268963D01*
X344088Y289963D02*
X353087D01*
X401088Y252962D02*
Y259963D01*
X383087Y239963D02*
X392088D01*
X383087Y289963D02*
X392088D01*
X335087Y252962D02*
Y256962D01*
X336087Y257962D01*
X334087Y259963D02*
X336087Y257962D01*
X334087Y259963D02*
X336087Y261963D01*
X334087Y263963D02*
X336087Y261963D01*
X334087Y263963D02*
X335087Y264963D01*
Y268963D01*
X410087Y264963D02*
Y268963D01*
X409088Y263963D02*
X410087Y264963D01*
X409088Y263963D02*
X411088Y261963D01*
X409088Y259963D02*
X411088Y261963D01*
X409088Y259963D02*
X411088Y257962D01*
X410087Y256962D02*
X411088Y257962D01*
X410087Y252962D02*
Y256962D01*
X458087Y289963D02*
X467088D01*
X458087Y239963D02*
X467088D01*
X476088Y252962D02*
Y259963D01*
X419088Y289963D02*
X428088D01*
X476088Y261963D02*
Y268963D01*
X419088Y239963D02*
X428088D01*
X467088Y289963D02*
X468087Y288963D01*
Y279962D02*
Y288963D01*
Y240963D02*
Y249962D01*
X467088Y239963D02*
X468087Y240963D01*
X474087Y261963D02*
X478088D01*
X474087D02*
X476088Y259963D01*
X474087D02*
X478088D01*
X418087Y279962D02*
Y288963D01*
X419088Y289963D01*
X418087Y240963D02*
Y249962D01*
Y240963D02*
X419088Y239963D01*
X476088Y259963D02*
X478088Y261963D01*
X99525Y184962D02*
X101525Y186962D01*
X41525Y165963D02*
X42525Y164962D01*
X41525Y165963D02*
Y174962D01*
Y213963D02*
X42525Y214963D01*
X41525Y204962D02*
Y213963D01*
X97525Y184962D02*
X101525D01*
X97525Y186962D02*
X99525Y184962D01*
X97525Y186962D02*
X101525D01*
X90525Y164962D02*
X91525Y165963D01*
Y174962D01*
Y204962D02*
Y213963D01*
X90525Y214963D02*
X91525Y213963D01*
X42525Y164962D02*
X51525D01*
X99525Y186962D02*
Y193963D01*
X42525Y214963D02*
X51525D01*
X99525Y177963D02*
Y184962D01*
X81525Y164962D02*
X90525D01*
X81525Y214963D02*
X90525D01*
X33525Y177963D02*
Y181963D01*
X34525Y182963D01*
X32525Y184962D02*
X34525Y182963D01*
X32525Y184962D02*
X34525Y186962D01*
X32525Y188962D02*
X34525Y186962D01*
X32525Y188962D02*
X33525Y189962D01*
Y193963D01*
X135088Y189962D02*
Y193963D01*
X134088Y188962D02*
X135088Y189962D01*
X134088Y188962D02*
X136088Y186962D01*
X134088Y184962D02*
X136088Y186962D01*
X134088Y184962D02*
X136088Y182963D01*
X135088Y181963D02*
X136088Y182963D01*
X135088Y177963D02*
Y181963D01*
X183088Y214963D02*
X192087D01*
X183088Y164962D02*
X192087D01*
X201087Y177963D02*
Y184962D01*
X144088Y214963D02*
X153087D01*
X201087Y186962D02*
Y193963D01*
X144088Y164962D02*
X153087D01*
X192087Y214963D02*
X193087Y213963D01*
Y204962D02*
Y213963D01*
Y165963D02*
Y174962D01*
X192087Y164962D02*
X193087Y165963D01*
X199088Y186962D02*
X203087D01*
X199088D02*
X201087Y184962D01*
X199088D02*
X203087D01*
X143087Y204962D02*
Y213963D01*
X144088Y214963D01*
X143087Y165963D02*
Y174962D01*
Y165963D02*
X144088Y164962D01*
X201087Y184962D02*
X203087Y186962D01*
X276087Y184962D02*
X278087Y186962D01*
X218088Y165963D02*
X219088Y164962D01*
X218088Y165963D02*
Y174962D01*
Y213963D02*
X219088Y214963D01*
X218088Y204962D02*
Y213963D01*
X274088Y184962D02*
X278087D01*
X274088Y186962D02*
X276087Y184962D01*
X274088Y186962D02*
X278087D01*
X267088Y164962D02*
X268088Y165963D01*
Y174962D01*
Y204962D02*
Y213963D01*
X267088Y214963D02*
X268088Y213963D01*
X219088Y164962D02*
X228087D01*
X276087Y186962D02*
Y193963D01*
X219088Y214963D02*
X228087D01*
X276087Y177963D02*
Y184962D01*
X258087Y164962D02*
X267088D01*
X258087Y214963D02*
X267088D01*
X210087Y177963D02*
Y181963D01*
X211087Y182963D01*
X209087Y184962D02*
X211087Y182963D01*
X209087Y184962D02*
X211087Y186962D01*
X209087Y188962D02*
X211087Y186962D01*
X209087Y188962D02*
X210087Y189962D01*
Y193963D01*
X285087Y189962D02*
Y193963D01*
X284087Y188962D02*
X285087Y189962D01*
X284087Y188962D02*
X286087Y186962D01*
X284087Y184962D02*
X286087Y186962D01*
X284087Y184962D02*
X286087Y182963D01*
X285087Y181963D02*
X286087Y182963D01*
X285087Y177963D02*
Y181963D01*
X333087Y214963D02*
X342088D01*
X333087Y164962D02*
X342088D01*
X351087Y177963D02*
Y184962D01*
X294088Y214963D02*
X303087D01*
X351087Y186962D02*
Y193963D01*
X294088Y164962D02*
X303087D01*
X342088Y214963D02*
X343088Y213963D01*
Y204962D02*
Y213963D01*
Y165963D02*
Y174962D01*
X342088Y164962D02*
X343088Y165963D01*
X349088Y186962D02*
X353087D01*
X349088D02*
X351087Y184962D01*
X349088D02*
X353087D01*
X293088Y204962D02*
Y213963D01*
X294088Y214963D01*
X293088Y165963D02*
Y174962D01*
Y165963D02*
X294088Y164962D01*
X351087Y184962D02*
X353087Y186962D01*
X426088Y184962D02*
X428088Y186962D01*
X368088Y165963D02*
X369088Y164962D01*
X368088Y165963D02*
Y174962D01*
Y213963D02*
X369088Y214963D01*
X368088Y204962D02*
Y213963D01*
X424087Y184962D02*
X428088D01*
X424087Y186962D02*
X426088Y184962D01*
X424087Y186962D02*
X428088D01*
X417088Y164962D02*
X418087Y165963D01*
Y174962D01*
Y204962D02*
Y213963D01*
X417088Y214963D02*
X418087Y213963D01*
X369088Y164962D02*
X378087D01*
X426088Y186962D02*
Y193963D01*
X369088Y214963D02*
X378087D01*
X426088Y177963D02*
Y184962D01*
X408087Y164962D02*
X417088D01*
X408087Y214963D02*
X417088D01*
X360087Y177963D02*
Y181963D01*
X361087Y182963D01*
X359087Y184962D02*
X361087Y182963D01*
X359087Y184962D02*
X361087Y186962D01*
X359087Y188962D02*
X361087Y186962D01*
X359087Y188962D02*
X360087Y189962D01*
Y193963D01*
X435087Y189962D02*
Y193963D01*
X434088Y188962D02*
X435087Y189962D01*
X434088Y188962D02*
X436088Y186962D01*
X434088Y184962D02*
X436088Y186962D01*
X434088Y184962D02*
X436088Y182963D01*
X435087Y181963D02*
X436088Y182963D01*
X435087Y177963D02*
Y181963D01*
X483087Y214963D02*
X492088D01*
X483087Y164962D02*
X492088D01*
X501088Y177963D02*
Y184962D01*
X444088Y214963D02*
X453088D01*
X501088Y186962D02*
Y193963D01*
X444088Y164962D02*
X453088D01*
X492088Y214963D02*
X493087Y213963D01*
Y204962D02*
Y213963D01*
Y165963D02*
Y174962D01*
X492088Y164962D02*
X493087Y165963D01*
X499087Y186962D02*
X503088D01*
X499087D02*
X501088Y184962D01*
X499087D02*
X503088D01*
X443087Y204962D02*
Y213963D01*
X444088Y214963D01*
X443087Y165963D02*
Y174962D01*
Y165963D02*
X444088Y164962D01*
X501088Y184962D02*
X503088Y186962D01*
X51463Y83963D02*
X55462D01*
X56463Y82963D01*
X58463Y84962D01*
X60462Y82963D01*
X62463Y84962D01*
X63463Y83963D01*
X67462D01*
X124462Y96962D02*
Y135462D01*
X104963Y114962D02*
X124462D01*
X104963D02*
X124462D01*
X30463Y96962D02*
Y135462D01*
X94463Y85962D02*
X96463Y83963D01*
X52463Y90962D02*
X53462Y89963D01*
X52463Y90962D02*
Y99963D01*
Y138962D02*
X53462Y139962D01*
X52463Y129963D02*
Y138962D01*
X96463Y81963D02*
Y85962D01*
X94463Y81963D02*
X96463Y83963D01*
X94463Y81963D02*
Y85962D01*
X101462Y89963D02*
X102462Y90962D01*
Y99963D01*
Y129963D02*
Y138962D01*
X101462Y139962D02*
X102462Y138962D01*
X53462Y89963D02*
X62463D01*
X87463Y83963D02*
X94463D01*
X53462Y139962D02*
X62463D01*
X96463Y83963D02*
X103463D01*
X92462Y89963D02*
X101462D01*
X92462Y139962D02*
X101462D01*
X30463Y114962D02*
X49962D01*
X222962Y109962D02*
X224962Y111962D01*
X164962Y90962D02*
X165963Y89963D01*
X164962Y90962D02*
Y99963D01*
Y138962D02*
X165963Y139962D01*
X164962Y129963D02*
Y138962D01*
X220963Y109962D02*
X224962D01*
X220963Y111962D02*
X222962Y109962D01*
X220963Y111962D02*
X224962D01*
X213963Y89963D02*
X214963Y90962D01*
Y99963D01*
Y129963D02*
Y138962D01*
X213963Y139962D02*
X214963Y138962D01*
X165963Y89963D02*
X174962D01*
X222962Y111962D02*
Y118963D01*
X165963Y139962D02*
X174962D01*
X222962Y102963D02*
Y109962D01*
X204962Y89963D02*
X213963D01*
X204962Y139962D02*
X213963D01*
X156963Y102963D02*
Y106963D01*
X157963Y107963D01*
X155963Y109962D02*
X157963Y107963D01*
X155963Y109962D02*
X157963Y111962D01*
X155963Y113962D02*
X157963Y111962D01*
X155963Y113962D02*
X156963Y114962D01*
Y118963D01*
X231962Y114962D02*
Y118963D01*
X230962Y113962D02*
X231962Y114962D01*
X230962Y113962D02*
X232962Y111962D01*
X230962Y109962D02*
X232962Y111962D01*
X230962Y109962D02*
X232962Y107963D01*
X231962Y106963D02*
X232962Y107963D01*
X231962Y102963D02*
Y106963D01*
X279962Y139962D02*
X288963D01*
X279962Y89963D02*
X288963D01*
X297962Y102963D02*
Y109962D01*
X240963Y139962D02*
X249962D01*
X297962Y111962D02*
Y118963D01*
X240963Y89963D02*
X249962D01*
X288963Y139962D02*
X289963Y138962D01*
Y129963D02*
Y138962D01*
Y90962D02*
Y99963D01*
X288963Y89963D02*
X289963Y90962D01*
X295963Y111962D02*
X299962D01*
X295963D02*
X297962Y109962D01*
X295963D02*
X299962D01*
X239963Y129963D02*
Y138962D01*
X240963Y139962D01*
X239963Y90962D02*
Y99963D01*
Y90962D02*
X240963Y89963D01*
X297962Y109962D02*
X299962Y111962D01*
X372962Y109962D02*
X374962Y111962D01*
X314963Y90962D02*
X315963Y89963D01*
X314963Y90962D02*
Y99963D01*
Y138962D02*
X315963Y139962D01*
X314963Y129963D02*
Y138962D01*
X370963Y109962D02*
X374962D01*
X370963Y111962D02*
X372962Y109962D01*
X370963Y111962D02*
X374962D01*
X363963Y89963D02*
X364963Y90962D01*
Y99963D01*
Y129963D02*
Y138962D01*
X363963Y139962D02*
X364963Y138962D01*
X315963Y89963D02*
X324962D01*
X372962Y111962D02*
Y118963D01*
X315963Y139962D02*
X324962D01*
X372962Y102963D02*
Y109962D01*
X354962Y89963D02*
X363963D01*
X354962Y139962D02*
X363963D01*
X306962Y102963D02*
Y106963D01*
X307962Y107963D01*
X305962Y109962D02*
X307962Y107963D01*
X305962Y109962D02*
X307962Y111962D01*
X305962Y113962D02*
X307962Y111962D01*
X305962Y113962D02*
X306962Y114962D01*
Y118963D01*
X381962Y114962D02*
Y118963D01*
X380962Y113962D02*
X381962Y114962D01*
X380962Y113962D02*
X382962Y111962D01*
X380962Y109962D02*
X382962Y111962D01*
X380962Y109962D02*
X382962Y107963D01*
X381962Y106963D02*
X382962Y107963D01*
X381962Y102963D02*
Y106963D01*
X429962Y139962D02*
X438963D01*
X429962Y89963D02*
X438963D01*
X447963Y102963D02*
Y109962D01*
X390963Y139962D02*
X399962D01*
X447963Y111962D02*
Y118963D01*
X390963Y89963D02*
X399962D01*
X438963Y139962D02*
X439962Y138962D01*
Y129963D02*
Y138962D01*
Y90962D02*
Y99963D01*
X438963Y89963D02*
X439962Y90962D01*
X445962Y111962D02*
X449963D01*
X445962D02*
X447963Y109962D01*
X445962D02*
X449963D01*
X389963Y129963D02*
Y138962D01*
X390963Y139962D01*
X389963Y90962D02*
Y99963D01*
Y90962D02*
X390963Y89963D01*
X447963Y109962D02*
X449963Y111962D01*
X522963Y109962D02*
X524963Y111962D01*
X464962Y90962D02*
X465963Y89963D01*
X464962Y90962D02*
Y99963D01*
Y138962D02*
X465963Y139962D01*
X464962Y129963D02*
Y138962D01*
X520962Y109962D02*
X524963D01*
X520962Y111962D02*
X522963Y109962D01*
X520962Y111962D02*
X524963D01*
X513963Y89963D02*
X514962Y90962D01*
Y99963D01*
Y129963D02*
Y138962D01*
X513963Y139962D02*
X514962Y138962D01*
X465963Y89963D02*
X474963D01*
X522963Y111962D02*
Y118963D01*
X465963Y139962D02*
X474963D01*
X522963Y102963D02*
Y109962D01*
X504962Y89963D02*
X513963D01*
X504962Y139962D02*
X513963D01*
X456962Y102963D02*
Y106963D01*
X457963Y107963D01*
X455963Y109962D02*
X457963Y107963D01*
X455963Y109962D02*
X457963Y111962D01*
X455963Y113962D02*
X457963Y111962D01*
X455963Y113962D02*
X456962Y114962D01*
Y118963D01*
X6962Y39963D02*
Y43962D01*
X5962Y38963D02*
X6962Y39963D01*
X5962Y38963D02*
X7963Y36963D01*
X5962Y34962D02*
X7963Y36963D01*
X5962Y34962D02*
X7963Y32963D01*
X6962Y31962D02*
X7963Y32963D01*
X6962Y27962D02*
Y31962D01*
X54962Y64963D02*
X63963D01*
X54962Y14963D02*
X63963D01*
X72962Y27962D02*
Y34962D01*
X15962Y64963D02*
X24962D01*
X72962Y36963D02*
Y43962D01*
X15962Y14963D02*
X24962D01*
X63963Y64963D02*
X64963Y63963D01*
Y54962D02*
Y63963D01*
Y15962D02*
Y24962D01*
X63963Y14963D02*
X64963Y15962D01*
X70963Y36963D02*
X74963D01*
X70963D02*
X72962Y34962D01*
X70963D02*
X74963D01*
X14963Y54962D02*
Y63963D01*
X15962Y64963D01*
X14963Y15962D02*
Y24962D01*
Y15962D02*
X15962Y14963D01*
X72962Y34962D02*
X74963Y36963D01*
X147962Y34962D02*
X149962Y36963D01*
X89963Y15962D02*
X90962Y14963D01*
X89963Y15962D02*
Y24962D01*
Y63963D02*
X90962Y64963D01*
X89963Y54962D02*
Y63963D01*
X145963Y34962D02*
X149962D01*
X145963Y36963D02*
X147962Y34962D01*
X145963Y36963D02*
X149962D01*
X138962Y14963D02*
X139962Y15962D01*
Y24962D01*
Y54962D02*
Y63963D01*
X138962Y64963D02*
X139962Y63963D01*
X90962Y14963D02*
X99963D01*
X147962Y36963D02*
Y43962D01*
X90962Y64963D02*
X99963D01*
X147962Y27962D02*
Y34962D01*
X129963Y14963D02*
X138962D01*
X129963Y64963D02*
X138962D01*
X81963Y27962D02*
Y31962D01*
X82963Y32963D01*
X80963Y34962D02*
X82963Y32963D01*
X80963Y34962D02*
X82963Y36963D01*
X80963Y38963D02*
X82963Y36963D01*
X80963Y38963D02*
X81963Y39963D01*
Y43962D01*
X156963Y39963D02*
Y43962D01*
X155963Y38963D02*
X156963Y39963D01*
X155963Y38963D02*
X157963Y36963D01*
X155963Y34962D02*
X157963Y36963D01*
X155963Y34962D02*
X157963Y32963D01*
X156963Y31962D02*
X157963Y32963D01*
X156963Y27962D02*
Y31962D01*
X204962Y64963D02*
X213963D01*
X204962Y14963D02*
X213963D01*
X222962Y27962D02*
Y34962D01*
X165963Y64963D02*
X174962D01*
X222962Y36963D02*
Y43962D01*
X165963Y14963D02*
X174962D01*
X213963Y64963D02*
X214963Y63963D01*
Y54962D02*
Y63963D01*
Y15962D02*
Y24962D01*
X213963Y14963D02*
X214963Y15962D01*
X220963Y36963D02*
X224962D01*
X220963D02*
X222962Y34962D01*
X220963D02*
X224962D01*
X164962Y54962D02*
Y63963D01*
X165963Y64963D01*
X164962Y15962D02*
Y24962D01*
Y15962D02*
X165963Y14963D01*
X222962Y34962D02*
X224962Y36963D01*
X297962Y34962D02*
X299962Y36963D01*
X239963Y15962D02*
X240963Y14963D01*
X239963Y15962D02*
Y24962D01*
Y63963D02*
X240963Y64963D01*
X239963Y54962D02*
Y63963D01*
X295963Y34962D02*
X299962D01*
X295963Y36963D02*
X297962Y34962D01*
X295963Y36963D02*
X299962D01*
X288963Y14963D02*
X289963Y15962D01*
Y24962D01*
Y54962D02*
Y63963D01*
X288963Y64963D02*
X289963Y63963D01*
X240963Y14963D02*
X249962D01*
X297962Y36963D02*
Y43962D01*
X240963Y64963D02*
X249962D01*
X297962Y27962D02*
Y34962D01*
X279962Y14963D02*
X288963D01*
X279962Y64963D02*
X288963D01*
X231962Y27962D02*
Y31962D01*
X232962Y32963D01*
X230962Y34962D02*
X232962Y32963D01*
X230962Y34962D02*
X232962Y36963D01*
X230962Y38963D02*
X232962Y36963D01*
X230962Y38963D02*
X231962Y39963D01*
Y43962D01*
X306962Y39963D02*
Y43962D01*
X305962Y38963D02*
X306962Y39963D01*
X305962Y38963D02*
X307962Y36963D01*
X305962Y34962D02*
X307962Y36963D01*
X305962Y34962D02*
X307962Y32963D01*
X306962Y31962D02*
X307962Y32963D01*
X306962Y27962D02*
Y31962D01*
X354962Y64963D02*
X363963D01*
X354962Y14963D02*
X363963D01*
X372962Y27962D02*
Y34962D01*
X315963Y64963D02*
X324962D01*
X372962Y36963D02*
Y43962D01*
X315963Y14963D02*
X324962D01*
X363963Y64963D02*
X364963Y63963D01*
Y54962D02*
Y63963D01*
Y15962D02*
Y24962D01*
X363963Y14963D02*
X364963Y15962D01*
X370963Y36963D02*
X374962D01*
X370963D02*
X372962Y34962D01*
X370963D02*
X374962D01*
X314963Y54962D02*
Y63963D01*
X315963Y64963D01*
X314963Y15962D02*
Y24962D01*
Y15962D02*
X315963Y14963D01*
X372962Y34962D02*
X374962Y36963D01*
X438963Y8963D02*
X442963D01*
X443962Y7963D01*
X445962Y9962D01*
X447963Y7963D01*
X449963Y9962D01*
X450962Y8963D01*
X454962D01*
X511963Y21962D02*
Y60462D01*
X492462Y39963D02*
X511963D01*
X492462D02*
X511963D01*
X417963Y21962D02*
Y60462D01*
X481962Y10962D02*
X483962Y8963D01*
X439962Y15962D02*
X440963Y14963D01*
X439962Y15962D02*
Y24962D01*
Y63963D02*
X440963Y64963D01*
X439962Y54962D02*
Y63963D01*
X483962Y6962D02*
Y10962D01*
X481962Y6962D02*
X483962Y8963D01*
X481962Y6962D02*
Y10962D01*
X488963Y14963D02*
X489962Y15962D01*
Y24962D01*
Y54962D02*
Y63963D01*
X488963Y64963D02*
X489962Y63963D01*
X440963Y14963D02*
X449963D01*
X474963Y8963D02*
X481962D01*
X440963Y64963D02*
X449963D01*
X483962Y8963D02*
X490963D01*
X479962Y14963D02*
X488963D01*
X479962Y64963D02*
X488963D01*
X417963Y39963D02*
X437463D01*
X514521Y166230D02*
X517494Y158871D01*
X512696Y165493D02*
X514521Y166230D01*
X515669Y158134D02*
X517494Y158871D01*
D12*
X553693Y52240D02*
X555760D01*
Y54307D01*
X538240Y52240D02*
X540307D01*
X538240D02*
Y54307D01*
Y67693D02*
Y69760D01*
X540307D01*
X553693D02*
X555760D01*
Y67693D02*
Y69760D01*
X546803Y42425D02*
X547197D01*
X546803Y45575D02*
X547197D01*
X564575Y60803D02*
Y61197D01*
X561425Y60803D02*
Y61197D01*
X529425Y60803D02*
Y61197D01*
X532575Y60803D02*
Y61197D01*
Y85953D02*
Y86347D01*
X529425Y85953D02*
Y86347D01*
X515669Y158134D02*
X524444Y136414D01*
X503944Y187154D02*
X512696Y165493D01*
D13*
X556000Y74499D02*
Y72417D01*
X555583Y72000D01*
X554750D01*
X554334Y72417D01*
Y74499D01*
X553501Y72000D02*
X552668D01*
X553084D01*
Y74499D01*
X553501Y74083D01*
X558334Y44508D02*
X558750Y44924D01*
X559584D01*
X560000Y44508D01*
Y42842D01*
X559584Y42425D01*
X558750D01*
X558334Y42842D01*
X555835Y42425D02*
X557501D01*
X555835Y44091D01*
Y44508D01*
X556251Y44924D01*
X557084D01*
X557501Y44508D01*
X563334Y53083D02*
X563750Y53499D01*
X564583D01*
X565000Y53083D01*
Y51416D01*
X564583Y51000D01*
X563750D01*
X563334Y51416D01*
X562501Y53083D02*
X562084Y53499D01*
X561251D01*
X560835Y53083D01*
Y52666D01*
X561251Y52250D01*
X561668D01*
X561251D01*
X560835Y51833D01*
Y51416D01*
X561251Y51000D01*
X562084D01*
X562501Y51416D01*
X531334Y52083D02*
X531750Y52499D01*
X532584D01*
X533000Y52083D01*
Y50416D01*
X532584Y50000D01*
X531750D01*
X531334Y50416D01*
X529251Y50000D02*
Y52499D01*
X530501Y51250D01*
X528835D01*
X533000Y76000D02*
Y78499D01*
X531750D01*
X531334Y78083D01*
Y77250D01*
X531750Y76833D01*
X533000D01*
X532167D02*
X531334Y76000D01*
X528835D02*
X530501D01*
X528835Y77666D01*
Y78083D01*
X529251Y78499D01*
X530084D01*
X530501Y78083D01*
X64463Y94212D02*
X66129D01*
X65296Y95045D02*
Y93379D01*
X81957Y94212D02*
X83623D01*
X451963Y19212D02*
X453629D01*
X452796Y20045D02*
Y18379D01*
X469457Y19212D02*
X471123D01*
D14*
X26963Y319712D02*
X29295D01*
X28129Y320878D02*
Y318546D01*
X51455Y319712D02*
X53787D01*
X101962D02*
X104295D01*
X103129Y320878D02*
Y318546D01*
X126455Y319712D02*
X128787D01*
X176962D02*
X179295D01*
X178129Y320878D02*
Y318546D01*
X201455Y319712D02*
X203787D01*
X251962D02*
X254295D01*
X253129Y320878D02*
Y318546D01*
X276455Y319712D02*
X278787D01*
X326962D02*
X329295D01*
X328129Y320878D02*
Y318546D01*
X351455Y319712D02*
X353787D01*
X401963D02*
X404295D01*
X403129Y320878D02*
Y318546D01*
X426455Y319712D02*
X428787D01*
X41025Y244712D02*
X43358D01*
X42191Y245878D02*
Y243546D01*
X65517Y244712D02*
X67850D01*
X130087D02*
X132420D01*
X131254Y245878D02*
Y243546D01*
X154580Y244712D02*
X156912D01*
X205087D02*
X207420D01*
X206254Y245878D02*
Y243546D01*
X229580Y244712D02*
X231912D01*
X280087D02*
X282420D01*
X281254Y245878D02*
Y243546D01*
X304580Y244712D02*
X306912D01*
X355087D02*
X357420D01*
X356254Y245878D02*
Y243546D01*
X379580Y244712D02*
X381912D01*
X430088D02*
X432420D01*
X431254Y245878D02*
Y243546D01*
X454580Y244712D02*
X456912D01*
X53525Y169712D02*
X55858D01*
X54691Y170878D02*
Y168546D01*
X78017Y169712D02*
X80350D01*
X155087D02*
X157420D01*
X156254Y170878D02*
Y168546D01*
X179580Y169712D02*
X181912D01*
X230087D02*
X232420D01*
X231254Y170878D02*
Y168546D01*
X254580Y169712D02*
X256912D01*
X305087D02*
X307420D01*
X306254Y170878D02*
Y168546D01*
X329580Y169712D02*
X331912D01*
X380087D02*
X382420D01*
X381254Y170878D02*
Y168546D01*
X404580Y169712D02*
X406912D01*
X455088D02*
X457420D01*
X456254Y170878D02*
Y168546D01*
X479580Y169712D02*
X481912D01*
X176962Y94712D02*
X179295D01*
X178129Y95878D02*
Y93546D01*
X201455Y94712D02*
X203787D01*
X251962D02*
X254295D01*
X253129Y95878D02*
Y93546D01*
X276455Y94712D02*
X278787D01*
X326962D02*
X329295D01*
X328129Y95878D02*
Y93546D01*
X351455Y94712D02*
X353787D01*
X401963D02*
X404295D01*
X403129Y95878D02*
Y93546D01*
X426455Y94712D02*
X428787D01*
X476963D02*
X479295D01*
X478129Y95878D02*
Y93546D01*
X501455Y94712D02*
X503787D01*
X26963Y19712D02*
X29295D01*
X28129Y20878D02*
Y18546D01*
X51455Y19712D02*
X53787D01*
X101962D02*
X104295D01*
X103129Y20878D02*
Y18546D01*
X126455Y19712D02*
X128787D01*
X176962D02*
X179295D01*
X178129Y20878D02*
Y18546D01*
X201455Y19712D02*
X203787D01*
X251962D02*
X254295D01*
X253129Y20878D02*
Y18546D01*
X276455Y19712D02*
X278787D01*
X326962D02*
X329295D01*
X328129Y20878D02*
Y18546D01*
X351455Y19712D02*
X353787D01*
M02*
