G04*
G04 #@! TF.GenerationSoftware,Altium Limited,Altium Designer,18.1.7 (191)*
G04*
G04 Layer_Color=255*
%FSLAX25Y25*%
%MOIN*%
G70*
G01*
G75*
G04:AMPARAMS|DCode=15|XSize=20mil|YSize=40mil|CornerRadius=2mil|HoleSize=0mil|Usage=FLASHONLY|Rotation=90.000|XOffset=0mil|YOffset=0mil|HoleType=Round|Shape=RoundedRectangle|*
%AMROUNDEDRECTD15*
21,1,0.02000,0.03600,0,0,90.0*
21,1,0.01600,0.04000,0,0,90.0*
1,1,0.00400,0.01800,0.00800*
1,1,0.00400,0.01800,-0.00800*
1,1,0.00400,-0.01800,-0.00800*
1,1,0.00400,-0.01800,0.00800*
%
%ADD15ROUNDEDRECTD15*%
%ADD16R,0.03543X0.03937*%
%ADD17R,0.03827X0.03158*%
G04:AMPARAMS|DCode=38|XSize=59mil|YSize=59mil|CornerRadius=5.9mil|HoleSize=0mil|Usage=FLASHONLY|Rotation=270.000|XOffset=0mil|YOffset=0mil|HoleType=Round|Shape=RoundedRectangle|*
%AMROUNDEDRECTD38*
21,1,0.05900,0.04720,0,0,270.0*
21,1,0.04720,0.05900,0,0,270.0*
1,1,0.01180,-0.02360,-0.02360*
1,1,0.01180,-0.02360,0.02360*
1,1,0.01180,0.02360,0.02360*
1,1,0.01180,0.02360,-0.02360*
%
%ADD38ROUNDEDRECTD38*%
%ADD39C,0.06000*%
%ADD40C,0.16700*%
%ADD41C,0.07700*%
%ADD42C,0.07500*%
%ADD43C,0.08900*%
G04:AMPARAMS|DCode=44|XSize=59mil|YSize=59mil|CornerRadius=5.9mil|HoleSize=0mil|Usage=FLASHONLY|Rotation=0.000|XOffset=0mil|YOffset=0mil|HoleType=Round|Shape=RoundedRectangle|*
%AMROUNDEDRECTD44*
21,1,0.05900,0.04720,0,0,0.0*
21,1,0.04720,0.05900,0,0,0.0*
1,1,0.01180,0.02360,-0.02360*
1,1,0.01180,-0.02360,-0.02360*
1,1,0.01180,-0.02360,0.02360*
1,1,0.01180,0.02360,0.02360*
%
%ADD44ROUNDEDRECTD44*%
%ADD45C,0.05900*%
%ADD46C,0.17500*%
%ADD47C,0.13000*%
%ADD48C,0.06300*%
%ADD49O,0.15000X0.22000*%
G04:AMPARAMS|DCode=50|XSize=220mil|YSize=150mil|CornerRadius=0mil|HoleSize=0mil|Usage=FLASHONLY|Rotation=112.000|XOffset=0mil|YOffset=0mil|HoleType=Round|Shape=Round|*
%AMOVALD50*
21,1,0.07000,0.15000,0.00000,0.00000,112.0*
1,1,0.15000,0.01311,-0.03245*
1,1,0.15000,-0.01311,0.03245*
%
%ADD50OVALD50*%

%ADD51O,0.22000X0.15000*%
D15*
X545000Y72500D02*
D03*
Y75500D02*
D03*
Y80500D02*
D03*
Y83500D02*
D03*
D16*
X538150Y117500D02*
D03*
X531850Y117500D02*
D03*
X538150Y126500D02*
D03*
X531850Y126500D02*
D03*
X538150Y108500D02*
D03*
X531850Y108500D02*
D03*
X490650Y225000D02*
D03*
X484350D02*
D03*
D17*
X490484Y241240D02*
D03*
Y233760D02*
D03*
X483516Y237500D02*
D03*
D38*
X6962Y321962D02*
D03*
X72962D02*
D03*
X147962D02*
D03*
X81963D02*
D03*
X156963D02*
D03*
X222962D02*
D03*
X297962D02*
D03*
X231962D02*
D03*
X306962D02*
D03*
X372962D02*
D03*
X447963D02*
D03*
X381962D02*
D03*
X21025Y246962D02*
D03*
X87025D02*
D03*
X176087D02*
D03*
X110088D02*
D03*
X185088D02*
D03*
X251087D02*
D03*
X326087D02*
D03*
X260087D02*
D03*
X335087D02*
D03*
X401088D02*
D03*
X476088D02*
D03*
X410087D02*
D03*
X33525Y171962D02*
D03*
X99525D02*
D03*
X201087D02*
D03*
X135088D02*
D03*
X210087D02*
D03*
X276087D02*
D03*
X351087D02*
D03*
X285087D02*
D03*
X360087D02*
D03*
X426088D02*
D03*
X501088D02*
D03*
X435087D02*
D03*
X156963Y96962D02*
D03*
X222962D02*
D03*
X297962D02*
D03*
X231962D02*
D03*
X306962D02*
D03*
X372962D02*
D03*
X447963D02*
D03*
X381962D02*
D03*
X456962D02*
D03*
X522963D02*
D03*
X72962Y21962D02*
D03*
X6962D02*
D03*
X81963D02*
D03*
X147962D02*
D03*
X222962D02*
D03*
X156963D02*
D03*
X231962D02*
D03*
X297962D02*
D03*
X372962D02*
D03*
X306962D02*
D03*
D39*
X6962Y349962D02*
D03*
X34962Y319963D02*
D03*
X72962Y349962D02*
D03*
X147962D02*
D03*
X109962Y319963D02*
D03*
X81963Y349962D02*
D03*
X156963D02*
D03*
X184962Y319963D02*
D03*
X222962Y349962D02*
D03*
X297962D02*
D03*
X259963Y319963D02*
D03*
X231962Y349962D02*
D03*
X306962D02*
D03*
X334963Y319963D02*
D03*
X372962Y349962D02*
D03*
X447963D02*
D03*
X409963Y319963D02*
D03*
X381962Y349962D02*
D03*
X21025Y274962D02*
D03*
X49025Y244963D02*
D03*
X87025Y274962D02*
D03*
X176087D02*
D03*
X138087Y244963D02*
D03*
X110088Y274962D02*
D03*
X185088D02*
D03*
X213088Y244963D02*
D03*
X251087Y274962D02*
D03*
X326087D02*
D03*
X288088Y244963D02*
D03*
X260087Y274962D02*
D03*
X335087D02*
D03*
X363088Y244963D02*
D03*
X401088Y274962D02*
D03*
X476088D02*
D03*
X438088Y244963D02*
D03*
X410087Y274962D02*
D03*
X33525Y199962D02*
D03*
X61525Y169963D02*
D03*
X99525Y199962D02*
D03*
X201087D02*
D03*
X163087Y169963D02*
D03*
X135088Y199962D02*
D03*
X210087D02*
D03*
X238088Y169963D02*
D03*
X276087Y199962D02*
D03*
X351087D02*
D03*
X313088Y169963D02*
D03*
X285087Y199962D02*
D03*
X360087D02*
D03*
X388088Y169963D02*
D03*
X426088Y199962D02*
D03*
X501088D02*
D03*
X463088Y169963D02*
D03*
X435087Y199962D02*
D03*
X73462Y83963D02*
D03*
X72462Y94963D02*
D03*
X81463Y83963D02*
D03*
X156963Y124962D02*
D03*
X184962Y94963D02*
D03*
X222962Y124962D02*
D03*
X297962D02*
D03*
X259963Y94963D02*
D03*
X231962Y124962D02*
D03*
X306962D02*
D03*
X334963Y94963D02*
D03*
X372962Y124962D02*
D03*
X447963D02*
D03*
X409963Y94963D02*
D03*
X381962Y124962D02*
D03*
X456962D02*
D03*
X484963Y94963D02*
D03*
X522963Y124962D02*
D03*
X72962Y49962D02*
D03*
X34962Y19963D02*
D03*
X6962Y49962D02*
D03*
X81963D02*
D03*
X109962Y19963D02*
D03*
X147962Y49962D02*
D03*
X222962D02*
D03*
X184962Y19963D02*
D03*
X156963Y49962D02*
D03*
X231962D02*
D03*
X259963Y19963D02*
D03*
X297962Y49962D02*
D03*
X372962D02*
D03*
X334963Y19963D02*
D03*
X306962Y49962D02*
D03*
X460962Y8963D02*
D03*
X459963Y19963D02*
D03*
X468962Y8963D02*
D03*
D40*
X39963Y339963D02*
D03*
X114962D02*
D03*
X189962D02*
D03*
X264963D02*
D03*
X339963D02*
D03*
X414962D02*
D03*
X54025Y264963D02*
D03*
X143087D02*
D03*
X218088D02*
D03*
X293088D02*
D03*
X368088D02*
D03*
X443087D02*
D03*
X66525Y189962D02*
D03*
X168087D02*
D03*
X243088D02*
D03*
X318088D02*
D03*
X393088D02*
D03*
X468087D02*
D03*
X77463Y114962D02*
D03*
X189962D02*
D03*
X264963D02*
D03*
X339963D02*
D03*
X414962D02*
D03*
X489962D02*
D03*
X39963Y39963D02*
D03*
X114962D02*
D03*
X189962D02*
D03*
X264963D02*
D03*
X339963D02*
D03*
X464962D02*
D03*
D41*
X59962Y339963D02*
D03*
X134962D02*
D03*
X209963D02*
D03*
X284963D02*
D03*
X359963D02*
D03*
X434963D02*
D03*
X74025Y264963D02*
D03*
X163087D02*
D03*
X238088D02*
D03*
X313088D02*
D03*
X388088D02*
D03*
X463088D02*
D03*
X86525Y189962D02*
D03*
X188087D02*
D03*
X263088D02*
D03*
X338088D02*
D03*
X413088D02*
D03*
X488088D02*
D03*
X97462Y114962D02*
D03*
X209963D02*
D03*
X284963D02*
D03*
X359963D02*
D03*
X434963D02*
D03*
X509963D02*
D03*
X59962Y39963D02*
D03*
X134962D02*
D03*
X209963D02*
D03*
X284963D02*
D03*
X359963D02*
D03*
X484963D02*
D03*
D42*
X19963Y339963D02*
D03*
X94963D02*
D03*
X169963D02*
D03*
X244963D02*
D03*
X319963D02*
D03*
X394963D02*
D03*
X34025Y264963D02*
D03*
X123088D02*
D03*
X198088D02*
D03*
X273088D02*
D03*
X348088D02*
D03*
X423088D02*
D03*
X46525Y189962D02*
D03*
X148088D02*
D03*
X223088D02*
D03*
X298088D02*
D03*
X373088D02*
D03*
X448088D02*
D03*
X57463Y114962D02*
D03*
X169963D02*
D03*
X244963D02*
D03*
X319963D02*
D03*
X394963D02*
D03*
X469963D02*
D03*
X19963Y39963D02*
D03*
X94963D02*
D03*
X169963D02*
D03*
X244963D02*
D03*
X319963D02*
D03*
X444963D02*
D03*
D43*
X24962Y349962D02*
D03*
X49962Y359963D02*
D03*
X29963D02*
D03*
X54962Y349962D02*
D03*
X129963D02*
D03*
X104963Y359963D02*
D03*
X124962D02*
D03*
X99963Y349962D02*
D03*
X174962D02*
D03*
X199962Y359963D02*
D03*
X179963D02*
D03*
X204962Y349962D02*
D03*
X279962D02*
D03*
X254962Y359963D02*
D03*
X274962D02*
D03*
X249962Y349962D02*
D03*
X324962D02*
D03*
X349962Y359963D02*
D03*
X329962D02*
D03*
X354962Y349962D02*
D03*
X429962D02*
D03*
X404962Y359963D02*
D03*
X424963D02*
D03*
X399962Y349962D02*
D03*
X39025Y274962D02*
D03*
X64025Y284963D02*
D03*
X44025D02*
D03*
X69025Y274962D02*
D03*
X158088D02*
D03*
X133088Y284963D02*
D03*
X153087D02*
D03*
X128087Y274962D02*
D03*
X203087D02*
D03*
X228087Y284963D02*
D03*
X208087D02*
D03*
X233087Y274962D02*
D03*
X308087D02*
D03*
X283087Y284963D02*
D03*
X303087D02*
D03*
X278087Y274962D02*
D03*
X353087D02*
D03*
X378087Y284963D02*
D03*
X358087D02*
D03*
X383087Y274962D02*
D03*
X458087D02*
D03*
X433087Y284963D02*
D03*
X453088D02*
D03*
X428088Y274962D02*
D03*
X51525Y199962D02*
D03*
X76525Y209963D02*
D03*
X56525D02*
D03*
X81525Y199962D02*
D03*
X183088D02*
D03*
X158088Y209963D02*
D03*
X178087D02*
D03*
X153087Y199962D02*
D03*
X228087D02*
D03*
X253087Y209963D02*
D03*
X233087D02*
D03*
X258087Y199962D02*
D03*
X333087D02*
D03*
X308087Y209963D02*
D03*
X328087D02*
D03*
X303087Y199962D02*
D03*
X378087D02*
D03*
X403088Y209963D02*
D03*
X383087D02*
D03*
X408087Y199962D02*
D03*
X483087D02*
D03*
X458087Y209963D02*
D03*
X478088D02*
D03*
X453088Y199962D02*
D03*
X62463Y124962D02*
D03*
X87463Y134962D02*
D03*
X67462D02*
D03*
X92462Y124962D02*
D03*
X174962D02*
D03*
X199962Y134962D02*
D03*
X179963D02*
D03*
X204962Y124962D02*
D03*
X279962D02*
D03*
X254962Y134962D02*
D03*
X274962D02*
D03*
X249962Y124962D02*
D03*
X324962D02*
D03*
X349962Y134962D02*
D03*
X329962D02*
D03*
X354962Y124962D02*
D03*
X429962D02*
D03*
X404962Y134962D02*
D03*
X424963D02*
D03*
X399962Y124962D02*
D03*
X474963D02*
D03*
X499963Y134962D02*
D03*
X479962D02*
D03*
X504962Y124962D02*
D03*
X54962Y49962D02*
D03*
X29963Y59962D02*
D03*
X49962D02*
D03*
X24962Y49962D02*
D03*
X99963D02*
D03*
X124962Y59962D02*
D03*
X104963D02*
D03*
X129963Y49962D02*
D03*
X204962D02*
D03*
X179963Y59962D02*
D03*
X199962D02*
D03*
X174962Y49962D02*
D03*
X249962D02*
D03*
X274962Y59962D02*
D03*
X254962D02*
D03*
X279962Y49962D02*
D03*
X354962D02*
D03*
X329962Y59962D02*
D03*
X349962D02*
D03*
X324962Y49962D02*
D03*
X449963D02*
D03*
X474963Y59962D02*
D03*
X454962D02*
D03*
X479962Y49962D02*
D03*
D44*
X44962Y319963D02*
D03*
X119963D02*
D03*
X194963D02*
D03*
X269963D02*
D03*
X344963D02*
D03*
X419963D02*
D03*
X59025Y244963D02*
D03*
X148088D02*
D03*
X223088D02*
D03*
X298088D02*
D03*
X373088D02*
D03*
X448088D02*
D03*
X71525Y169963D02*
D03*
X173088D02*
D03*
X248088D02*
D03*
X323088D02*
D03*
X398088D02*
D03*
X473088D02*
D03*
X82463Y94963D02*
D03*
X109462Y83963D02*
D03*
X194963Y94963D02*
D03*
X269963D02*
D03*
X344963D02*
D03*
X419963D02*
D03*
X494963D02*
D03*
X44962Y19963D02*
D03*
X119963D02*
D03*
X194963D02*
D03*
X269963D02*
D03*
X344963D02*
D03*
X469963D02*
D03*
X496962Y8963D02*
D03*
D45*
X45463Y83963D02*
D03*
X432963Y8963D02*
D03*
D46*
X124363Y147462D02*
D03*
X30562D02*
D03*
X511863Y72462D02*
D03*
X418062D02*
D03*
D47*
X124363Y87463D02*
D03*
X30562D02*
D03*
X511863Y12462D02*
D03*
X418062D02*
D03*
D48*
X527859Y146074D02*
D03*
X524909Y153375D02*
D03*
X521959Y160675D02*
D03*
X519000Y168000D02*
D03*
X516041Y175325D02*
D03*
X513091Y182625D02*
D03*
D49*
X10836Y75765D02*
D03*
D50*
X556660Y95953D02*
D03*
D51*
X376978Y369089D02*
D03*
X77765D02*
D03*
M02*
