M48
;Layer_Color=9474304
;FILE_FORMAT=2:5
INCH,LZ
;TYPE=PLATED
T1F00S00C0.01000
T2F00S00C0.03150
T3F00S00C0.03900
T4F00S00C0.05900
T5F00S00C0.06700
T6F00S00C0.12000
T7F00S00C0.14000
T8F00S00C0.15700
%
T01
X00075Y00075
X0015
X00225
X003
X00375
X0045
X00525
X006
X00675
X0075
X00825
X009
X00975
X0105
X01125
X012
X01275
X0135
X01425
X015
X01425Y0015
X0135
X01275
X012
X01275Y00375
X015
Y00675
Y0075
Y00825
X01425
Y0075
Y00675
X0135
Y0075
Y00825
Y00975
X01425
X015
Y0105
Y01125
Y01275
X01425
Y012
X0135
Y01275
X01275
Y012
Y01125
X0135
X01425Y0105
X01275
X012
Y01125
Y012
Y01275
X01125
Y012
Y01125
Y0105
X0105
Y01125
Y012
Y01275
Y01425
X01125
Y015
X0105
X00975
Y01425
X009Y015
X00825
Y01425
X0075
Y015
X00675
Y01425
X006
Y015
X00525
Y01425
Y0135
X006
X00525Y01275
Y012
Y01125
Y0105
X006
X00675
X0075
X00825
X00975
Y009
X0105
X01125
Y0075
X012
X01275
X012Y00675
X01125
X0105
Y0075
X00975Y00825
X009
Y0075
X00825
Y00675
X0075
Y0075
X00675
Y00825
Y009
Y00975
Y01125
Y012
X0075Y01275
X00375
Y0135
X003
Y01275
Y012
X00375
Y01125
Y0105
Y00975
X003
Y0105
Y01125
X00225
Y012
Y01275
Y0135
X0015Y01275
Y012
Y01125
Y0105
X00225
Y00975
Y009
Y00825
Y0075
X003
X0045
X00525
X006
Y00825
Y009
X00525Y00975
Y00825
X00375
Y00675
X0045
X006
X00675
Y0045
X00825
X009
Y00525
Y00375
X0105
Y0045
X01125Y00525
X00975Y00675
X00825Y009
X0075Y00375
X00525
Y0015
X006
X00675
X0045
X00375
X003
X00225
X0015
X00075
Y003
X0015Y00375
Y0045
X003
Y00375
X00375Y00525
X00225Y00675
X0015Y006
X00075
Y009
X0015
Y00975
X00075
Y0105
Y01125
Y012
Y01275
X0135Y01425
X01425
X015
Y015
X01425
X0135
X01575
X0165
X01725
X018
X01875
Y01425
X018
X01725
X0165
X01575
X0165Y01275
Y012
Y01125
Y0105
X01725
X018
X01875
X02025
X02175
X02325
X024
X02475
X0255
X02625
X027
X02775
Y01125
X03
X03075
Y012
Y0105
X03
Y0075
X03075
Y00675
X03
X02925
Y0075
X0285
Y00675
X027
Y0075
Y00825
X02775
Y009
X0285
Y0084
X027Y009
X02625Y00825
Y0075
Y00675
Y00525
X0255Y0045
Y00375
X024
Y0045
X02325Y00375
X02175Y0045
Y00675
X0225
X02325
X024
X02475
Y0075
X0255
Y00825
X02475
X024
Y0075
X02325
Y00825
X0225
X022Y0084
X02175Y009
X021
Y00825
X02025
Y009
X0195
Y00825
Y0075
X02025
X02175
X0225
X021Y00675
X0195
X01875
Y0075
Y00825
X018Y0075
Y00675
X01875Y00525
X018Y0045
Y00375
X0165
Y0045
Y00525
X01575Y0045
Y00675
Y0075
X0165
Y00825
X01725
X01575
Y0105
Y01125
Y012
X018
Y01125
X01875Y01275
X02175Y012
X02325
X024
Y01275
Y01425
X02475
X0255
X02625
X027
Y015
X02775
X0285
Y01425
X03
X03075
Y015
X03
X02625
X0255
X02475
X024
X02325
Y01425
X0225
Y015
X021
Y01425
X02025Y015
X02325Y01125
X024
X0255
Y012
X02625Y01275
X02775Y00375
X02925Y0045
X03075Y00375
Y00075
X03
X02925
Y0015
X0285
Y00075
X02775
Y0015
X027
Y00075
X02625
X0255
X02475
X024
X02325
X0225
X02175
Y0015
X021
Y00075
X02025
Y0015
X0195
Y00075
X01875
X018
X01725
X0165
X01575
X02025Y00375
X0315
Y0045
X033
Y00375
X03525
X03675
X0375
X03825
X039
Y0045
X03975
Y00525
X0405
X042
X04275
X0435
X04425
Y0045
X0435
Y00375
Y003
X04425
X045
X04575
X0465
Y0015
X045Y00225
X04425
Y0015
X045Y00075
X04275
Y0015
X0435Y00225
X04275Y003
Y00375
Y0045
X042
Y00375
X04125
Y0045
X0405Y00375
Y00225
X04125
X042
X0405Y0015
Y00075
X03975
Y0015
Y00225
X039
Y0015
Y00075
X03825
Y0015
X0375
X03675Y00225
Y00075
X036
Y0015
X03525
Y00075
X0345
Y0015
X03375Y00075
X033
X03225
X0315
Y00675
X03225
Y0075
X033
X03375Y00675
X0345
X036
X03675
X0375
X03825
X039
X03975
X0405
Y0075
X03975
X039
X03825
X0375
X03675
X036
Y0084
Y009
X03525
X0345
Y0105
X03525
Y01125
X03675Y012
X03825
X039
Y01275
Y01425
X03975
X0405
X04125
X042
Y015
X04275
X0435
Y01425
X045
X04575
X0465
Y015
X04575
X045
X0465Y01275
Y012
Y01125
Y0105
X04575
Y01125
Y012
X045Y01125
Y0105
X04275
Y01125
X042Y0105
X04125
X0405
Y01125
Y012
X04125Y01275
Y015
X0405
X03975
X039
X03825
Y01425
X0375
Y015
X036
Y01425
X03525Y015
X0345
Y01425
X03375
Y015
X033
Y01425
X03225
Y015
X0315
Y01425
Y01275
Y012
Y01125
Y0105
X03225
X033
X03375
X033Y01125
Y012
X03375Y01275
X03675Y0105
X03825
X039
X03975
X039Y01125
X03825
X042Y009
X04275
X0435
Y0084
X04425Y0075
X045
X04575
X0465
Y00675
Y006
Y00525
X04575Y00675
X045
X04425
X0435
X0454962Y0086
X045Y00375
X039Y00525
X03825
Y0045
X0375
X03675
X03375Y00525
X0315Y0075
X04725
X048
X04875
Y00675
Y006
Y00525
Y0045
X05025
X051
X05175
X0525
X05325
Y00375
X054
X05475
X055Y0039963
X0555Y00375
X05625
Y0045
X05544Y00444
X0558Y00495
X0563Y0054
Y0068
X057Y00675
Y0075
Y00825
X05625
X0542276Y0087
X05364Y0083963
X0534696Y0081
X0539323Y0078
X0544835Y0063165
Y0058835
X0549165
Y0063165
X05345Y005785
X0539Y0048
X054Y003
X05475
X0555
Y00225
Y0015
X05475
Y00225
X054
Y0015
Y00075
X05475
X05325
Y0015
Y00225
Y003
X0525
Y00375
X05175
Y003
Y00225
X0525
Y0015
Y00075
X05025
Y0015
Y00225
X051
Y003
Y00375
X05025
Y003
X04875
Y00225
Y0015
Y00075
X048
Y0015
Y00225
Y003
Y00375
X04725Y003
Y00675
X048
X05025Y006
Y00525
X051
X05175Y006
X0527Y0068
X0522963Y0083963
X05175Y009
Y00975
X051
Y009
X05025
Y00975
Y01125
X0495Y009
X048Y0105
X04725
X048Y012
X04875Y01275
Y0135
Y01425
X0495
Y015
X04875
X048
Y01425
X04725
Y015
X054
Y01425
Y0135
X05475
Y01275
Y012
X0555
Y01125
X05475
Y0105
X054Y01125
X0534Y0094226
X054Y01575
X05325Y0165
Y01725
X0525
Y018
Y01875
Y0195
X05175
Y02025
Y021
X051
Y02175
Y0225
Y02325
X05025
Y024
Y02475
X0495
Y0255
Y02625
Y027
X04875
Y02775
Y0285
X048
Y02925
Y03
Y03075
X04725
Y03
Y02925
Y0285
X048Y02775
Y027
Y02625
X04875
Y0255
Y02475
X0495Y024
Y02325
Y0225
X0496Y02195
X05025Y02175
Y0225
Y021
X051Y02025
Y0195
Y01875
X05175
X05025
Y0195
X0495
Y01875
Y01725
X051
Y0165
X05175Y01575
X04875
X048
Y0165
X04725
Y01575
X04875Y021
X048Y02175
Y02325
Y0255
X04725
Y02625
Y027
X0465Y0285
Y02925
Y03
X04575
Y03075
X045
Y03
Y02925
X04575
X04425
Y03
X0435
Y03075
X04275
Y03
Y02925
X0435
X04425Y0285
Y02775
X042
Y027
X04125
Y02625
Y0255
X042
X04275
X0435
X045
X04575
X0465
Y02475
Y02325
Y0225
Y02175
Y021
Y02025
X04575Y0195
X04425
Y02025
Y02175
X045
X04575
Y0225
Y02325
X045
Y0225
X04425
Y02325
X0435
Y0225
Y02175
X04275
Y0225
Y02325
X042
X04125Y0225
Y02175
X0405Y0225
Y02325
X03975
Y0225
Y02175
X039
Y0225
Y02325
Y024
X03825
Y02325
Y0225
Y02175
X0375
Y0225
Y02325
Y024
X03675Y02475
Y02325
Y0225
Y02175
X036
Y0225
Y02325
X03525
Y0225
Y02175
X03375
Y0225
X033
Y02325
X03225
Y0225
Y02175
X0315
Y0225
Y02325
Y024
X0345Y02325
Y027
Y02775
Y02925
X03525
X036
X03675
Y03
X0375
X03825
X039
X03975
X0405
X04125
X042
Y03075
X04125
X0405
X03975
Y02925
X0405
X04125
X042
X0405Y02775
Y02625
Y0255
X03975
Y027
X03825Y02625
X03675Y02775
Y03075
X0375
X03825
X039Y02925
X036Y03
Y03075
X03525
Y03
X0345
Y03075
X03375
Y03
Y02925
X033
Y03
Y03075
X03225
X0315Y03
Y02925
X033Y02775
X03375Y027
Y02625
X033
X03225Y02025
X0315
X033Y01875
X0345Y0195
X036
X03675
Y02025
Y01875
X036
X03825
Y0195
X039Y02025
X03975
X0405Y01875
X04275
Y018
X0435
X04425Y01875
X045Y01575
X04575
X0465
X0435
X04275
X042
Y0165
X04125
Y01575
X0405
Y0165
X03975
Y01575
X039
X03825
X0375
X036
X03525
X0345
Y0165
X03375
Y01575
X033
Y0165
X03225
Y01575
X0315
X04425Y02475
X04575Y02625
X03075
Y024
Y02325
Y0225
Y02175
X03
Y0225
Y02325
Y024
X02925Y02475
Y02325
Y0225
Y02175
X0285
Y0225
Y02325
X02775
Y0225
Y02175
X02625
Y0225
X0255
Y02325
X02475
Y0225
Y02175
X024
Y0225
Y02325
Y024
X02325
Y02325
Y0225
Y02175
X0225
Y0225
Y02325
Y024
X02175Y02475
Y02325
Y0225
Y02175
X021
Y0225
Y02325
X02025
Y0225
Y02175
X01875
Y0225
X018
Y02325
X01725
Y0225
X0165Y02325
Y024
X01575
Y0225
Y02175
X0165
Y02025
X01575Y0195
Y01875
Y01575
X0165
X01725
X018
X0195
X02025
X021
X0225
X02325
X024
X02475
X0255
X02625
X027
X02775
X0285
X03
X03075
Y01875
Y0195
X02925
Y02025
Y01875
X0285
Y0195
X02775Y01875
X0255
Y0165
X02625
X027
X02475
Y02025
X024
X02325Y0195
Y01875
X02175
Y0195
Y02025
X021Y0195
Y01875
X02025
X0195Y0165
X01875
X01725
X0195Y02325
Y027
Y02775
Y02925
X02025
X021
X02175
Y03
Y03075
X021
Y03
X02025
Y03075
X0195
Y03
X01875
Y03075
X018
Y03
Y02925
X01875
X01725
Y03
Y03075
X0165
Y03
Y02925
X01575Y03
Y03075
Y02625
X018
X01875
Y027
X018Y02775
X02175
X02325Y02625
X0255
X02625
Y027
X027
Y02775
Y02925
X02775
X0285
X02925
Y03
X03
X03075
Y03075
X03
X02925
X0285
Y03
X02775
Y03075
X027
Y03
X02625
Y03075
X0255
Y03
Y02925
X02625
X02475
Y03
Y03075
X024
Y03
Y02925
X02325Y03
Y03075
X0255Y02775
X02475Y027
X02925Y02775
X027Y02325
X015
Y0225
Y02175
X01425
Y0225
Y02325
X0135
Y0225
Y02175
X01275
Y0225
Y02325
X012
Y0225
Y02175
X01125
Y0225
Y02325
X0105
Y0225
Y02175
X00975
Y0225
Y02325
Y02475
X0105
Y02625
X01125
Y027
X0105Y02775
X00975
Y027
X009
Y02625
X00825
Y027
Y02925
X009
X00975
X0105
X01125
Y03
Y03075
X0105
Y03
X00975
Y03075
X009
Y03
X00825
Y03075
X00675
Y03
X006
Y03075
X00525
Y03
Y02925
X0045
Y03
Y03075
X00375
Y03
Y02925
Y0285
X003
Y02925
Y03
Y03075
X0015
Y03
Y02925
Y0285
Y02775
Y027
Y02625
Y0255
X00225
Y024
X003
X00375
X0045
X00525
X006
X00675
X0075
Y02325
X00825
Y0225
Y02175
X0075Y0225
X00675
Y02325
X006
Y0225
Y02175
X00675
Y02025
X0045
Y021
Y02175
X00525
Y0225
Y02325
X0045
Y0225
X00375
Y02325
X003
Y0225
Y02175
X00375
Y021
Y02025
Y0195
X003
Y01875
Y018
X00375
Y0165
Y01575
X00525
X006
X00675
X0075
X00825
X009
X00975
X0105
X01125
X012
X01275
X0135
X01425
X015
X01425Y01875
Y0195
Y02025
X0135Y0195
Y01875
X01275
Y02025
X012
Y0195
X01125
Y02025
X0105
Y0195
Y01875
X01125
Y01725
X012
X01275
X0105
X00975Y01875
Y0195
X009Y0165
X00825
X0075
X00675
X006
X00525
Y01875
X003Y021
Y0165
X00225
Y01725
Y01575
X0015Y024
Y02475
X00075
Y0255
Y02625
Y027
Y02775
Y0285
Y02925
Y03
Y03075
X003Y02775
Y027
X0045
X00525Y02775
X00675Y02625
X00075Y024
X01425Y02775
Y02925
Y03
Y03075
X0135
Y03
Y02925
X01275
Y03
Y03075
Y03225
X0135
X01425
X015Y03375
X01425Y0345
Y03675
X015
X0135
X012
X01125
X0105
X00975
X009Y03525
Y0345
Y03375
X00825
Y0345
X0075Y03375
X00675Y0345
X00525Y03375
Y0315
X006
X00675
X0045
X00375
X003
X0015
X00075
Y033
X0015Y03375
Y0345
Y03525
Y036
X00225
Y03675
X003
X00375
X0045
X006
X00375Y03525
X003Y0345
Y03375
X0015Y03675
X00075
Y036
X01125Y03525
X0105Y0345
Y03375
X01275
X01575
X0165
Y0345
Y03525
Y03675
X01725
X018
X01875
X0195
X021
X02175
X0225
X02325
X024
X02475
X0255
X02625
X027
X0285
X02925
X03
X03075
Y0345
Y03375
X03
X02925Y0345
Y03225
X0285
X02775
Y03375
X0255
Y0345
X02625Y03525
X024
Y0345
Y03375
X02325
Y0345
X0225Y03375
X02175Y0345
Y03225
X021
X02025
Y03375
X018
Y0345
X01875Y03525
X01575Y0345
Y03675
X0195Y0315
X027
X0315Y03375
Y0345
Y03525
Y03675
X03225
X033
X03375
X0345
X036
X039
X03975
X0405
X04125
X042
X04275
X0435
X04425
X045
Y036
X04575
Y03525
Y0345
Y03375
X0465
Y033
Y03225
Y0315
X04575Y03225
Y033
X045
Y03375
Y0345
X04425
Y03375
Y033
Y03225
Y0315
X045
X0435Y03225
Y033
X04275
Y03375
Y0315
X042
X0405Y033
X03975
X039
Y03375
Y0345
Y03525
X03825Y0345
Y03375
Y033
X0375
Y03375
X03675Y0345
Y033
Y03225
X036
X03525
Y03375
X033
Y0345
X03375Y03525
X0345Y0315
X0405Y0345
X04125Y03525
Y036
X0435
X04425
X04725Y03225
Y0315
T02
X0527859Y0146074
X0524909Y0153375
X0521959Y0160675
X0519Y0168
X0516041Y0175325
X0513091Y0182625
T03
X0006962Y0021962
Y0049962
X0034962Y0019963
X0044962
X0072962Y0021962
X0081963
Y0049962
X0072962
X0073462Y0083963
X0081463
X0082463Y0094963
X0072462
X0045463Y0083963
X0109462
X0109962Y0019963
X0119963
X0147962Y0021962
Y0049962
X0156963
Y0021962
X0184962Y0019963
X0194963
X0222962Y0021962
X0231962
Y0049962
X0222962
Y0096962
X0231962
Y0124962
X0222962
X0194963Y0094963
X0184962
X0156963Y0096962
Y0124962
X0259963Y0094963
X0269963
X0297962Y0096962
X0306962
Y0124962
X0297962
Y0049962
X0306962
Y0021962
X0297962
X0269963Y0019963
X0259963
X0334963
X0344963
X0372962Y0021962
Y0049962
Y0096962
X0381962
Y0124962
X0372962
X0344963Y0094963
X0334963
X0409963
X0419963
X0447963Y0096962
X0456962
Y0124962
X0447963
X0459963Y0019963
X0460962Y0008963
X0432963
X0468962
X0469963Y0019963
X0496962Y0008963
X0494963Y0094963
X0484963
X0522963Y0096962
Y0124962
X0501088Y0171962
Y0199962
X0473088Y0169963
X0476088Y0246962
Y0274962
X0448088Y0244963
X0438088
X0410087Y0246962
X0401088
Y0274962
X0410087
X0373088Y0244963
X0363088
X0335087Y0246962
X0326087
Y0274962
X0335087
X0351087Y0199962
X0360087
Y0171962
X0351087
X0323088Y0169963
X0313088
X0388088
X0398088
X0426088Y0171962
X0435087
Y0199962
X0426088
X0463088Y0169963
X0285087Y0171962
X0276087
Y0199962
X0285087
X0288088Y0244963
X0298088
X0260087Y0246962
X0251087
Y0274962
X0260087
X0223088Y0244963
X0213088
X0185088Y0246962
X0176087
Y0274962
X0185088
X0201087Y0199962
X0210087
Y0171962
X0201087
X0173088Y0169963
X0163087
X0238088
X0248088
X0135088Y0171962
Y0199962
X0099525
Y0171962
X0071525Y0169963
X0061525
X0033525Y0171962
Y0199962
X0021025Y0246962
Y0274962
X0049025Y0244963
X0059025
X0087025Y0246962
X0110088
Y0274962
X0087025
X0138087Y0244963
X0148088
X0147962Y0321962
Y0349962
X0119963Y0319963
X0109962
X0081963Y0321962
X0072962
Y0349962
X0081963
X0044962Y0319963
X0034962
X0006962Y0321962
Y0349962
X0156963
Y0321962
X0184962Y0319963
X0194963
X0222962Y0321962
X0231962
Y0349962
X0222962
X0259963Y0319963
X0269963
X0297962Y0321962
X0306962
Y0349962
X0297962
X0334963Y0319963
X0344963
X0372962Y0321962
X0381962
Y0349962
X0372962
X0409963Y0319963
X0419963
X0447963Y0321962
Y0349962
T04
X0024962Y0049962
X0029963Y0059962
X0049962
X0054962Y0049962
X0099963
X0104963Y0059962
X0124962
X0129963Y0049962
X0092462Y0124962
X0087463Y0134962
X0067462
X0062463Y0124962
X0174962
X0179963Y0134962
X0199962
X0204962Y0124962
X0249962
X0254962Y0134962
X0274962
X0279962Y0124962
X0274962Y0059962
X0279962Y0049962
X0249962
X0254962Y0059962
X0199962
X0204962Y0049962
X0174962
X0179963Y0059962
X0329962
X0324962Y0049962
X0354962
X0349962Y0059962
X0354962Y0124962
X0349962Y0134962
X0329962
X0324962Y0124962
X0399962
X0404962Y0134962
X0424963
X0429962Y0124962
X0454962Y0059962
X0449963Y0049962
X0479962
X0474963Y0059962
Y0124962
X0479962Y0134962
X0499963
X0504962Y0124962
X0483087Y0199962
X0478088Y0209963
X0458087
X0453088Y0199962
X0408087
X0403088Y0209963
X0383087
X0378087Y0199962
X0333087
X0328087Y0209963
X0353087Y0274962
X0358087Y0284963
X0378087
X0383087Y0274962
X0428088
X0433087Y0284963
X0453088
X0458087Y0274962
X0308087
X0303087Y0284963
X0283087
X0278087Y0274962
X0233087
X0228087Y0284963
X0208087
X0203087Y0274962
X0158088
Y0209963
X0178087
X0183088Y0199962
X0228087
X0233087Y0209963
X0253087
X0258087Y0199962
X0303087
X0308087Y0209963
X0153087Y0199962
X0081525
X0076525Y0209963
X0056525
X0051525Y0199962
X0039025Y0274962
X0044025Y0284963
X0064025
X0069025Y0274962
X0128087
X0133088Y0284963
X0153087
X0129963Y0349962
X0124962Y0359963
X0104963
X0099963Y0349962
X0054962
X0049962Y0359963
X0029963
X0024962Y0349962
X0174962
X0179963Y0359963
X0199962
X0204962Y0349962
X0249962
X0254962Y0359963
X0274962
X0279962Y0349962
X0324962
X0329962Y0359963
X0349962
X0354962Y0349962
X0399962
X0404962Y0359963
X0424963
X0429962Y0349962
T05
X0019963Y0039963
X0059962
X0094963
X0134962
X0097462Y0114962
X0057463
X0169963
X0209963
X0244963
X0284963
Y0039963
X0244963
X0209963
X0169963
X0319963
X0359963
Y0114962
X0394963
X0434963
X0444963Y0039963
X0319963Y0114962
X0469963
X0509963
X0484963Y0039963
X0488088Y0189962
X0448088
X0413088
X0373088
X0338088
X0348088Y0264963
X0313088
X0388088
X0423088
X0463088
X0273088
X0238088
X0198088
X0163087
X0188087Y0189962
X0223088
X0263088
X0298088
X0148088
X0086525
X0046525
X0034025Y0264963
X0074025
X0123088
X0134962Y0339963
X0094963
X0059962
X0019963
X0169963
X0209963
X0244963
X0284963
X0319963
X0359963
X0394963
X0434963
T06
X0030562Y0087463
X0124363
X0418062Y0012462
X0511863
T07
X0010836Y0075765
X055666Y0095953
X0077765Y0369089
X0376978
T08
X0039963Y0039963
X0114962
X0077463Y0114962
X0124363Y0147462
X0030562
X0189962Y0114962
X0264963
Y0039963
X0189962
X0339963
Y0114962
X0414962
X0418062Y0072462
X0464962Y0039963
X0511863Y0072462
X0489962Y0114962
X0468087Y0189962
X0393088
X0318088
X0368088Y0264963
X0443087
X0293088
X0218088
X0243088Y0189962
X0168087
X0143087Y0264963
X0054025
X0066525Y0189962
X0039963Y0339963
X0114962
X0189962
X0264963
X0339963
X0414962
M30
