M48
;Layer_Color=9474304
;FILE_FORMAT=2:5
INCH,LZ
;TYPE=PLATED
T1F00S00C0.01000
T2F00S00C0.03150
T3F00S00C0.03900
T4F00S00C0.05900
T5F00S00C0.06700
T6F00S00C0.12000
T7F00S00C0.14000
T8F00S00C0.15700
%
T01
X00125Y00125
X0025
X00375
X005
X00625
X0075
X00875
X01
X01125
X0125
X01375
X015
Y00375
X01375Y0025
X0125
X01125
X01
X00875
Y00375
X0075
X00625Y0025
X005
X00375
X0025
X00125
Y00625
X0025Y0075
X005
X00625
X0075
X00875
X01125
X0125
X01375
X015
Y00875
X01375
Y01125
X015
Y0125
X01375
X0125
Y01125
X01125
Y0125
X01
Y015
X01125
X01375
X015
X00875
X0075
X00625
X005
Y01375
Y0125
Y01125
Y01
X00375
Y01125
Y0125
Y01375
X0025
Y0125
Y01125
Y01
X00125
Y01125
Y0125
X00625Y00875
X01
X01625
X0175
X02
X02125
X022Y0084
X0225Y0075
X02375
X025
X02625
Y00875
X0275
X0285Y0084
X02875Y0075
X03
Y00875
Y01125
Y015
X02875
X0275
X02625
X025
X02375
X0225
X02125
X02
X01875
X0175
X01625
Y0125
Y01125
Y0075
X01875
X02
X02375Y00875
X025
X02375Y01125
Y0125
Y00375
Y0025
X025
X02625
X0275
X02875
Y00125
X03
X0275
X02625
X025
X02375
X0225
X02125
Y0025
X02
Y00125
X01875
Y0025
X0175
Y00125
X01625
Y0025
Y00375
X03125
Y0025
X0325
X03375
X035
X03625
Y00125
X0375
X03875
X04
Y0025
X04125
Y00375
X0425
X04375
Y005
X0425
X04
X03875
Y00375
X0375
Y0075
X03875
X04
Y00875
X03875
X0375
X036Y0084
X03625Y0075
X035Y00875
X03375
X0325
Y0075
X03125
Y00875
Y01125
Y0125
Y015
X0325
X03375
X035
X03625
X0375
X03875
X04
X04125
X0425
X04375
X045
X04625
Y0125
Y01125
Y01
X0454962Y0086
X045Y00875
Y0075
X04625
Y00625
X0435Y0084
X04375Y01
X045Y01125
X03875
Y0125
X04375Y0025
X045
Y00125
X04375
X035
X03375
X0325
X03125
X04875
Y0025
X05
X05125
X0525
X05375
X055
Y00375
X0555Y0044
X05485Y00485
X0540037Y0047962
X0539Y0043
X05375Y00375
X0525
X05125
Y005
X05
Y00625
X04875
Y0075
X0475
Y01
X04875
X05
X05125
X0522963Y0083963
X05364
X0534696Y0081
X0539323Y0078
X0542552Y0086376
X0534Y0094226
X05308Y00675
X05345Y005785
X0544835Y0058835
X0549165
Y0063165
X0544835
X0563Y0068
Y0054
X05625Y00375
X055Y00125
X05375
X0525
X05Y00375
X04875Y005
Y01375
Y015
X0475
X05125
Y01375
X055Y0125
Y01125
X05375Y01625
X05125
Y01875
X0525
X05125Y02
Y02125
Y0225
X05
X0496Y02195
X05Y02125
X04875
Y02375
X05
Y025
X04875
Y02625
Y0275
Y02875
X0475
Y03
Y02625
Y0225
Y0175
X04875
Y01625
X0475
X05Y01875
X04625Y02
Y0225
X045
Y02375
X04375
Y025
X0425
Y02375
Y0225
X04375
X04125
X04
Y02375
X03875
Y025
X0375
Y02375
Y0225
X03875
Y02
Y0175
X04
X04125
Y01625
X0425
X045
X04625
Y0175
X045
X04Y01625
X03875
X0375
Y0175
X03625Y01875
Y0225
Y02375
Y025
X035
Y02375
Y0225
X03375
X0325
Y02375
X03125
Y025
Y0225
Y02
Y0175
X0325
X03375
Y01625
X035
X0325
X03125
X03375Y02625
X03625Y0275
Y03
X0375
X03875
X04
X04125
X0425
X04375
X045
X04625
Y02875
Y025
X04375Y0275
X04125Y02625
X035Y03
X03375
X0325
X03125
X03
X02875
X0275
X02625
X025
X02375
X02125
X02
X01875
X0175
X01625
Y025
Y02375
X0175
Y0225
X01875
X02
X02125
X0225
X02375
X025
X02625
X0275
X02875
X03
Y02375
Y025
X02875
Y02375
X0275
Y025
X02625Y02625
X02875Y0275
X025Y02375
X02375
Y025
X0225
Y02375
X02125
Y025
X02
Y02375
X01875Y02625
X02125Y0275
Y01875
X0225Y0175
X02375
X025
X02625
Y01625
X0275
X03
Y0175
X02875Y01875
X025Y01625
X02375
X0225
X02
X01875
Y0175
X0175Y01625
X01625
Y0175
Y02
Y0225
X02375Y02
X015Y0225
Y02375
Y025
X01375
Y02375
Y0225
X0125
Y02375
Y025
X01125Y02625
Y02375
Y0225
X01
Y02375
Y025
Y0275
Y03
X01125
X0125
X01375
Y0275
X00875Y02625
Y02375
Y0225
X0075
Y02375
Y025
X00625
Y02375
Y0225
X005
Y02375
Y025
X00375
Y02375
Y0225
Y02125
X005
X00625Y02
Y0175
X0075
X00875
Y01625
X01
X01125
X0125
X01375
X015
Y0175
X01375Y01875
X0125Y02
X01125
Y01875
Y0175
X0125
X01Y01875
X0075Y01625
X00625
X005
Y0175
X00375Y01625
X0025
Y0175
Y01875
Y02
Y02125
Y0225
Y02375
X00125
Y025
Y02625
Y0275
Y02875
X0025
X00375
Y03
X005
X00625
X00875
X005Y0275
X0025Y03
X00125
Y03125
X0025
X00375
X005
X00625
Y0325
X005
X00375
X0025
X00125
Y035
Y03625
X00875Y035
Y03375
Y0325
X01
X01125
X0125
X01375
Y03125
X0125
X01125
X01
X00875
X0075Y03375
X015
X01625
Y035
Y0325
X0175
X01875
X02
X02125
Y03125
X02
X01875
X0175
X01625
X02375
X025
X02625
Y0325
X0275
X02875
X03Y03375
X025Y0325
X02375
Y03375
Y035
X0225Y03375
X03125
Y035
Y0325
X0325
X03375
X035
X03625
Y03125
X0375
X03875
X04
X04125
X0425
X045
X04625
Y0325
Y03375
Y035
X045Y03625
X04375
X04125
Y0325
X04
X03875
Y03375
Y035
X0375Y03375
X035Y03125
X04375Y0325
X045Y03375
X0475Y03125
T02
X0527859Y0146074
X0524909Y0153375
X0521959Y0160675
X0519Y0168
X0516041Y0175325
X0513091Y0182625
T03
X0006962Y0021962
Y0049962
X0034962Y0019963
X0044962
X0072962Y0021962
X0081963
Y0049962
X0072962
X0073462Y0083963
X0081463
X0082463Y0094963
X0072462
X0045463Y0083963
X0109462
X0109962Y0019963
X0119963
X0147962Y0021962
Y0049962
X0156963
Y0021962
X0184962Y0019963
X0194963
X0222962Y0021962
X0231962
Y0049962
X0222962
Y0096962
X0231962
Y0124962
X0222962
X0194963Y0094963
X0184962
X0156963Y0096962
Y0124962
X0259963Y0094963
X0269963
X0297962Y0096962
X0306962
Y0124962
X0297962
Y0049962
X0306962
Y0021962
X0297962
X0269963Y0019963
X0259963
X0334963
X0344963
X0372962Y0021962
Y0049962
Y0096962
X0381962
Y0124962
X0372962
X0344963Y0094963
X0334963
X0409963
X0419963
X0447963Y0096962
X0456962
Y0124962
X0447963
X0459963Y0019963
X0460962Y0008963
X0432963
X0468962
X0469963Y0019963
X0496962Y0008963
X0494963Y0094963
X0484963
X0522963Y0096962
Y0124962
X0501088Y0171962
Y0199962
X0473088Y0169963
X0476088Y0246962
Y0274962
X0448088Y0244963
X0438088
X0410087Y0246962
X0401088
Y0274962
X0410087
X0373088Y0244963
X0363088
X0335087Y0246962
X0326087
Y0274962
X0335087
X0351087Y0199962
X0360087
Y0171962
X0351087
X0323088Y0169963
X0313088
X0388088
X0398088
X0426088Y0171962
X0435087
Y0199962
X0426088
X0463088Y0169963
X0285087Y0171962
X0276087
Y0199962
X0285087
X0288088Y0244963
X0298088
X0260087Y0246962
X0251087
Y0274962
X0260087
X0223088Y0244963
X0213088
X0185088Y0246962
X0176087
Y0274962
X0185088
X0201087Y0199962
X0210087
Y0171962
X0201087
X0173088Y0169963
X0163087
X0238088
X0248088
X0135088Y0171962
Y0199962
X0099525
Y0171962
X0071525Y0169963
X0061525
X0033525Y0171962
Y0199962
X0021025Y0246962
Y0274962
X0049025Y0244963
X0059025
X0087025Y0246962
X0110088
Y0274962
X0087025
X0138087Y0244963
X0148088
X0147962Y0321962
Y0349962
X0119963Y0319963
X0109962
X0081963Y0321962
X0072962
Y0349962
X0081963
X0044962Y0319963
X0034962
X0006962Y0321962
Y0349962
X0156963
Y0321962
X0184962Y0319963
X0194963
X0222962Y0321962
X0231962
Y0349962
X0222962
X0259963Y0319963
X0269963
X0297962Y0321962
X0306962
Y0349962
X0297962
X0334963Y0319963
X0344963
X0372962Y0321962
X0381962
Y0349962
X0372962
X0409963Y0319963
X0419963
X0447963Y0321962
Y0349962
T04
X0024962Y0049962
X0029963Y0059962
X0049962
X0054962Y0049962
X0099963
X0104963Y0059962
X0124962
X0129963Y0049962
X0092462Y0124962
X0087463Y0134962
X0067462
X0062463Y0124962
X0174962
X0179963Y0134962
X0199962
X0204962Y0124962
X0249962
X0254962Y0134962
X0274962
X0279962Y0124962
X0274962Y0059962
X0279962Y0049962
X0249962
X0254962Y0059962
X0199962
X0204962Y0049962
X0174962
X0179963Y0059962
X0329962
X0324962Y0049962
X0354962
X0349962Y0059962
X0354962Y0124962
X0349962Y0134962
X0329962
X0324962Y0124962
X0399962
X0404962Y0134962
X0424963
X0429962Y0124962
X0454962Y0059962
X0449963Y0049962
X0479962
X0474963Y0059962
Y0124962
X0479962Y0134962
X0499963
X0504962Y0124962
X0483087Y0199962
X0478088Y0209963
X0458087
X0453088Y0199962
X0408087
X0403088Y0209963
X0383087
X0378087Y0199962
X0333087
X0328087Y0209963
X0353087Y0274962
X0358087Y0284963
X0378087
X0383087Y0274962
X0428088
X0433087Y0284963
X0453088
X0458087Y0274962
X0308087
X0303087Y0284963
X0283087
X0278087Y0274962
X0233087
X0228087Y0284963
X0208087
X0203087Y0274962
X0158088
Y0209963
X0178087
X0183088Y0199962
X0228087
X0233087Y0209963
X0253087
X0258087Y0199962
X0303087
X0308087Y0209963
X0153087Y0199962
X0081525
X0076525Y0209963
X0056525
X0051525Y0199962
X0039025Y0274962
X0044025Y0284963
X0064025
X0069025Y0274962
X0128087
X0133088Y0284963
X0153087
X0129963Y0349962
X0124962Y0359963
X0104963
X0099963Y0349962
X0054962
X0049962Y0359963
X0029963
X0024962Y0349962
X0174962
X0179963Y0359963
X0199962
X0204962Y0349962
X0249962
X0254962Y0359963
X0274962
X0279962Y0349962
X0324962
X0329962Y0359963
X0349962
X0354962Y0349962
X0399962
X0404962Y0359963
X0424963
X0429962Y0349962
T05
X0019963Y0039963
X0059962
X0094963
X0134962
X0097462Y0114962
X0057463
X0169963
X0209963
X0244963
X0284963
Y0039963
X0244963
X0209963
X0169963
X0319963
X0359963
Y0114962
X0394963
X0434963
X0444963Y0039963
X0319963Y0114962
X0469963
X0509963
X0484963Y0039963
X0488088Y0189962
X0448088
X0413088
X0373088
X0338088
X0348088Y0264963
X0313088
X0388088
X0423088
X0463088
X0273088
X0238088
X0198088
X0163087
X0188087Y0189962
X0223088
X0263088
X0298088
X0148088
X0086525
X0046525
X0034025Y0264963
X0074025
X0123088
X0134962Y0339963
X0094963
X0059962
X0019963
X0169963
X0209963
X0244963
X0284963
X0319963
X0359963
X0394963
X0434963
T06
X0030562Y0087463
X0124363
X0418062Y0012462
X0511863
T07
X0010836Y0075765
X055666Y0095953
X0077765Y0369089
X0376978
T08
X0039963Y0039963
X0114962
X0077463Y0114962
X0124363Y0147462
X0030562
X0189962Y0114962
X0264963
Y0039963
X0189962
X0339963
Y0114962
X0414962
X0418062Y0072462
X0464962Y0039963
X0511863Y0072462
X0489962Y0114962
X0468087Y0189962
X0393088
X0318088
X0368088Y0264963
X0443087
X0293088
X0218088
X0243088Y0189962
X0168087
X0143087Y0264963
X0054025
X0066525Y0189962
X0039963Y0339963
X0114962
X0189962
X0264963
X0339963
X0414962
M30
