G04*
G04 #@! TF.GenerationSoftware,Altium Limited,Altium Designer,18.1.7 (191)*
G04*
G04 Layer_Color=16711935*
%FSLAX25Y25*%
%MOIN*%
G70*
G01*
G75*
%ADD19R,0.04143X0.04537*%
G04:AMPARAMS|DCode=21|XSize=65mil|YSize=65mil|CornerRadius=8.9mil|HoleSize=0mil|Usage=FLASHONLY|Rotation=270.000|XOffset=0mil|YOffset=0mil|HoleType=Round|Shape=RoundedRectangle|*
%AMROUNDEDRECTD21*
21,1,0.06500,0.04720,0,0,270.0*
21,1,0.04720,0.06500,0,0,270.0*
1,1,0.01780,-0.02360,-0.02360*
1,1,0.01780,-0.02360,0.02360*
1,1,0.01780,0.02360,0.02360*
1,1,0.01780,0.02360,-0.02360*
%
%ADD21ROUNDEDRECTD21*%
%ADD22C,0.06600*%
%ADD23C,0.17300*%
%ADD24C,0.08300*%
%ADD25C,0.08100*%
%ADD26C,0.09500*%
G04:AMPARAMS|DCode=27|XSize=65mil|YSize=65mil|CornerRadius=8.9mil|HoleSize=0mil|Usage=FLASHONLY|Rotation=0.000|XOffset=0mil|YOffset=0mil|HoleType=Round|Shape=RoundedRectangle|*
%AMROUNDEDRECTD27*
21,1,0.06500,0.04720,0,0,0.0*
21,1,0.04720,0.06500,0,0,0.0*
1,1,0.01780,0.02360,-0.02360*
1,1,0.01780,-0.02360,-0.02360*
1,1,0.01780,-0.02360,0.02360*
1,1,0.01780,0.02360,0.02360*
%
%ADD27ROUNDEDRECTD27*%
%ADD28C,0.06500*%
%ADD29C,0.18100*%
%ADD30C,0.13600*%
%ADD31C,0.06900*%
%ADD32O,0.15600X0.22600*%
G04:AMPARAMS|DCode=33|XSize=226mil|YSize=156mil|CornerRadius=0mil|HoleSize=0mil|Usage=FLASHONLY|Rotation=112.000|XOffset=0mil|YOffset=0mil|HoleType=Round|Shape=Round|*
%AMOVALD33*
21,1,0.07000,0.15600,0.00000,0.00000,112.0*
1,1,0.15600,0.01311,-0.03245*
1,1,0.15600,-0.01311,0.03245*
%
%ADD33OVALD33*%

%ADD34O,0.22600X0.15600*%
%ADD35C,0.01200*%
%ADD57R,0.11033X0.11033*%
%ADD58O,0.01387X0.03947*%
%ADD59O,0.03947X0.01387*%
%ADD60R,0.04537X0.04143*%
D19*
X543850Y44000D02*
D03*
X550150D02*
D03*
D21*
X6962Y321962D02*
D03*
X72962D02*
D03*
X147962D02*
D03*
X81963D02*
D03*
X156963D02*
D03*
X222962D02*
D03*
X297962D02*
D03*
X231962D02*
D03*
X306962D02*
D03*
X372962D02*
D03*
X447963D02*
D03*
X381962D02*
D03*
X21025Y246962D02*
D03*
X87025D02*
D03*
X176087D02*
D03*
X110088D02*
D03*
X185088D02*
D03*
X251087D02*
D03*
X326087D02*
D03*
X260087D02*
D03*
X335087D02*
D03*
X401088D02*
D03*
X476088D02*
D03*
X410087D02*
D03*
X33525Y171962D02*
D03*
X99525D02*
D03*
X201087D02*
D03*
X135088D02*
D03*
X210087D02*
D03*
X276087D02*
D03*
X351087D02*
D03*
X285087D02*
D03*
X360087D02*
D03*
X426088D02*
D03*
X501088D02*
D03*
X435087D02*
D03*
X156963Y96962D02*
D03*
X222962D02*
D03*
X297962D02*
D03*
X231962D02*
D03*
X306962D02*
D03*
X372962D02*
D03*
X447963D02*
D03*
X381962D02*
D03*
X456962D02*
D03*
X522963D02*
D03*
X72962Y21962D02*
D03*
X6962D02*
D03*
X81963D02*
D03*
X147962D02*
D03*
X222962D02*
D03*
X156963D02*
D03*
X231962D02*
D03*
X297962D02*
D03*
X372962D02*
D03*
X306962D02*
D03*
D22*
X6962Y349962D02*
D03*
X34962Y319963D02*
D03*
X72962Y349962D02*
D03*
X147962D02*
D03*
X109962Y319963D02*
D03*
X81963Y349962D02*
D03*
X156963D02*
D03*
X184962Y319963D02*
D03*
X222962Y349962D02*
D03*
X297962D02*
D03*
X259963Y319963D02*
D03*
X231962Y349962D02*
D03*
X306962D02*
D03*
X334963Y319963D02*
D03*
X372962Y349962D02*
D03*
X447963D02*
D03*
X409963Y319963D02*
D03*
X381962Y349962D02*
D03*
X21025Y274962D02*
D03*
X49025Y244963D02*
D03*
X87025Y274962D02*
D03*
X176087D02*
D03*
X138087Y244963D02*
D03*
X110088Y274962D02*
D03*
X185088D02*
D03*
X213088Y244963D02*
D03*
X251087Y274962D02*
D03*
X326087D02*
D03*
X288088Y244963D02*
D03*
X260087Y274962D02*
D03*
X335087D02*
D03*
X363088Y244963D02*
D03*
X401088Y274962D02*
D03*
X476088D02*
D03*
X438088Y244963D02*
D03*
X410087Y274962D02*
D03*
X33525Y199962D02*
D03*
X61525Y169963D02*
D03*
X99525Y199962D02*
D03*
X201087D02*
D03*
X163087Y169963D02*
D03*
X135088Y199962D02*
D03*
X210087D02*
D03*
X238088Y169963D02*
D03*
X276087Y199962D02*
D03*
X351087D02*
D03*
X313088Y169963D02*
D03*
X285087Y199962D02*
D03*
X360087D02*
D03*
X388088Y169963D02*
D03*
X426088Y199962D02*
D03*
X501088D02*
D03*
X463088Y169963D02*
D03*
X435087Y199962D02*
D03*
X73462Y83963D02*
D03*
X72462Y94963D02*
D03*
X81463Y83963D02*
D03*
X156963Y124962D02*
D03*
X184962Y94963D02*
D03*
X222962Y124962D02*
D03*
X297962D02*
D03*
X259963Y94963D02*
D03*
X231962Y124962D02*
D03*
X306962D02*
D03*
X334963Y94963D02*
D03*
X372962Y124962D02*
D03*
X447963D02*
D03*
X409963Y94963D02*
D03*
X381962Y124962D02*
D03*
X456962D02*
D03*
X484963Y94963D02*
D03*
X522963Y124962D02*
D03*
X72962Y49962D02*
D03*
X34962Y19963D02*
D03*
X6962Y49962D02*
D03*
X81963D02*
D03*
X109962Y19963D02*
D03*
X147962Y49962D02*
D03*
X222962D02*
D03*
X184962Y19963D02*
D03*
X156963Y49962D02*
D03*
X231962D02*
D03*
X259963Y19963D02*
D03*
X297962Y49962D02*
D03*
X372962D02*
D03*
X334963Y19963D02*
D03*
X306962Y49962D02*
D03*
X460962Y8963D02*
D03*
X459963Y19963D02*
D03*
X468962Y8963D02*
D03*
D23*
X39963Y339963D02*
D03*
X114962D02*
D03*
X189962D02*
D03*
X264963D02*
D03*
X339963D02*
D03*
X414962D02*
D03*
X54025Y264963D02*
D03*
X143087D02*
D03*
X218088D02*
D03*
X293088D02*
D03*
X368088D02*
D03*
X443087D02*
D03*
X66525Y189962D02*
D03*
X168087D02*
D03*
X243088D02*
D03*
X318088D02*
D03*
X393088D02*
D03*
X468087D02*
D03*
X77463Y114962D02*
D03*
X189962D02*
D03*
X264963D02*
D03*
X339963D02*
D03*
X414962D02*
D03*
X489962D02*
D03*
X39963Y39963D02*
D03*
X114962D02*
D03*
X189962D02*
D03*
X264963D02*
D03*
X339963D02*
D03*
X464962D02*
D03*
D24*
X59962Y339963D02*
D03*
X134962D02*
D03*
X209963D02*
D03*
X284963D02*
D03*
X359963D02*
D03*
X434963D02*
D03*
X74025Y264963D02*
D03*
X163087D02*
D03*
X238088D02*
D03*
X313088D02*
D03*
X388088D02*
D03*
X463088D02*
D03*
X86525Y189962D02*
D03*
X188087D02*
D03*
X263088D02*
D03*
X338088D02*
D03*
X413088D02*
D03*
X488088D02*
D03*
X97462Y114962D02*
D03*
X209963D02*
D03*
X284963D02*
D03*
X359963D02*
D03*
X434963D02*
D03*
X509963D02*
D03*
X59962Y39963D02*
D03*
X134962D02*
D03*
X209963D02*
D03*
X284963D02*
D03*
X359963D02*
D03*
X484963D02*
D03*
D25*
X19963Y339963D02*
D03*
X94963D02*
D03*
X169963D02*
D03*
X244963D02*
D03*
X319963D02*
D03*
X394963D02*
D03*
X34025Y264963D02*
D03*
X123088D02*
D03*
X198088D02*
D03*
X273088D02*
D03*
X348088D02*
D03*
X423088D02*
D03*
X46525Y189962D02*
D03*
X148088D02*
D03*
X223088D02*
D03*
X298088D02*
D03*
X373088D02*
D03*
X448088D02*
D03*
X57463Y114962D02*
D03*
X169963D02*
D03*
X244963D02*
D03*
X319963D02*
D03*
X394963D02*
D03*
X469963D02*
D03*
X19963Y39963D02*
D03*
X94963D02*
D03*
X169963D02*
D03*
X244963D02*
D03*
X319963D02*
D03*
X444963D02*
D03*
D26*
X24962Y349962D02*
D03*
X49962Y359963D02*
D03*
X29963D02*
D03*
X54962Y349962D02*
D03*
X129963D02*
D03*
X104963Y359963D02*
D03*
X124962D02*
D03*
X99963Y349962D02*
D03*
X174962D02*
D03*
X199962Y359963D02*
D03*
X179963D02*
D03*
X204962Y349962D02*
D03*
X279962D02*
D03*
X254962Y359963D02*
D03*
X274962D02*
D03*
X249962Y349962D02*
D03*
X324962D02*
D03*
X349962Y359963D02*
D03*
X329962D02*
D03*
X354962Y349962D02*
D03*
X429962D02*
D03*
X404962Y359963D02*
D03*
X424963D02*
D03*
X399962Y349962D02*
D03*
X39025Y274962D02*
D03*
X64025Y284963D02*
D03*
X44025D02*
D03*
X69025Y274962D02*
D03*
X158088D02*
D03*
X133088Y284963D02*
D03*
X153087D02*
D03*
X128087Y274962D02*
D03*
X203087D02*
D03*
X228087Y284963D02*
D03*
X208087D02*
D03*
X233087Y274962D02*
D03*
X308087D02*
D03*
X283087Y284963D02*
D03*
X303087D02*
D03*
X278087Y274962D02*
D03*
X353087D02*
D03*
X378087Y284963D02*
D03*
X358087D02*
D03*
X383087Y274962D02*
D03*
X458087D02*
D03*
X433087Y284963D02*
D03*
X453088D02*
D03*
X428088Y274962D02*
D03*
X51525Y199962D02*
D03*
X76525Y209963D02*
D03*
X56525D02*
D03*
X81525Y199962D02*
D03*
X183088D02*
D03*
X158088Y209963D02*
D03*
X178087D02*
D03*
X153087Y199962D02*
D03*
X228087D02*
D03*
X253087Y209963D02*
D03*
X233087D02*
D03*
X258087Y199962D02*
D03*
X333087D02*
D03*
X308087Y209963D02*
D03*
X328087D02*
D03*
X303087Y199962D02*
D03*
X378087D02*
D03*
X403088Y209963D02*
D03*
X383087D02*
D03*
X408087Y199962D02*
D03*
X483087D02*
D03*
X458087Y209963D02*
D03*
X478088D02*
D03*
X453088Y199962D02*
D03*
X62463Y124962D02*
D03*
X87463Y134962D02*
D03*
X67462D02*
D03*
X92462Y124962D02*
D03*
X174962D02*
D03*
X199962Y134962D02*
D03*
X179963D02*
D03*
X204962Y124962D02*
D03*
X279962D02*
D03*
X254962Y134962D02*
D03*
X274962D02*
D03*
X249962Y124962D02*
D03*
X324962D02*
D03*
X349962Y134962D02*
D03*
X329962D02*
D03*
X354962Y124962D02*
D03*
X429962D02*
D03*
X404962Y134962D02*
D03*
X424963D02*
D03*
X399962Y124962D02*
D03*
X474963D02*
D03*
X499963Y134962D02*
D03*
X479962D02*
D03*
X504962Y124962D02*
D03*
X54962Y49962D02*
D03*
X29963Y59962D02*
D03*
X49962D02*
D03*
X24962Y49962D02*
D03*
X99963D02*
D03*
X124962Y59962D02*
D03*
X104963D02*
D03*
X129963Y49962D02*
D03*
X204962D02*
D03*
X179963Y59962D02*
D03*
X199962D02*
D03*
X174962Y49962D02*
D03*
X249962D02*
D03*
X274962Y59962D02*
D03*
X254962D02*
D03*
X279962Y49962D02*
D03*
X354962D02*
D03*
X329962Y59962D02*
D03*
X349962D02*
D03*
X324962Y49962D02*
D03*
X449963D02*
D03*
X474963Y59962D02*
D03*
X454962D02*
D03*
X479962Y49962D02*
D03*
D27*
X44962Y319963D02*
D03*
X119963D02*
D03*
X194963D02*
D03*
X269963D02*
D03*
X344963D02*
D03*
X419963D02*
D03*
X59025Y244963D02*
D03*
X148088D02*
D03*
X223088D02*
D03*
X298088D02*
D03*
X373088D02*
D03*
X448088D02*
D03*
X71525Y169963D02*
D03*
X173088D02*
D03*
X248088D02*
D03*
X323088D02*
D03*
X398088D02*
D03*
X473088D02*
D03*
X82463Y94963D02*
D03*
X109462Y83963D02*
D03*
X194963Y94963D02*
D03*
X269963D02*
D03*
X344963D02*
D03*
X419963D02*
D03*
X494963D02*
D03*
X44962Y19963D02*
D03*
X119963D02*
D03*
X194963D02*
D03*
X269963D02*
D03*
X344963D02*
D03*
X469963D02*
D03*
X496962Y8963D02*
D03*
D28*
X45463Y83963D02*
D03*
X432963Y8963D02*
D03*
D29*
X124363Y147462D02*
D03*
X30562D02*
D03*
X511863Y72462D02*
D03*
X418062D02*
D03*
D30*
X124363Y87463D02*
D03*
X30562D02*
D03*
X511863Y12462D02*
D03*
X418062D02*
D03*
D31*
X527859Y146074D02*
D03*
X524909Y153375D02*
D03*
X521959Y160675D02*
D03*
X519000Y168000D02*
D03*
X516041Y175325D02*
D03*
X513091Y182625D02*
D03*
D32*
X10836Y75765D02*
D03*
D33*
X556660Y95953D02*
D03*
D34*
X376978Y369089D02*
D03*
X77765D02*
D03*
D35*
X562500Y37500D02*
D03*
X550000Y125000D02*
D03*
Y112500D02*
D03*
Y37500D02*
D03*
Y25000D02*
D03*
Y12500D02*
D03*
X537500Y162500D02*
D03*
Y37500D02*
D03*
Y25000D02*
D03*
Y12500D02*
D03*
X525000Y187500D02*
D03*
Y37500D02*
D03*
Y25000D02*
D03*
Y12500D02*
D03*
X512500Y225000D02*
D03*
Y212500D02*
D03*
Y200000D02*
D03*
Y187500D02*
D03*
Y162500D02*
D03*
Y150000D02*
D03*
Y137500D02*
D03*
Y100000D02*
D03*
Y50000D02*
D03*
Y37500D02*
D03*
Y25000D02*
D03*
X500000Y250000D02*
D03*
Y237500D02*
D03*
Y225000D02*
D03*
Y212500D02*
D03*
Y187500D02*
D03*
Y100000D02*
D03*
Y62500D02*
D03*
Y50000D02*
D03*
Y37500D02*
D03*
Y25000D02*
D03*
X487500Y287500D02*
D03*
Y275000D02*
D03*
Y262500D02*
D03*
Y250000D02*
D03*
Y237500D02*
D03*
Y212500D02*
D03*
Y175000D02*
D03*
Y162500D02*
D03*
Y150000D02*
D03*
Y137500D02*
D03*
Y100000D02*
D03*
Y75000D02*
D03*
Y62500D02*
D03*
Y50000D02*
D03*
Y25000D02*
D03*
Y12500D02*
D03*
X475000Y312500D02*
D03*
Y300000D02*
D03*
Y287500D02*
D03*
Y262500D02*
D03*
Y225000D02*
D03*
Y175000D02*
D03*
Y162500D02*
D03*
Y150000D02*
D03*
Y100000D02*
D03*
Y75000D02*
D03*
X462500Y350000D02*
D03*
Y337500D02*
D03*
Y325000D02*
D03*
Y312500D02*
D03*
Y300000D02*
D03*
Y287500D02*
D03*
Y250000D02*
D03*
Y225000D02*
D03*
Y200000D02*
D03*
Y175000D02*
D03*
Y162500D02*
D03*
Y150000D02*
D03*
Y125000D02*
D03*
Y112500D02*
D03*
Y100000D02*
D03*
Y75000D02*
D03*
Y62500D02*
D03*
X450000Y362500D02*
D03*
Y337500D02*
D03*
Y312500D02*
D03*
Y300000D02*
D03*
Y237500D02*
D03*
Y225000D02*
D03*
Y175000D02*
D03*
Y162500D02*
D03*
Y150000D02*
D03*
Y112500D02*
D03*
Y87500D02*
D03*
Y75000D02*
D03*
Y25000D02*
D03*
Y12500D02*
D03*
X437500Y362500D02*
D03*
Y325000D02*
D03*
Y300000D02*
D03*
Y275000D02*
D03*
Y250000D02*
D03*
Y237500D02*
D03*
Y225000D02*
D03*
Y150000D02*
D03*
Y100000D02*
D03*
Y50000D02*
D03*
Y37500D02*
D03*
Y25000D02*
D03*
Y12500D02*
D03*
X425000Y312500D02*
D03*
Y300000D02*
D03*
Y250000D02*
D03*
Y237500D02*
D03*
Y225000D02*
D03*
Y162500D02*
D03*
Y150000D02*
D03*
Y50000D02*
D03*
Y37500D02*
D03*
X412500Y362500D02*
D03*
Y325000D02*
D03*
Y312500D02*
D03*
Y300000D02*
D03*
Y262500D02*
D03*
Y225000D02*
D03*
Y175000D02*
D03*
Y162500D02*
D03*
Y150000D02*
D03*
Y37500D02*
D03*
Y25000D02*
D03*
X400000Y325000D02*
D03*
Y312500D02*
D03*
Y300000D02*
D03*
Y237500D02*
D03*
Y225000D02*
D03*
Y175000D02*
D03*
Y162500D02*
D03*
Y150000D02*
D03*
Y87500D02*
D03*
Y75000D02*
D03*
Y50000D02*
D03*
Y25000D02*
D03*
Y12500D02*
D03*
X387500Y350000D02*
D03*
Y337500D02*
D03*
Y325000D02*
D03*
Y312500D02*
D03*
Y300000D02*
D03*
Y250000D02*
D03*
Y237500D02*
D03*
Y225000D02*
D03*
Y200000D02*
D03*
Y175000D02*
D03*
Y162500D02*
D03*
Y150000D02*
D03*
Y125000D02*
D03*
Y112500D02*
D03*
Y87500D02*
D03*
Y75000D02*
D03*
Y50000D02*
D03*
Y37500D02*
D03*
Y12500D02*
D03*
X375000Y337500D02*
D03*
Y312500D02*
D03*
Y300000D02*
D03*
Y250000D02*
D03*
Y237500D02*
D03*
Y225000D02*
D03*
Y175000D02*
D03*
Y162500D02*
D03*
Y150000D02*
D03*
Y87500D02*
D03*
Y75000D02*
D03*
Y37500D02*
D03*
Y12500D02*
D03*
X362500Y325000D02*
D03*
Y312500D02*
D03*
Y300000D02*
D03*
Y275000D02*
D03*
Y250000D02*
D03*
Y237500D02*
D03*
Y225000D02*
D03*
Y187500D02*
D03*
Y150000D02*
D03*
Y75000D02*
D03*
Y25000D02*
D03*
Y12500D02*
D03*
X350000Y325000D02*
D03*
Y312500D02*
D03*
Y300000D02*
D03*
Y250000D02*
D03*
Y237500D02*
D03*
Y225000D02*
D03*
Y162500D02*
D03*
Y150000D02*
D03*
Y87500D02*
D03*
Y25000D02*
D03*
Y12500D02*
D03*
X337500Y325000D02*
D03*
Y300000D02*
D03*
Y262500D02*
D03*
Y225000D02*
D03*
Y175000D02*
D03*
Y162500D02*
D03*
Y150000D02*
D03*
Y87500D02*
D03*
Y25000D02*
D03*
Y12500D02*
D03*
X325000Y325000D02*
D03*
Y300000D02*
D03*
Y237500D02*
D03*
Y225000D02*
D03*
Y175000D02*
D03*
Y162500D02*
D03*
Y150000D02*
D03*
Y87500D02*
D03*
Y75000D02*
D03*
Y25000D02*
D03*
Y12500D02*
D03*
X312500Y350000D02*
D03*
Y337500D02*
D03*
Y325000D02*
D03*
Y300000D02*
D03*
Y250000D02*
D03*
Y237500D02*
D03*
Y225000D02*
D03*
Y200000D02*
D03*
Y175000D02*
D03*
Y162500D02*
D03*
Y150000D02*
D03*
Y125000D02*
D03*
Y112500D02*
D03*
Y87500D02*
D03*
Y75000D02*
D03*
Y37500D02*
D03*
Y25000D02*
D03*
Y12500D02*
D03*
X300000Y337500D02*
D03*
Y300000D02*
D03*
Y250000D02*
D03*
Y237500D02*
D03*
Y225000D02*
D03*
Y175000D02*
D03*
Y162500D02*
D03*
Y150000D02*
D03*
Y112500D02*
D03*
Y87500D02*
D03*
Y75000D02*
D03*
Y12500D02*
D03*
X287500Y325000D02*
D03*
Y300000D02*
D03*
Y275000D02*
D03*
Y250000D02*
D03*
Y237500D02*
D03*
Y225000D02*
D03*
Y187500D02*
D03*
Y150000D02*
D03*
Y75000D02*
D03*
Y25000D02*
D03*
Y12500D02*
D03*
X275000Y325000D02*
D03*
Y300000D02*
D03*
Y250000D02*
D03*
Y237500D02*
D03*
Y225000D02*
D03*
Y162500D02*
D03*
Y150000D02*
D03*
Y87500D02*
D03*
Y25000D02*
D03*
Y12500D02*
D03*
X262500Y325000D02*
D03*
Y312500D02*
D03*
Y300000D02*
D03*
Y262500D02*
D03*
Y225000D02*
D03*
Y175000D02*
D03*
Y162500D02*
D03*
Y150000D02*
D03*
Y87500D02*
D03*
Y75000D02*
D03*
Y25000D02*
D03*
Y12500D02*
D03*
X250000Y325000D02*
D03*
Y312500D02*
D03*
Y300000D02*
D03*
Y237500D02*
D03*
Y225000D02*
D03*
Y175000D02*
D03*
Y162500D02*
D03*
Y150000D02*
D03*
Y87500D02*
D03*
Y75000D02*
D03*
Y25000D02*
D03*
Y12500D02*
D03*
X237500Y350000D02*
D03*
Y337500D02*
D03*
Y325000D02*
D03*
Y312500D02*
D03*
Y300000D02*
D03*
Y250000D02*
D03*
Y237500D02*
D03*
Y225000D02*
D03*
Y200000D02*
D03*
Y175000D02*
D03*
Y162500D02*
D03*
Y150000D02*
D03*
Y125000D02*
D03*
Y112500D02*
D03*
Y87500D02*
D03*
Y75000D02*
D03*
Y37500D02*
D03*
Y25000D02*
D03*
Y12500D02*
D03*
X225000Y337500D02*
D03*
Y250000D02*
D03*
Y237500D02*
D03*
Y225000D02*
D03*
Y175000D02*
D03*
Y162500D02*
D03*
Y150000D02*
D03*
Y75000D02*
D03*
Y12500D02*
D03*
X212500Y325000D02*
D03*
Y312500D02*
D03*
Y300000D02*
D03*
Y275000D02*
D03*
Y250000D02*
D03*
Y237500D02*
D03*
Y225000D02*
D03*
Y187500D02*
D03*
Y150000D02*
D03*
Y87500D02*
D03*
Y25000D02*
D03*
Y12500D02*
D03*
X200000Y325000D02*
D03*
Y312500D02*
D03*
Y300000D02*
D03*
Y250000D02*
D03*
Y237500D02*
D03*
Y225000D02*
D03*
Y162500D02*
D03*
Y150000D02*
D03*
Y87500D02*
D03*
Y75000D02*
D03*
Y25000D02*
D03*
Y12500D02*
D03*
X187500Y325000D02*
D03*
Y312500D02*
D03*
Y300000D02*
D03*
Y262500D02*
D03*
Y225000D02*
D03*
Y175000D02*
D03*
Y162500D02*
D03*
Y150000D02*
D03*
Y75000D02*
D03*
Y25000D02*
D03*
Y12500D02*
D03*
X175000Y325000D02*
D03*
Y312500D02*
D03*
Y300000D02*
D03*
Y237500D02*
D03*
Y225000D02*
D03*
Y162500D02*
D03*
Y150000D02*
D03*
Y87500D02*
D03*
Y25000D02*
D03*
Y12500D02*
D03*
X162500Y350000D02*
D03*
Y337500D02*
D03*
Y325000D02*
D03*
Y312500D02*
D03*
Y300000D02*
D03*
Y250000D02*
D03*
Y237500D02*
D03*
Y225000D02*
D03*
Y200000D02*
D03*
Y175000D02*
D03*
Y162500D02*
D03*
Y150000D02*
D03*
Y125000D02*
D03*
Y112500D02*
D03*
Y87500D02*
D03*
Y75000D02*
D03*
Y37500D02*
D03*
Y25000D02*
D03*
Y12500D02*
D03*
X150000Y337500D02*
D03*
Y250000D02*
D03*
Y237500D02*
D03*
Y225000D02*
D03*
Y175000D02*
D03*
Y162500D02*
D03*
Y150000D02*
D03*
Y125000D02*
D03*
Y112500D02*
D03*
Y87500D02*
D03*
Y75000D02*
D03*
Y37500D02*
D03*
Y12500D02*
D03*
X137500Y325000D02*
D03*
Y312500D02*
D03*
Y300000D02*
D03*
Y275000D02*
D03*
Y250000D02*
D03*
Y237500D02*
D03*
Y225000D02*
D03*
Y187500D02*
D03*
Y162500D02*
D03*
Y150000D02*
D03*
Y125000D02*
D03*
Y112500D02*
D03*
Y87500D02*
D03*
Y75000D02*
D03*
Y25000D02*
D03*
Y12500D02*
D03*
X125000Y325000D02*
D03*
Y312500D02*
D03*
Y300000D02*
D03*
Y250000D02*
D03*
Y237500D02*
D03*
Y225000D02*
D03*
Y200000D02*
D03*
Y175000D02*
D03*
Y162500D02*
D03*
Y125000D02*
D03*
Y112500D02*
D03*
Y75000D02*
D03*
Y25000D02*
D03*
Y12500D02*
D03*
X112500Y325000D02*
D03*
Y312500D02*
D03*
Y300000D02*
D03*
Y262500D02*
D03*
Y237500D02*
D03*
Y225000D02*
D03*
Y200000D02*
D03*
Y187500D02*
D03*
Y175000D02*
D03*
Y162500D02*
D03*
Y150000D02*
D03*
Y125000D02*
D03*
Y112500D02*
D03*
Y75000D02*
D03*
Y25000D02*
D03*
Y12500D02*
D03*
X100000Y325000D02*
D03*
Y312500D02*
D03*
Y300000D02*
D03*
Y275000D02*
D03*
Y250000D02*
D03*
Y237500D02*
D03*
Y225000D02*
D03*
Y187500D02*
D03*
Y162500D02*
D03*
Y150000D02*
D03*
Y125000D02*
D03*
Y87500D02*
D03*
Y25000D02*
D03*
Y12500D02*
D03*
X87500Y350000D02*
D03*
Y337500D02*
D03*
Y325000D02*
D03*
Y312500D02*
D03*
Y300000D02*
D03*
Y262500D02*
D03*
Y237500D02*
D03*
Y225000D02*
D03*
Y175000D02*
D03*
Y162500D02*
D03*
Y150000D02*
D03*
Y75000D02*
D03*
Y37500D02*
D03*
Y25000D02*
D03*
Y12500D02*
D03*
X75000Y337500D02*
D03*
Y250000D02*
D03*
Y237500D02*
D03*
Y225000D02*
D03*
Y175000D02*
D03*
Y162500D02*
D03*
Y150000D02*
D03*
Y75000D02*
D03*
Y37500D02*
D03*
Y12500D02*
D03*
X62500Y325000D02*
D03*
Y312500D02*
D03*
Y300000D02*
D03*
Y250000D02*
D03*
Y237500D02*
D03*
Y225000D02*
D03*
Y200000D02*
D03*
Y175000D02*
D03*
Y162500D02*
D03*
Y150000D02*
D03*
Y87500D02*
D03*
Y75000D02*
D03*
Y25000D02*
D03*
Y12500D02*
D03*
X50000Y325000D02*
D03*
Y312500D02*
D03*
Y300000D02*
D03*
Y275000D02*
D03*
Y250000D02*
D03*
Y237500D02*
D03*
Y225000D02*
D03*
Y212500D02*
D03*
Y175000D02*
D03*
Y162500D02*
D03*
Y150000D02*
D03*
Y137500D02*
D03*
Y125000D02*
D03*
Y112500D02*
D03*
Y100000D02*
D03*
Y75000D02*
D03*
Y25000D02*
D03*
Y12500D02*
D03*
X37500Y325000D02*
D03*
Y312500D02*
D03*
Y300000D02*
D03*
Y287500D02*
D03*
Y250000D02*
D03*
Y237500D02*
D03*
Y225000D02*
D03*
Y212500D02*
D03*
Y162500D02*
D03*
Y137500D02*
D03*
Y125000D02*
D03*
Y112500D02*
D03*
Y100000D02*
D03*
Y25000D02*
D03*
Y12500D02*
D03*
X25000Y325000D02*
D03*
Y312500D02*
D03*
Y300000D02*
D03*
Y287500D02*
D03*
Y237500D02*
D03*
Y225000D02*
D03*
Y212500D02*
D03*
Y200000D02*
D03*
Y187500D02*
D03*
Y175000D02*
D03*
Y162500D02*
D03*
Y137500D02*
D03*
Y125000D02*
D03*
Y112500D02*
D03*
Y100000D02*
D03*
Y75000D02*
D03*
Y25000D02*
D03*
Y12500D02*
D03*
X12500Y362500D02*
D03*
Y350000D02*
D03*
Y325000D02*
D03*
Y312500D02*
D03*
Y300000D02*
D03*
Y287500D02*
D03*
Y275000D02*
D03*
Y262500D02*
D03*
Y250000D02*
D03*
Y237500D02*
D03*
Y125000D02*
D03*
Y112500D02*
D03*
Y100000D02*
D03*
Y62500D02*
D03*
Y25000D02*
D03*
Y12500D02*
D03*
X530800Y67500D02*
D03*
X542552Y86376D02*
D03*
X548500Y48500D02*
D03*
X555000Y44000D02*
D03*
X540037Y47962D02*
D03*
X539000Y43000D02*
D03*
X544835Y58835D02*
D03*
X549165D02*
D03*
X544835Y63165D02*
D03*
X549165D02*
D03*
X534000Y94226D02*
D03*
X534500Y57850D02*
D03*
X563000Y68000D02*
D03*
X536400Y83963D02*
D03*
X534696Y81000D02*
D03*
X539323Y78000D02*
D03*
X496000Y219500D02*
D03*
X563000Y54000D02*
D03*
X435000Y84000D02*
D03*
X454962Y86000D02*
D03*
X220000Y84000D02*
D03*
X285000D02*
D03*
X360000D02*
D03*
X522963Y83963D02*
D03*
D57*
X547000Y61000D02*
D03*
D58*
X551724Y68677D02*
D03*
X550150D02*
D03*
X548575D02*
D03*
X547000D02*
D03*
X545425D02*
D03*
X543850D02*
D03*
X542276D02*
D03*
Y53323D02*
D03*
X543850D02*
D03*
X545425D02*
D03*
X547000D02*
D03*
X548575D02*
D03*
X550150D02*
D03*
X551724D02*
D03*
D59*
X539323Y65724D02*
D03*
Y64150D02*
D03*
Y62575D02*
D03*
Y61000D02*
D03*
Y59425D02*
D03*
Y57850D02*
D03*
Y56276D02*
D03*
X554677D02*
D03*
Y57850D02*
D03*
Y59425D02*
D03*
Y61000D02*
D03*
Y62575D02*
D03*
Y64150D02*
D03*
Y65724D02*
D03*
D60*
X563000Y57850D02*
D03*
Y64150D02*
D03*
X531000Y64150D02*
D03*
Y57850D02*
D03*
Y89299D02*
D03*
Y83000D02*
D03*
M02*
